SplineFontDB: 3.0
FontName: DistinguishMono-Bold
FullName: Distinguish Mono Bold
FamilyName: Distinguish Mono
Weight: Bold
Copyright: Copyright 2015 Google Inc. All Rights Reserved.
Version: 2.000;GOOG;noto-source:20170915:90ef993387c0; ttfautohint (v1.7)
ItalicAngle: 0
UnderlinePosition: -125
UnderlineWidth: 50
Ascent: 800
Descent: 200
InvalidEm: 0
sfntRevision: 0x00020000
LayerCount: 2
Layer: 0 1 "Back" 1
Layer: 1 1 "Fore" 0
XUID: [1021 269 1684064080 11474689]
StyleMap: 0x0000
FSType: 0
OS2Version: 4
OS2_WeightWidthSlopeOnly: 1
OS2_UseTypoMetrics: 0
CreationTime: 1435678095
ModificationTime: 1515872829
PfmFamily: 17
TTFWeight: 700
TTFWidth: 5
LineGap: 0
VLineGap: 0
Panose: 2 11 8 9 4 5 4 2 2 4
OS2TypoAscent: 1069
OS2TypoAOffset: 0
OS2TypoDescent: -293
OS2TypoDOffset: 0
OS2TypoLinegap: 0
OS2WinAscent: 1069
OS2WinAOffset: 0
OS2WinDescent: 293
OS2WinDOffset: 0
HheadAscent: 1069
HheadAOffset: 0
HheadDescent: -293
HheadDOffset: 0
OS2SubXSize: 650
OS2SubYSize: 600
OS2SubXOff: 0
OS2SubYOff: 75
OS2SupXSize: 650
OS2SupYSize: 600
OS2SupXOff: 0
OS2SupYOff: 350
OS2StrikeYSize: 50
OS2StrikeYPos: 322
OS2CapHeight: 714
OS2XHeight: 536
OS2Vendor: 'GOOG'
OS2CodePages: 00000000.00000000
OS2UnicodeRanges: e00002ff.400038df.08000029.00100000
Lookup: 1 0 0 "'aalt' Access All Alternates lookup 0" { "'aalt' Access All Alternates lookup 0 subtable"  } ['aalt' ('DFLT' <'dflt' > 'cyrl' <'SRB ' 'dflt' > 'grek' <'dflt' > 'latn' <'CAT ' 'MAH ' 'MOL ' 'NAV ' 'ROM ' 'dflt' > ) ]
Lookup: 3 0 0 "'aalt' Access All Alternates lookup 1" { "'aalt' Access All Alternates lookup 1 subtable"  } ['aalt' ('DFLT' <'dflt' > 'cyrl' <'SRB ' 'dflt' > 'grek' <'dflt' > 'latn' <'CAT ' 'MAH ' 'MOL ' 'NAV ' 'ROM ' 'dflt' > ) ]
Lookup: 4 0 0 "'ccmp' Glyph Composition/Decomposition lookup 2" { "'ccmp' Glyph Composition/Decomposition lookup 2 subtable"  } ['ccmp' ('DFLT' <'dflt' > 'cyrl' <'SRB ' 'dflt' > 'grek' <'dflt' > 'latn' <'CAT ' 'MAH ' 'MOL ' 'NAV ' 'ROM ' 'dflt' > ) ]

StartChar: .notdef
Encoding: 65536 -1 0
Width: 600
Flags: W
LayerCount: 2
Fore
SplineSet
94 0 m 1,0,-1
 94 714 l 1,1,-1
 505 714 l 1,2,-1
 505 0 l 1,3,-1
 94 0 l 1,0,-1
145 51 m 1,4,-1
 454 51 l 1,5,-1
 454 663 l 1,6,-1
 145 663 l 1,7,-1
 145 51 l 1,4,-1
EndSplineSet
EndChar

StartChar: exclam
Encoding: 33 33 4
Width: 600
Flags: W
LayerCount: 2
Fore
SplineSet
237 237 m 1,0,-1
 216 714 l 1,1,-1
 385 714 l 1,2,-1
 364 237 l 1,3,-1
 237 237 l 1,0,-1
300 -10 m 0,4,5
 256 -10 256 -10 232.5 13 c 128,-1,6
 209 36 209 36 209 78 c 0,7,8
 209 166 209 166 300 166 c 0,9,10
 343 166 343 166 366.5 143 c 128,-1,11
 390 120 390 120 390 78 c 0,12,13
 390 38 390 38 366 14 c 128,-1,14
 342 -10 342 -10 300 -10 c 0,4,5
EndSplineSet
Substitution2: "'smcp' Lowercase to Small Capitals lookup 33 subtable" exclam.sc
Substitution2: "'c2sc' Capitals to Small Capitals lookup 32 subtable" exclam.sc
Substitution2: "'aalt' Access All Alternates lookup 0 subtable" exclam.sc
EndChar

StartChar: quotedbl
Encoding: 34 34 5
Width: 600
Flags: W
LayerCount: 2
Fore
SplineSet
350 456 m 1,0,-1
 331 714 l 1,1,-1
 470 714 l 1,2,-1
 451 456 l 1,3,-1
 350 456 l 1,0,-1
149 456 m 1,4,-1
 130 714 l 1,5,-1
 269 714 l 1,6,-1
 250 456 l 1,7,-1
 149 456 l 1,4,-1
EndSplineSet
EndChar

StartChar: numbersign
Encoding: 35 35 6
Width: 600
Flags: W
LayerCount: 2
Fore
SplineSet
99 0 m 1,0,-1
 130 200 l 1,1,-1
 15 200 l 1,2,-1
 15 298 l 1,3,-1
 146 298 l 1,4,-1
 166 418 l 1,5,-1
 44 418 l 1,6,-1
 44 517 l 1,7,-1
 181 517 l 1,8,-1
 214 714 l 1,9,-1
 315 714 l 1,10,-1
 282 517 l 1,11,-1
 369 517 l 1,12,-1
 401 714 l 1,13,-1
 501 714 l 1,14,-1
 469 517 l 1,15,-1
 585 517 l 1,16,-1
 585 418 l 1,17,-1
 453 418 l 1,18,-1
 433 298 l 1,19,-1
 556 298 l 1,20,-1
 556 200 l 1,21,-1
 418 200 l 1,22,-1
 385 0 l 1,23,-1
 283 0 l 1,24,-1
 316 200 l 1,25,-1
 230 200 l 1,26,-1
 199 0 l 1,27,-1
 99 0 l 1,0,-1
247 298 m 1,28,-1
 333 298 l 1,29,-1
 353 418 l 1,30,-1
 267 418 l 1,31,-1
 247 298 l 1,28,-1
EndSplineSet
EndChar

StartChar: dollar
Encoding: 36 36 7
Width: 600
Flags: W
LayerCount: 2
Fore
SplineSet
270 -58 m 1,0,-1
 270 35 l 1,1,2
 160 38 160 38 81 75 c 1,3,-1
 81 199 l 1,4,5
 118 178 118 178 170.5 161 c 128,-1,6
 223 144 223 144 270 142 c 1,7,-1
 270 313 l 1,8,9
 170 352 170 352 125.5 395 c 128,-1,10
 81 438 81 438 81 507 c 0,11,12
 81 589 81 589 134 635 c 128,-1,13
 187 681 187 681 270 690 c 1,14,-1
 270 759 l 1,15,-1
 335 759 l 1,16,-1
 335 691 l 1,17,18
 382 689 382 689 427 678.5 c 128,-1,19
 472 668 472 668 512 648 c 1,20,-1
 474 541 l 1,21,22
 441 557 441 557 404.5 566 c 128,-1,23
 368 575 368 575 335 578 c 1,24,-1
 335 416 l 1,25,26
 389 396 389 396 430.5 372 c 128,-1,27
 472 348 472 348 496 313 c 128,-1,28
 520 278 520 278 520 226 c 0,29,30
 520 152 520 152 473 101 c 128,-1,31
 426 50 426 50 335 37 c 1,32,-1
 335 -58 l 1,33,-1
 270 -58 l 1,0,-1
270 443 m 1,34,-1
 270 577 l 1,35,36
 207 569 207 569 207 511 c 0,37,38
 207 488 207 488 222.5 472 c 128,-1,39
 238 456 238 456 270 443 c 1,34,-1
335 148 m 1,40,41
 395 160 395 160 395 218 c 0,42,43
 395 244 395 244 380 258.5 c 128,-1,44
 365 273 365 273 335 287 c 1,45,-1
 335 148 l 1,40,41
EndSplineSet
EndChar

StartChar: percent
Encoding: 37 37 8
Width: 600
Flags: W
LayerCount: 2
Fore
SplineSet
142 383 m 0,0,1
 77 383 77 383 38.5 426.5 c 128,-1,2
 0 470 0 470 0 550 c 0,3,4
 0 633 0 633 38.5 677.5 c 128,-1,5
 77 722 77 722 142 722 c 0,6,7
 211 722 211 722 248.5 677.5 c 128,-1,8
 286 633 286 633 286 550 c 0,9,10
 286 470 286 470 248.5 426.5 c 128,-1,11
 211 383 211 383 142 383 c 0,0,1
59 0 m 1,12,-1
 424 714 l 1,13,-1
 531 714 l 1,14,-1
 167 0 l 1,15,-1
 59 0 l 1,12,-1
144 468 m 0,16,17
 188 468 188 468 188 550 c 0,18,19
 188 637 188 637 144 637 c 0,20,21
 119 637 119 637 108.5 616 c 128,-1,22
 98 595 98 595 98 550 c 0,23,24
 98 509 98 509 108.5 488.5 c 128,-1,25
 119 468 119 468 144 468 c 0,16,17
456 -9 m 0,26,27
 391 -9 391 -9 352.5 34.5 c 128,-1,28
 314 78 314 78 314 158 c 0,29,30
 314 241 314 241 352.5 285.5 c 128,-1,31
 391 330 391 330 456 330 c 0,32,33
 525 330 525 330 562.5 285.5 c 128,-1,34
 600 241 600 241 600 158 c 0,35,36
 600 78 600 78 562.5 34.5 c 128,-1,37
 525 -9 525 -9 456 -9 c 0,26,27
458 76 m 0,38,39
 502 76 502 76 502 158 c 0,40,41
 502 245 502 245 458 245 c 0,42,43
 433 245 433 245 422.5 224 c 128,-1,44
 412 203 412 203 412 158 c 0,45,46
 412 117 412 117 422.5 96.5 c 128,-1,47
 433 76 433 76 458 76 c 0,38,39
EndSplineSet
EndChar

StartChar: ampersand
Encoding: 38 38 9
Width: 600
Flags: W
LayerCount: 2
Fore
SplineSet
217 -10 m 0,0,1
 153 -10 153 -10 111.5 15 c 128,-1,2
 70 40 70 40 50 82.5 c 128,-1,3
 30 125 30 125 30 179 c 0,4,5
 30 240 30 240 58.5 290 c 128,-1,6
 87 340 87 340 145 389 c 1,7,8
 125 419 125 419 106 460 c 128,-1,9
 87 501 87 501 87 554 c 0,10,11
 87 633 87 633 130.5 678 c 128,-1,12
 174 723 174 723 248 723 c 0,13,14
 328 723 328 723 371.5 680.5 c 128,-1,15
 415 638 415 638 415 564 c 0,16,17
 415 515 415 515 385.5 466.5 c 128,-1,18
 356 418 356 418 304 370 c 1,19,-1
 394 252 l 1,20,21
 407 285 407 285 416 317.5 c 128,-1,22
 425 350 425 350 429 377 c 1,23,-1
 557 377 l 1,24,25
 549 318 549 318 529 257 c 128,-1,26
 509 196 509 196 476 144 c 1,27,-1
 585 0 l 1,28,-1
 427 0 l 1,29,-1
 391 49 l 1,30,31
 356 22 356 22 312.5 6 c 128,-1,32
 269 -10 269 -10 217 -10 c 0,0,1
207 562 m 0,33,34
 207 531 207 531 216.5 505.5 c 128,-1,35
 226 480 226 480 237 461 c 1,36,37
 263 483 263 483 281 508.5 c 128,-1,38
 299 534 299 534 299 566 c 0,39,40
 299 596 299 596 287 611 c 128,-1,41
 275 626 275 626 255 626 c 0,42,43
 233 626 233 626 220 610 c 128,-1,44
 207 594 207 594 207 562 c 0,33,34
158 188 m 0,45,46
 158 157 158 157 177 132 c 128,-1,47
 196 107 196 107 233 107 c 0,48,49
 259 107 259 107 281.5 117 c 128,-1,50
 304 127 304 127 323 144 c 1,51,-1
 215 294 l 1,52,53
 188 269 188 269 173 245 c 128,-1,54
 158 221 158 221 158 188 c 0,45,46
EndSplineSet
Substitution2: "'smcp' Lowercase to Small Capitals lookup 33 subtable" ampersand.sc
Substitution2: "'c2sc' Capitals to Small Capitals lookup 32 subtable" ampersand.sc
Substitution2: "'aalt' Access All Alternates lookup 0 subtable" ampersand.sc
EndChar

StartChar: quotesingle
Encoding: 39 39 10
Width: 600
Flags: W
LayerCount: 2
Fore
SplineSet
249 456 m 1,0,-1
 230 714 l 1,1,-1
 369 714 l 1,2,-1
 350 456 l 1,3,-1
 249 456 l 1,0,-1
EndSplineSet
EndChar

StartChar: parenleft
Encoding: 40 40 11
Width: 600
Flags: W
LayerCount: 2
Fore
SplineSet
331 -165 m 1,0,1
 262 -78 262 -78 226 33 c 128,-1,2
 190 144 190 144 190 271 c 0,3,4
 190 400 190 400 226.5 513 c 128,-1,5
 263 626 263 626 331 714 c 1,6,-1
 450 714 l 1,7,8
 383 619 383 619 349.5 506.5 c 128,-1,9
 316 394 316 394 316 272 c 0,10,11
 316 153 316 153 350 42 c 128,-1,12
 384 -69 384 -69 449 -165 c 1,13,-1
 331 -165 l 1,0,1
EndSplineSet
Substitution2: "'smcp' Lowercase to Small Capitals lookup 33 subtable" parenleft.sc
Substitution2: "'c2sc' Capitals to Small Capitals lookup 32 subtable" parenleft.sc
Substitution2: "'sups' Superscript lookup 21 subtable" uni207D
Substitution2: "'subs' Subscript lookup 20 subtable" uni208D
AlternateSubs2: "'aalt' Access All Alternates lookup 1 subtable" uni208D uni207D parenleft.sc
EndChar

StartChar: asterisk
Encoding: 42 42 13
Width: 600
Flags: W
LayerCount: 2
Fore
SplineSet
376 321 m 1,0,-1
 299 465 l 1,1,-1
 224 322 l 1,2,-1
 128 379 l 1,3,-1
 226 507 l 1,4,-1
 75 527 l 1,5,-1
 99 632 l 1,6,-1
 255 591 l 1,7,-1
 242 755 l 1,8,-1
 359 755 l 1,9,-1
 345 590 l 1,10,-1
 503 634 l 1,11,-1
 525 525 l 1,12,-1
 374 507 l 1,13,-1
 473 380 l 1,14,-1
 376 321 l 1,0,-1
EndSplineSet
EndChar

StartChar: plus
Encoding: 43 43 14
Width: 600
Flags: W
LayerCount: 2
Fore
SplineSet
248 117 m 1,0,-1
 248 300 l 1,1,-1
 70 300 l 1,2,-1
 70 406 l 1,3,-1
 248 406 l 1,4,-1
 248 592 l 1,5,-1
 355 592 l 1,6,-1
 355 406 l 1,7,-1
 530 406 l 1,8,-1
 530 300 l 1,9,-1
 355 300 l 1,10,-1
 355 117 l 1,11,-1
 248 117 l 1,0,-1
EndSplineSet
Substitution2: "'sups' Superscript lookup 21 subtable" uni207A
Substitution2: "'subs' Subscript lookup 20 subtable" uni208A
AlternateSubs2: "'aalt' Access All Alternates lookup 1 subtable" uni208A uni207A
EndChar

StartChar: comma
Encoding: 44 44 15
Width: 600
Flags: W
LayerCount: 2
Fore
SplineSet
194 -156 m 1,0,1
 204 -112 204 -112 214.5 -58.5 c 128,-1,2
 225 -5 225 -5 233.5 46.5 c 128,-1,3
 242 98 242 98 248 136 c 1,4,-1
 385 136 l 1,5,-1
 392 125 l 1,6,7
 384 92 384 92 370 43 c 128,-1,8
 356 -6 356 -6 339 -58.5 c 128,-1,9
 322 -111 322 -111 301 -156 c 1,10,-1
 194 -156 l 1,0,1
EndSplineSet
EndChar

StartChar: hyphen
Encoding: 45 45 16
Width: 600
Flags: W
LayerCount: 2
Fore
SplineSet
150 205 m 1,0,-1
 150 330 l 1,1,-1
 450 330 l 1,2,-1
 450 205 l 1,3,-1
 150 205 l 1,0,-1
EndSplineSet
EndChar

StartChar: period
Encoding: 46 46 17
Width: 600
Flags: W
LayerCount: 2
Fore
SplineSet
300 -10 m 0,0,1
 256 -10 256 -10 232.5 13 c 128,-1,2
 209 36 209 36 209 78 c 0,3,4
 209 166 209 166 300 166 c 0,5,6
 343 166 343 166 366.5 143 c 128,-1,7
 390 120 390 120 390 78 c 0,8,9
 390 38 390 38 366 14 c 128,-1,10
 342 -10 342 -10 300 -10 c 0,0,1
EndSplineSet
EndChar

StartChar: slash
Encoding: 47 47 18
Width: 600
Flags: W
LayerCount: 2
Fore
SplineSet
100 -4 m 1,0,-1
 375 718 l 1,1,-1
 500 718 l 1,2,-1
 226 -4 l 1,3,-1
 100 -4 l 1,0,-1
EndSplineSet
Substitution2: "'frac' Diagonal Fractions lookup 24 subtable" fraction
Substitution2: "'aalt' Access All Alternates lookup 0 subtable" fraction
EndChar

StartChar: zero
Encoding: 48 48 19
Width: 600
Flags: W
LayerCount: 2
Fore
SplineSet
302 -10 m 0,0,1
 172 -10 172 -10 111 85.5 c 128,-1,2
 50 181 50 181 50 361 c 0,3,4
 50 540 50 540 110 632 c 128,-1,5
 170 724 170 724 297 724 c 0,6,7
 427 724 427 724 488.5 628.5 c 128,-1,8
 550 533 550 533 550 352 c 0,9,10
 550 246 550 246 526.5 164 c 128,-1,11
 503 82 503 82 448.5 36 c 128,-1,12
 394 -10 394 -10 302 -10 c 0,0,1
190 352 m 0,13,14
 190 314 190 314 192 283 c 1,15,-1
 366 571 l 1,16,17
 341 603 341 603 299 603 c 0,18,19
 238 603 238 603 214 538.5 c 128,-1,20
 190 474 190 474 190 352 c 0,13,14
299 107 m 0,21,22
 361 107 361 107 384 167.5 c 128,-1,23
 407 228 407 228 407 350 c 0,24,25
 407 374 407 374 406 395.5 c 128,-1,26
 405 417 405 417 404 437 c 1,27,-1
 225 146 l 1,28,29
 251 107 251 107 299 107 c 0,21,22
EndSplineSet
Substitution2: "'zero' Slashed Zero lookup 36 subtable" zero.slash
Substitution2: "'onum' Oldstyle Figures lookup 31 subtable" zero.osf
Substitution2: "'frac' Diagonal Fractions lookup 25 subtable" zero.numr
Substitution2: "'dnom' Denominators lookup 23 subtable" zero.dnom
Substitution2: "'numr' Numerators lookup 22 subtable" zero.numr
Substitution2: "'sups' Superscript lookup 21 subtable" uni2070
Substitution2: "'subs' Subscript lookup 20 subtable" uni2080
AlternateSubs2: "'aalt' Access All Alternates lookup 1 subtable" uni2070 zero.osf zero.dnom zero.numr uni2080
EndChar

StartChar: one
Encoding: 49 49 20
Width: 600
Flags: W
LayerCount: 2
Fore
SplineSet
113 0 m 1,0,-1
 113 101 l 1,1,-1
 251 116 l 1,2,-1
 251 413 l 2,3,4
 251 452 251 452 252 486 c 128,-1,5
 253 520 253 520 255 555 c 1,6,7
 240 545 240 545 226 536.5 c 128,-1,8
 212 528 212 528 201 522 c 2,9,-1
 133 485 l 1,10,-1
 68 602 l 1,11,-1
 278 714 l 1,12,-1
 396 714 l 1,13,-1
 396 116 l 1,14,-1
 530 101 l 1,15,-1
 530 0 l 1,16,-1
 113 0 l 1,0,-1
EndSplineSet
Substitution2: "'onum' Oldstyle Figures lookup 31 subtable" one.osf
Substitution2: "'frac' Diagonal Fractions lookup 25 subtable" one.numr
Substitution2: "'dnom' Denominators lookup 23 subtable" one.dnom
Substitution2: "'numr' Numerators lookup 22 subtable" one.numr
Substitution2: "'sups' Superscript lookup 21 subtable" uni00B9
Substitution2: "'subs' Subscript lookup 20 subtable" uni2081
AlternateSubs2: "'aalt' Access All Alternates lookup 1 subtable" uni00B9 one.osf one.dnom one.numr uni2081
EndChar

StartChar: two
Encoding: 50 50 21
Width: 600
Flags: W
LayerCount: 2
Fore
SplineSet
57 0 m 1,0,-1
 57 105 l 1,1,-1
 231 279 l 2,2,3
 273 321 273 321 308 358 c 128,-1,4
 343 395 343 395 364 431.5 c 128,-1,5
 385 468 385 468 385 508 c 0,6,7
 385 551 385 551 359.5 574.5 c 128,-1,8
 334 598 334 598 294 598 c 256,9,10
 254 598 254 598 217 580 c 128,-1,11
 180 562 180 562 137 525 c 1,12,-1
 55 622 l 1,13,14
 94 656 94 656 129.5 678.5 c 128,-1,15
 165 701 165 701 206.5 712.5 c 128,-1,16
 248 724 248 724 305 724 c 0,17,18
 378 724 378 724 429.5 698 c 128,-1,19
 481 672 481 672 508.5 627 c 128,-1,20
 536 582 536 582 536 526 c 0,21,22
 536 462 536 462 508 409.5 c 128,-1,23
 480 357 480 357 434.5 309.5 c 128,-1,24
 389 262 389 262 335 215 c 2,25,-1
 243 134 l 1,26,-1
 243 124 l 1,27,-1
 555 124 l 1,28,-1
 555 0 l 1,29,-1
 57 0 l 1,0,-1
EndSplineSet
Substitution2: "'onum' Oldstyle Figures lookup 31 subtable" two.osf
Substitution2: "'frac' Diagonal Fractions lookup 25 subtable" two.numr
Substitution2: "'dnom' Denominators lookup 23 subtable" two.dnom
Substitution2: "'numr' Numerators lookup 22 subtable" two.numr
Substitution2: "'sups' Superscript lookup 21 subtable" uni00B2
Substitution2: "'subs' Subscript lookup 20 subtable" uni2082
AlternateSubs2: "'aalt' Access All Alternates lookup 1 subtable" uni00B2 two.osf two.dnom two.numr uni2082
EndChar

StartChar: three
Encoding: 51 51 22
Width: 600
Flags: W
LayerCount: 2
Fore
SplineSet
273 -10 m 0,0,1
 224 -10 224 -10 171.5 0 c 128,-1,2
 119 10 119 10 71 29 c 1,3,-1
 71 157 l 1,4,5
 115 136 115 136 166.5 124 c 128,-1,6
 218 112 218 112 262 112 c 0,7,8
 387 112 387 112 387 215 c 0,9,10
 387 267 387 267 350.5 288 c 128,-1,11
 314 309 314 309 229 309 c 2,12,-1
 175 309 l 1,13,-1
 175 425 l 1,14,-1
 230 425 l 2,15,16
 306 425 306 425 341 449.5 c 128,-1,17
 376 474 376 474 376 521 c 0,18,19
 376 554 376 554 357 577 c 128,-1,20
 338 600 338 600 289 600 c 0,21,22
 258 600 258 600 220 588 c 128,-1,23
 182 576 182 576 134 550 c 1,24,-1
 69 654 l 1,25,26
 173 724 173 724 297 724 c 0,27,28
 354 724 354 724 403.5 706.5 c 128,-1,29
 453 689 453 689 483.5 651.5 c 128,-1,30
 514 614 514 614 514 553 c 0,31,32
 514 491 514 491 478 442 c 128,-1,33
 442 393 442 393 375 376 c 1,34,-1
 375 373 l 1,35,36
 459 361 459 361 497 319 c 128,-1,37
 535 277 535 277 535 208 c 0,38,39
 535 132 535 132 499.5 83.5 c 128,-1,40
 464 35 464 35 405 12.5 c 128,-1,41
 346 -10 346 -10 273 -10 c 0,0,1
EndSplineSet
Substitution2: "'onum' Oldstyle Figures lookup 31 subtable" three.osf
Substitution2: "'frac' Diagonal Fractions lookup 25 subtable" three.numr
Substitution2: "'dnom' Denominators lookup 23 subtable" three.dnom
Substitution2: "'numr' Numerators lookup 22 subtable" three.numr
Substitution2: "'sups' Superscript lookup 21 subtable" uni00B3
Substitution2: "'subs' Subscript lookup 20 subtable" uni2083
AlternateSubs2: "'aalt' Access All Alternates lookup 1 subtable" uni00B3 three.osf three.dnom three.numr uni2083
EndChar

StartChar: four
Encoding: 52 52 23
Width: 600
Flags: W
LayerCount: 2
Fore
SplineSet
330 0 m 1,0,-1
 330 148 l 1,1,-1
 40 148 l 1,2,-1
 40 253 l 1,3,-1
 333 714 l 1,4,-1
 468 714 l 1,5,-1
 468 265 l 1,6,-1
 560 265 l 1,7,-1
 560 148 l 1,8,-1
 468 148 l 1,9,-1
 468 0 l 1,10,-1
 330 0 l 1,0,-1
173 265 m 1,11,-1
 330 265 l 1,12,-1
 330 386 l 2,13,14
 330 397 330 397 331 420.5 c 128,-1,15
 332 444 332 444 333 469.5 c 128,-1,16
 334 495 334 495 335 515 c 128,-1,17
 336 535 336 535 337 539 c 1,18,-1
 333 539 l 1,19,20
 324 519 324 519 313 500 c 128,-1,21
 302 481 302 481 290 461 c 2,22,-1
 173 265 l 1,11,-1
EndSplineSet
Substitution2: "'onum' Oldstyle Figures lookup 31 subtable" four.osf
Substitution2: "'frac' Diagonal Fractions lookup 25 subtable" four.numr
Substitution2: "'dnom' Denominators lookup 23 subtable" four.dnom
Substitution2: "'numr' Numerators lookup 22 subtable" four.numr
Substitution2: "'sups' Superscript lookup 21 subtable" uni2074
Substitution2: "'subs' Subscript lookup 20 subtable" uni2084
AlternateSubs2: "'aalt' Access All Alternates lookup 1 subtable" uni2074 four.osf four.dnom four.numr uni2084
EndChar

StartChar: five
Encoding: 53 53 24
Width: 600
Flags: W
LayerCount: 2
Fore
SplineSet
253 -10 m 0,0,1
 208 -10 208 -10 160.5 0 c 128,-1,2
 113 10 113 10 76 29 c 1,3,-1
 76 159 l 1,4,5
 120 137 120 137 167 126.5 c 128,-1,6
 214 116 214 116 255 116 c 0,7,8
 373 116 373 116 373 222 c 0,9,10
 373 265 373 265 356 290 c 128,-1,11
 339 315 339 315 312 326 c 128,-1,12
 285 337 285 337 254 337 c 0,13,14
 226 337 226 337 197 332.5 c 128,-1,15
 168 328 168 328 148 320 c 1,16,-1
 88 350 l 1,17,-1
 116 714 l 1,18,-1
 486 714 l 1,19,-1
 486 590 l 1,20,-1
 246 590 l 1,21,-1
 235 446 l 1,22,23
 258 450 258 450 277.5 452 c 128,-1,24
 297 454 297 454 311 454 c 0,25,26
 372 454 372 454 420.5 428.5 c 128,-1,27
 469 403 469 403 497 353.5 c 128,-1,28
 525 304 525 304 525 232 c 0,29,30
 525 152 525 152 489 98 c 128,-1,31
 453 44 453 44 391.5 17 c 128,-1,32
 330 -10 330 -10 253 -10 c 0,0,1
EndSplineSet
Substitution2: "'onum' Oldstyle Figures lookup 31 subtable" five.osf
Substitution2: "'frac' Diagonal Fractions lookup 25 subtable" five.numr
Substitution2: "'dnom' Denominators lookup 23 subtable" five.dnom
Substitution2: "'numr' Numerators lookup 22 subtable" five.numr
Substitution2: "'sups' Superscript lookup 21 subtable" uni2075
Substitution2: "'subs' Subscript lookup 20 subtable" uni2085
AlternateSubs2: "'aalt' Access All Alternates lookup 1 subtable" uni2075 five.osf five.dnom five.numr uni2085
EndChar

StartChar: six
Encoding: 54 54 25
Width: 600
Flags: W
LayerCount: 2
Fore
SplineSet
309 -11 m 0,0,1
 194 -11 194 -11 124.5 74.5 c 128,-1,2
 55 160 55 160 55 326 c 0,3,4
 55 521 55 521 142.5 621.5 c 128,-1,5
 230 722 230 722 411 722 c 0,6,7
 433 722 433 722 455.5 720.5 c 128,-1,8
 478 719 478 719 495 715 c 1,9,-1
 495 594 l 1,10,11
 454 604 454 604 405 604 c 0,12,13
 304 604 304 604 253.5 548.5 c 128,-1,14
 203 493 203 493 194 381 c 1,15,-1
 200 381 l 1,16,17
 224 422 224 422 261 443 c 128,-1,18
 298 464 298 464 352 464 c 0,19,20
 446 464 446 464 495.5 403 c 128,-1,21
 545 342 545 342 545 238 c 0,22,23
 545 123 545 123 483 56 c 128,-1,24
 421 -11 421 -11 309 -11 c 0,0,1
306 116 m 0,25,26
 399 116 399 116 399 236 c 0,27,28
 399 288 399 288 377 318 c 128,-1,29
 355 348 355 348 309 348 c 0,30,31
 267 348 267 348 236 317 c 128,-1,32
 205 286 205 286 205 230 c 0,33,34
 205 179 205 179 232.5 147.5 c 128,-1,35
 260 116 260 116 306 116 c 0,25,26
EndSplineSet
Substitution2: "'onum' Oldstyle Figures lookup 31 subtable" six.osf
Substitution2: "'frac' Diagonal Fractions lookup 25 subtable" six.numr
Substitution2: "'dnom' Denominators lookup 23 subtable" six.dnom
Substitution2: "'numr' Numerators lookup 22 subtable" six.numr
Substitution2: "'sups' Superscript lookup 21 subtable" uni2076
Substitution2: "'subs' Subscript lookup 20 subtable" uni2086
AlternateSubs2: "'aalt' Access All Alternates lookup 1 subtable" uni2076 six.osf six.dnom six.numr uni2086
EndChar

StartChar: seven
Encoding: 55 55 26
Width: 600
Flags: W
LayerCount: 2
Fore
SplineSet
122 0 m 1,0,-1
 390 590 l 1,1,-1
 50 590 l 1,2,-1
 50 713 l 1,3,-1
 550 713 l 1,4,-1
 550 618 l 1,5,-1
 280 0 l 1,6,-1
 122 0 l 1,0,-1
EndSplineSet
Substitution2: "'onum' Oldstyle Figures lookup 31 subtable" seven.osf
Substitution2: "'frac' Diagonal Fractions lookup 25 subtable" seven.numr
Substitution2: "'dnom' Denominators lookup 23 subtable" seven.dnom
Substitution2: "'numr' Numerators lookup 22 subtable" seven.numr
Substitution2: "'sups' Superscript lookup 21 subtable" uni2077
Substitution2: "'subs' Subscript lookup 20 subtable" uni2087
AlternateSubs2: "'aalt' Access All Alternates lookup 1 subtable" uni2077 seven.osf seven.dnom seven.numr uni2087
EndChar

StartChar: eight
Encoding: 56 56 27
Width: 600
Flags: W
LayerCount: 2
Fore
SplineSet
300 -10 m 0,0,1
 231 -10 231 -10 176.5 10.5 c 128,-1,2
 122 31 122 31 90.5 73 c 128,-1,3
 59 115 59 115 59 181 c 0,4,5
 59 242 59 242 89 289.5 c 128,-1,6
 119 337 119 337 186 373 c 1,7,8
 130 411 130 411 105.5 455.5 c 128,-1,9
 81 500 81 500 81 552 c 0,10,11
 81 608 81 608 111 646 c 128,-1,12
 141 684 141 684 191 703.5 c 128,-1,13
 241 723 241 723 300 723 c 0,14,15
 360 723 360 723 410 704 c 128,-1,16
 460 685 460 685 489.5 646.5 c 128,-1,17
 519 608 519 608 519 551 c 0,18,19
 519 496 519 496 490.5 453.5 c 128,-1,20
 462 411 462 411 400 377 c 1,21,22
 475 334 475 334 508 287 c 128,-1,23
 541 240 541 240 541 185 c 0,24,25
 541 121 541 121 508.5 78 c 128,-1,26
 476 35 476 35 421 12.5 c 128,-1,27
 366 -10 366 -10 300 -10 c 0,0,1
300 440 m 1,28,29
 343 462 343 462 360 485.5 c 128,-1,30
 377 509 377 509 377 540 c 0,31,32
 377 570 377 570 355.5 587.5 c 128,-1,33
 334 605 334 605 299 605 c 0,34,35
 265 605 265 605 244 587 c 128,-1,36
 223 569 223 569 223 540 c 0,37,38
 223 505 223 505 244 482.5 c 128,-1,39
 265 460 265 460 300 440 c 1,28,29
298 107 m 0,40,41
 350 107 350 107 375.5 130 c 128,-1,42
 401 153 401 153 401 189 c 0,43,44
 401 221 401 221 375 250 c 128,-1,45
 349 279 349 279 293 311 c 1,46,47
 199 263 199 263 199 190 c 0,48,49
 199 152 199 152 225.5 129.5 c 128,-1,50
 252 107 252 107 298 107 c 0,40,41
EndSplineSet
Substitution2: "'onum' Oldstyle Figures lookup 31 subtable" eight.osf
Substitution2: "'frac' Diagonal Fractions lookup 25 subtable" eight.numr
Substitution2: "'dnom' Denominators lookup 23 subtable" eight.dnom
Substitution2: "'numr' Numerators lookup 22 subtable" eight.numr
Substitution2: "'sups' Superscript lookup 21 subtable" uni2078
Substitution2: "'subs' Subscript lookup 20 subtable" uni2088
AlternateSubs2: "'aalt' Access All Alternates lookup 1 subtable" uni2078 eight.osf eight.dnom eight.numr uni2088
EndChar

StartChar: nine
Encoding: 57 57 28
Width: 600
Flags: W
LayerCount: 2
Fore
SplineSet
187 -10 m 0,0,1
 165 -10 165 -10 142.5 -8.5 c 128,-1,2
 120 -7 120 -7 103 -3 c 1,3,-1
 103 118 l 1,4,5
 144 108 144 108 193 108 c 0,6,7
 302 108 302 108 349.5 166.5 c 128,-1,8
 397 225 397 225 405 331 c 1,9,-1
 399 331 l 1,10,11
 352 250 352 250 248 250 c 0,12,13
 154 250 154 250 104.5 310.5 c 128,-1,14
 55 371 55 371 55 474 c 0,15,16
 55 590 55 590 117 657.5 c 128,-1,17
 179 725 179 725 291 725 c 0,18,19
 406 725 406 725 475.5 639.5 c 128,-1,20
 545 554 545 554 545 394 c 0,21,22
 545 193 545 193 456.5 91.5 c 128,-1,23
 368 -10 368 -10 187 -10 c 0,0,1
291 366 m 0,24,25
 333 366 333 366 364 396 c 128,-1,26
 395 426 395 426 395 479 c 0,27,28
 395 533 395 533 367.5 565.5 c 128,-1,29
 340 598 340 598 294 598 c 0,30,31
 201 598 201 598 201 476 c 0,32,33
 201 424 201 424 223 395 c 128,-1,34
 245 366 245 366 291 366 c 0,24,25
EndSplineSet
Substitution2: "'onum' Oldstyle Figures lookup 31 subtable" nine.osf
Substitution2: "'frac' Diagonal Fractions lookup 25 subtable" nine.numr
Substitution2: "'dnom' Denominators lookup 23 subtable" nine.dnom
Substitution2: "'numr' Numerators lookup 22 subtable" nine.numr
Substitution2: "'sups' Superscript lookup 21 subtable" uni2079
Substitution2: "'subs' Subscript lookup 20 subtable" uni2089
AlternateSubs2: "'aalt' Access All Alternates lookup 1 subtable" uni2079 nine.osf nine.dnom nine.numr uni2089
EndChar

StartChar: colon
Encoding: 58 58 29
Width: 600
Flags: W
LayerCount: 2
Fore
SplineSet
300 380 m 0,0,1
 256 380 256 380 232.5 403 c 128,-1,2
 209 426 209 426 209 468 c 0,3,4
 209 556 209 556 300 556 c 0,5,6
 343 556 343 556 366.5 533 c 128,-1,7
 390 510 390 510 390 468 c 0,8,9
 390 428 390 428 366 404 c 128,-1,10
 342 380 342 380 300 380 c 0,0,1
300 -10 m 0,11,12
 256 -10 256 -10 232.5 13 c 128,-1,13
 209 36 209 36 209 78 c 0,14,15
 209 166 209 166 300 166 c 0,16,17
 343 166 343 166 366.5 143 c 128,-1,18
 390 120 390 120 390 78 c 0,19,20
 390 38 390 38 366 14 c 128,-1,21
 342 -10 342 -10 300 -10 c 0,11,12
EndSplineSet
EndChar

StartChar: semicolon
Encoding: 59 59 30
Width: 600
Flags: W
LayerCount: 2
Fore
SplineSet
322 380 m 0,0,1
 278 380 278 380 254.5 403 c 128,-1,2
 231 426 231 426 231 468 c 0,3,4
 231 556 231 556 322 556 c 0,5,6
 365 556 365 556 388.5 533 c 128,-1,7
 412 510 412 510 412 468 c 0,8,9
 412 428 412 428 388 404 c 128,-1,10
 364 380 364 380 322 380 c 0,0,1
194 -156 m 1,11,12
 204 -112 204 -112 214.5 -58.5 c 128,-1,13
 225 -5 225 -5 233.5 46.5 c 128,-1,14
 242 98 242 98 248 136 c 1,15,-1
 385 136 l 1,16,-1
 392 125 l 1,17,18
 384 92 384 92 370 43 c 128,-1,19
 356 -6 356 -6 339 -58.5 c 128,-1,20
 322 -111 322 -111 301 -156 c 1,21,-1
 194 -156 l 1,11,12
EndSplineSet
EndChar

StartChar: equal
Encoding: 61 61 32
Width: 600
Flags: W
LayerCount: 2
Fore
SplineSet
70 388 m 1,0,-1
 70 508 l 1,1,-1
 530 508 l 1,2,-1
 530 388 l 1,3,-1
 70 388 l 1,0,-1
70 178 m 1,4,-1
 70 298 l 1,5,-1
 530 298 l 1,6,-1
 530 178 l 1,7,-1
 70 178 l 1,4,-1
EndSplineSet
Substitution2: "'sups' Superscript lookup 21 subtable" uni207C
Substitution2: "'subs' Subscript lookup 20 subtable" uni208C
AlternateSubs2: "'aalt' Access All Alternates lookup 1 subtable" uni208C uni207C
EndChar

StartChar: greater
Encoding: 62 62 33
Width: 600
Flags: W
LayerCount: 2
Fore
SplineSet
85 110 m 1,0,-1
 85 227 l 1,1,-1
 363 356 l 1,2,-1
 85 493 l 1,3,-1
 85 611 l 1,4,-1
 515 389 l 1,5,-1
 515 319 l 1,6,-1
 85 110 l 1,0,-1
EndSplineSet
EndChar

StartChar: question
Encoding: 63 63 34
Width: 600
Flags: W
LayerCount: 2
Fore
SplineSet
207 237 m 1,0,-1
 207 273 l 2,1,2
 207 326 207 326 229.5 360 c 128,-1,3
 252 394 252 394 300 428 c 0,4,5
 338 455 338 455 358.5 479.5 c 128,-1,6
 379 504 379 504 379 539 c 0,7,8
 379 571 379 571 356.5 587.5 c 128,-1,9
 334 604 334 604 295 604 c 0,10,11
 260 604 260 604 221.5 592 c 128,-1,12
 183 580 183 580 133 556 c 1,13,-1
 80 663 l 1,14,15
 137 694 137 694 191.5 709 c 128,-1,16
 246 724 246 724 306 724 c 256,17,18
 366 724 366 724 414.5 704 c 128,-1,19
 463 684 463 684 491.5 644.5 c 128,-1,20
 520 605 520 605 520 547 c 0,21,22
 520 504 520 504 508 474 c 128,-1,23
 496 444 496 444 471.5 419 c 128,-1,24
 447 394 447 394 408 366 c 0,25,26
 371 339 371 339 353.5 320 c 128,-1,27
 336 301 336 301 336 266 c 2,28,-1
 336 237 l 1,29,-1
 207 237 l 1,0,-1
273 -10 m 0,30,31
 230 -10 230 -10 206 13 c 128,-1,32
 182 36 182 36 182 78 c 0,33,34
 182 166 182 166 273 166 c 0,35,36
 316 166 316 166 339.5 143 c 128,-1,37
 363 120 363 120 363 78 c 0,38,39
 363 38 363 38 339 14 c 128,-1,40
 315 -10 315 -10 273 -10 c 0,30,31
EndSplineSet
Substitution2: "'smcp' Lowercase to Small Capitals lookup 33 subtable" question.sc
Substitution2: "'c2sc' Capitals to Small Capitals lookup 32 subtable" question.sc
Substitution2: "'aalt' Access All Alternates lookup 0 subtable" question.sc
EndChar

StartChar: at
Encoding: 64 64 35
Width: 600
Flags: W
LayerCount: 2
Fore
SplineSet
320 -89 m 0,0,1
 220 -89 220 -89 148 -44 c 128,-1,2
 76 1 76 1 38 84 c 128,-1,3
 0 167 0 167 0 282 c 0,4,5
 0 374 0 374 22 452.5 c 128,-1,6
 44 531 44 531 86 590 c 128,-1,7
 128 649 128 649 188.5 681.5 c 128,-1,8
 249 714 249 714 326 714 c 0,9,10
 408 714 408 714 469.5 670.5 c 128,-1,11
 531 627 531 627 565.5 548.5 c 128,-1,12
 600 470 600 470 600 365 c 0,13,14
 600 296 600 296 583.5 237.5 c 128,-1,15
 567 179 567 179 534.5 143.5 c 128,-1,16
 502 108 502 108 454 108 c 0,17,18
 423 108 423 108 402.5 124 c 128,-1,19
 382 140 382 140 372 165 c 1,20,-1
 370 165 l 1,21,22
 356 142 356 142 333 125 c 128,-1,23
 310 108 310 108 276 108 c 0,24,25
 218 108 218 108 186 161 c 128,-1,26
 154 214 154 214 154 299 c 0,27,28
 154 364 154 364 173 413.5 c 128,-1,29
 192 463 192 463 228.5 491.5 c 128,-1,30
 265 520 265 520 316 520 c 0,31,32
 350 520 350 520 384 511.5 c 128,-1,33
 418 503 418 503 446 493 c 1,34,-1
 436 296 l 2,35,36
 435 288 435 288 435 281 c 128,-1,37
 435 274 435 274 435 265 c 0,38,39
 434 224 434 224 441 210.5 c 128,-1,40
 448 197 448 197 460 197 c 0,41,42
 480 197 480 197 491.5 245 c 128,-1,43
 503 293 503 293 503 363 c 0,44,45
 503 498 503 498 453 565 c 128,-1,46
 403 632 403 632 326 632 c 0,47,48
 254 632 254 632 203 587.5 c 128,-1,49
 152 543 152 543 125 465.5 c 128,-1,50
 98 388 98 388 98 289 c 0,51,52
 98 146 98 146 155 70 c 128,-1,53
 212 -6 212 -6 315 -6 c 0,54,55
 362 -6 362 -6 409.5 5.5 c 128,-1,56
 457 17 457 17 496 35 c 1,57,-1
 496 -49 l 1,58,59
 460 -68 460 -68 416 -78.5 c 128,-1,60
 372 -89 372 -89 320 -89 c 0,0,1
289 197 m 0,61,62
 315 197 315 197 326.5 234 c 128,-1,63
 338 271 338 271 341 326 c 2,64,-1
 346 426 l 1,65,66
 334 431 334 431 320 431 c 0,67,68
 293 431 293 431 277.5 411.5 c 128,-1,69
 262 392 262 392 255.5 361 c 128,-1,70
 249 330 249 330 249 297 c 0,71,72
 249 244 249 244 259 220.5 c 128,-1,73
 269 197 269 197 289 197 c 0,61,62
EndSplineSet
EndChar

StartChar: A
Encoding: 65 65 36
Width: 600
GlyphClass: 2
Flags: W
AnchorPoint: "Anchor-4" 580 714 basechar 0
AnchorPoint: "Anchor-3" 300 714 basechar 0
AnchorPoint: "Anchor-2" 540 10 basechar 0
AnchorPoint: "Anchor-0" 300 0 basechar 0
LayerCount: 2
Fore
SplineSet
10 0 m 1,0,-1
 207 717 l 1,1,-1
 392 717 l 1,2,-1
 590 0 l 1,3,-1
 445 0 l 1,4,-1
 402 177 l 1,5,-1
 195 177 l 1,6,-1
 151 0 l 1,7,-1
 10 0 l 1,0,-1
269 473 m 2,8,-1
 225 297 l 1,9,-1
 373 297 l 1,10,-1
 331 473 l 2,11,12
 323 507 323 507 315.5 540 c 128,-1,13
 308 573 308 573 300 607 c 1,14,15
 292 573 292 573 284.5 540 c 128,-1,16
 277 507 277 507 269 473 c 2,8,-1
EndSplineSet
Substitution2: "'c2sc' Capitals to Small Capitals lookup 32 subtable" a.sc
Substitution2: "Single Substitution lookup 30 subtable" ordfeminine
AlternateSubs2: "'aalt' Access All Alternates lookup 1 subtable" ordfeminine a.sc
EndChar

StartChar: B
Encoding: 66 66 37
Width: 600
GlyphClass: 2
Flags: W
AnchorPoint: "Anchor-4" 580 714 basechar 0
AnchorPoint: "Anchor-3" 300 714 basechar 0
AnchorPoint: "Anchor-0" 300 0 basechar 0
LayerCount: 2
Fore
SplineSet
80 0 m 1,0,-1
 80 714 l 1,1,-1
 303 714 l 2,2,3
 421 714 421 714 483 672.5 c 128,-1,4
 545 631 545 631 545 539 c 0,5,6
 545 474 545 474 516 432 c 128,-1,7
 487 390 487 390 438 379 c 1,8,-1
 438 374 l 1,9,10
 493 360 493 360 526.5 321.5 c 128,-1,11
 560 283 560 283 560 209 c 0,12,13
 560 111 560 111 498.5 55.5 c 128,-1,14
 437 0 437 0 327 0 c 2,15,-1
 80 0 l 1,0,-1
215 433 m 1,16,-1
 302 433 l 2,17,18
 354 433 354 433 376 452.5 c 128,-1,19
 398 472 398 472 398 514 c 0,20,21
 398 557 398 557 375 576 c 128,-1,22
 352 595 352 595 297 595 c 2,23,-1
 215 595 l 1,24,-1
 215 433 l 1,16,-1
215 119 m 1,25,-1
 313 119 l 2,26,27
 367 119 367 119 388 145 c 128,-1,28
 409 171 409 171 409 217 c 256,29,30
 409 263 409 263 387.5 286.5 c 128,-1,31
 366 310 366 310 308 310 c 2,32,-1
 215 310 l 1,33,-1
 215 119 l 1,25,-1
EndSplineSet
Substitution2: "'c2sc' Capitals to Small Capitals lookup 32 subtable" b.sc
Substitution2: "'aalt' Access All Alternates lookup 0 subtable" b.sc
EndChar

StartChar: C
Encoding: 67 67 38
Width: 600
GlyphClass: 2
Flags: W
AnchorPoint: "Anchor-4" 580 714 basechar 0
AnchorPoint: "Anchor-3" 354 714 basechar 0
AnchorPoint: "Anchor-0" 336 0 basechar 0
LayerCount: 2
Fore
SplineSet
351 -10 m 0,0,1
 248 -10 248 -10 181.5 33.5 c 128,-1,2
 115 77 115 77 82.5 156.5 c 128,-1,3
 50 236 50 236 50 342 c 0,4,5
 50 460 50 460 88.5 546 c 128,-1,6
 127 632 127 632 202.5 678 c 128,-1,7
 278 724 278 724 388 724 c 0,8,9
 440 724 440 724 479.5 713.5 c 128,-1,10
 519 703 519 703 560 683 c 1,11,-1
 512 564 l 1,12,13
 474 583 474 583 443 590 c 128,-1,14
 412 597 412 597 383 597 c 0,15,16
 314 597 314 597 273 566 c 128,-1,17
 232 535 232 535 214.5 479 c 128,-1,18
 197 423 197 423 197 348 c 0,19,20
 197 230 197 230 238.5 173.5 c 128,-1,21
 280 117 280 117 375 117 c 0,22,23
 410 117 410 117 446 125.5 c 128,-1,24
 482 134 482 134 532 157 c 1,25,-1
 532 27 l 1,26,27
 488 8 488 8 442 -1 c 128,-1,28
 396 -10 396 -10 351 -10 c 0,0,1
EndSplineSet
Substitution2: "'c2sc' Capitals to Small Capitals lookup 32 subtable" c.sc
Substitution2: "'aalt' Access All Alternates lookup 0 subtable" c.sc
EndChar

StartChar: D
Encoding: 68 68 39
Width: 600
GlyphClass: 2
Flags: W
AnchorPoint: "Anchor-4" 600 714 basechar 0
AnchorPoint: "Anchor-3" 284 714 basechar 0
AnchorPoint: "Anchor-1" 305 357 basechar 0
AnchorPoint: "Anchor-0" 255 0 basechar 0
LayerCount: 2
Fore
SplineSet
45 0 m 1,0,-1
 45 714 l 1,1,-1
 266 714 l 2,2,3
 405 714 405 714 487.5 625.5 c 128,-1,4
 570 537 570 537 570 363 c 0,5,6
 570 188 570 188 485 94 c 128,-1,7
 400 0 400 0 255 0 c 2,8,-1
 45 0 l 1,0,-1
188 123 m 1,9,-1
 247 123 l 2,10,11
 338 123 338 123 380.5 182 c 128,-1,12
 423 241 423 241 423 362 c 0,13,14
 423 482 423 482 382 536.5 c 128,-1,15
 341 591 341 591 259 591 c 2,16,-1
 188 591 l 1,17,-1
 188 123 l 1,9,-1
EndSplineSet
Substitution2: "'c2sc' Capitals to Small Capitals lookup 32 subtable" d.sc
Substitution2: "'aalt' Access All Alternates lookup 0 subtable" d.sc
EndChar

StartChar: E
Encoding: 69 69 40
Width: 600
GlyphClass: 2
Flags: W
AnchorPoint: "Anchor-4" 580 714 basechar 0
AnchorPoint: "Anchor-3" 306 714 basechar 0
AnchorPoint: "Anchor-2" 461 10 basechar 0
AnchorPoint: "Anchor-0" 304 0 basechar 0
LayerCount: 2
Fore
SplineSet
80 0 m 1,0,-1
 80 714 l 1,1,-1
 530 714 l 1,2,-1
 530 589 l 1,3,-1
 220 589 l 1,4,-1
 220 433 l 1,5,-1
 515 433 l 1,6,-1
 515 308 l 1,7,-1
 220 308 l 1,8,-1
 220 125 l 1,9,-1
 530 125 l 1,10,-1
 530 0 l 1,11,-1
 80 0 l 1,0,-1
EndSplineSet
Substitution2: "'c2sc' Capitals to Small Capitals lookup 32 subtable" e.sc
Substitution2: "'aalt' Access All Alternates lookup 0 subtable" e.sc
EndChar

StartChar: F
Encoding: 70 70 41
Width: 600
GlyphClass: 2
Flags: W
AnchorPoint: "Anchor-4" 580 714 basechar 0
AnchorPoint: "Anchor-3" 310 714 basechar 0
AnchorPoint: "Anchor-0" 310 0 basechar 0
LayerCount: 2
Fore
SplineSet
80 0 m 1,0,-1
 80 714 l 1,1,-1
 530 714 l 1,2,-1
 530 589 l 1,3,-1
 220 589 l 1,4,-1
 220 403 l 1,5,-1
 515 403 l 1,6,-1
 515 278 l 1,7,-1
 220 278 l 1,8,-1
 220 0 l 1,9,-1
 80 0 l 1,0,-1
EndSplineSet
Substitution2: "'c2sc' Capitals to Small Capitals lookup 32 subtable" f.sc
Substitution2: "'aalt' Access All Alternates lookup 0 subtable" f.sc
EndChar

StartChar: G
Encoding: 71 71 42
Width: 600
GlyphClass: 2
Flags: W
AnchorPoint: "Anchor-4" 580 714 basechar 0
AnchorPoint: "Anchor-3" 327 714 basechar 0
AnchorPoint: "Anchor-0" 332 0 basechar 0
LayerCount: 2
Fore
SplineSet
343 -10 m 0,0,1
 185 -10 185 -10 107.5 86 c 128,-1,2
 30 182 30 182 30 349 c 0,3,4
 30 525 30 525 113.5 624.5 c 128,-1,5
 197 724 197 724 353 724 c 0,6,7
 409 724 409 724 459 712 c 128,-1,8
 509 700 509 700 549 680 c 1,9,-1
 504 564 l 1,10,11
 472 582 472 582 437 590.5 c 128,-1,12
 402 599 402 599 368 599 c 0,13,14
 270 599 270 599 222.5 534 c 128,-1,15
 175 469 175 469 175 352 c 0,16,17
 175 243 175 243 217 178 c 128,-1,18
 259 113 259 113 346 113 c 0,19,20
 368 113 368 113 387 115.5 c 128,-1,21
 406 118 406 118 424 123 c 1,22,-1
 424 282 l 1,23,-1
 325 282 l 1,24,-1
 325 402 l 1,25,-1
 555 402 l 1,26,-1
 555 31 l 1,27,28
 502 8 502 8 452.5 -1 c 128,-1,29
 403 -10 403 -10 343 -10 c 0,0,1
EndSplineSet
Substitution2: "'c2sc' Capitals to Small Capitals lookup 32 subtable" g.sc
Substitution2: "'aalt' Access All Alternates lookup 0 subtable" g.sc
EndChar

StartChar: H
Encoding: 72 72 43
Width: 600
GlyphClass: 2
Flags: W
AnchorPoint: "Anchor-4" 600 714 basechar 0
AnchorPoint: "Anchor-3" 300 714 basechar 0
AnchorPoint: "Anchor-1" 300 374 basechar 0
AnchorPoint: "Anchor-0" 300 0 basechar 0
LayerCount: 2
Fore
SplineSet
45 0 m 1,0,-1
 45 714 l 1,1,-1
 190 714 l 1,2,-1
 190 435 l 1,3,-1
 410 435 l 1,4,-1
 410 714 l 1,5,-1
 555 714 l 1,6,-1
 555 0 l 1,7,-1
 410 0 l 1,8,-1
 410 310 l 1,9,-1
 190 310 l 1,10,-1
 190 0 l 1,11,-1
 45 0 l 1,0,-1
EndSplineSet
Substitution2: "'c2sc' Capitals to Small Capitals lookup 32 subtable" h.sc
Substitution2: "'aalt' Access All Alternates lookup 0 subtable" h.sc
EndChar

StartChar: I
Encoding: 73 73 44
Width: 600
GlyphClass: 2
Flags: W
AnchorPoint: "Anchor-4" 580 714 basechar 0
AnchorPoint: "Anchor-3" 300 714 basechar 0
AnchorPoint: "Anchor-2" 386 10 basechar 0
AnchorPoint: "Anchor-0" 300 0 basechar 0
LayerCount: 2
Fore
SplineSet
90 0 m 1,0,-1
 90 100 l 1,1,-1
 229 116 l 1,2,-1
 229 598 l 1,3,-1
 90 614 l 1,4,-1
 90 714 l 1,5,-1
 510 714 l 1,6,-1
 510 614 l 1,7,-1
 368 598 l 1,8,-1
 368 116 l 1,9,-1
 510 100 l 1,10,-1
 510 0 l 1,11,-1
 90 0 l 1,0,-1
EndSplineSet
Substitution2: "'c2sc' Capitals to Small Capitals lookup 32 subtable" i.sc
Substitution2: "'aalt' Access All Alternates lookup 0 subtable" i.sc
EndChar

StartChar: J
Encoding: 74 74 45
Width: 600
GlyphClass: 2
Flags: W
AnchorPoint: "Anchor-4" 580 714 basechar 0
AnchorPoint: "Anchor-3" 416 714 basechar 0
AnchorPoint: "Anchor-0" 300 0 basechar 0
LayerCount: 2
Fore
SplineSet
235 -10 m 0,0,1
 200 -10 200 -10 161 -5 c 128,-1,2
 122 0 122 0 85 11 c 1,3,-1
 85 135 l 1,4,5
 132 124 132 124 170 120 c 128,-1,6
 208 116 208 116 230 116 c 0,7,8
 291 116 291 116 319.5 146.5 c 128,-1,9
 348 177 348 177 348 245 c 2,10,-1
 348 714 l 1,11,-1
 490 714 l 1,12,-1
 490 246 l 2,13,14
 490 120 490 120 430 55 c 128,-1,15
 370 -10 370 -10 235 -10 c 0,0,1
EndSplineSet
Substitution2: "'c2sc' Capitals to Small Capitals lookup 32 subtable" j.sc
Substitution2: "'aalt' Access All Alternates lookup 0 subtable" j.sc
EndChar

StartChar: K
Encoding: 75 75 46
Width: 600
GlyphClass: 2
Flags: W
AnchorPoint: "Anchor-4" 580 714 basechar 0
AnchorPoint: "Anchor-3" 300 714 basechar 0
AnchorPoint: "Anchor-0" 308 0 basechar 0
LayerCount: 2
Fore
SplineSet
45 0 m 1,0,-1
 45 714 l 1,1,-1
 187 714 l 1,2,-1
 187 372 l 1,3,4
 217 430 217 430 251 480 c 2,5,-1
 407 714 l 1,6,-1
 566 714 l 1,7,-1
 341 395 l 1,8,-1
 560 0 l 1,9,-1
 401 0 l 1,10,-1
 247 291 l 1,11,-1
 187 235 l 1,12,-1
 187 0 l 1,13,-1
 45 0 l 1,0,-1
EndSplineSet
Substitution2: "'c2sc' Capitals to Small Capitals lookup 32 subtable" k.sc
Substitution2: "'aalt' Access All Alternates lookup 0 subtable" k.sc
EndChar

StartChar: L
Encoding: 76 76 47
Width: 600
GlyphClass: 2
Flags: W
AnchorPoint: "Anchor-4" 454 714 basechar 0
AnchorPoint: "Anchor-3" 161 714 basechar 0
AnchorPoint: "Anchor-1" 300 357 basechar 0
AnchorPoint: "Anchor-0" 330 0 basechar 0
LayerCount: 2
Fore
SplineSet
90 0 m 1,0,-1
 90 714 l 1,1,-1
 235 714 l 1,2,-1
 235 128 l 1,3,-1
 530 128 l 1,4,-1
 530 0 l 1,5,-1
 90 0 l 1,0,-1
EndSplineSet
Substitution2: "'c2sc' Capitals to Small Capitals lookup 32 subtable" l.sc
Substitution2: "'aalt' Access All Alternates lookup 0 subtable" l.sc
EndChar

StartChar: M
Encoding: 77 77 48
Width: 600
GlyphClass: 2
Flags: W
AnchorPoint: "Anchor-4" 600 714 basechar 0
AnchorPoint: "Anchor-3" 300 714 basechar 0
AnchorPoint: "Anchor-0" 300 0 basechar 0
LayerCount: 2
Fore
SplineSet
40 0 m 1,0,-1
 40 714 l 1,1,-1
 236 714 l 1,2,-1
 297 309 l 1,3,-1
 301 309 l 1,4,-1
 373 714 l 1,5,-1
 559 714 l 1,6,-1
 559 0 l 1,7,-1
 429 0 l 1,8,-1
 429 163 l 2,9,10
 429 202 429 202 431 251.5 c 128,-1,11
 433 301 433 301 436 353.5 c 128,-1,12
 439 406 439 406 442 453 c 128,-1,13
 445 500 445 500 447 534.5 c 128,-1,14
 449 569 449 569 450 582 c 1,15,-1
 444 582 l 1,16,-1
 371 168 l 1,17,-1
 230 168 l 1,18,-1
 151 583 l 1,19,-1
 145 583 l 1,20,21
 146 568 146 568 149 533 c 128,-1,22
 152 498 152 498 155.5 450.5 c 128,-1,23
 159 403 159 403 162.5 350.5 c 128,-1,24
 166 298 166 298 168 247.5 c 128,-1,25
 170 197 170 197 170 155 c 2,26,-1
 170 0 l 1,27,-1
 40 0 l 1,0,-1
EndSplineSet
Substitution2: "'c2sc' Capitals to Small Capitals lookup 32 subtable" m.sc
Substitution2: "'aalt' Access All Alternates lookup 0 subtable" m.sc
EndChar

StartChar: N
Encoding: 78 78 49
Width: 600
GlyphClass: 2
Flags: W
AnchorPoint: "Anchor-4" 600 714 basechar 0
AnchorPoint: "Anchor-3" 305 714 basechar 0
AnchorPoint: "Anchor-0" 300 0 basechar 0
LayerCount: 2
Fore
SplineSet
45 0 m 1,0,-1
 45 714 l 1,1,-1
 242 714 l 1,2,-1
 430 139 l 1,3,-1
 433 139 l 1,4,5
 429 209 429 209 427.5 268 c 128,-1,6
 426 327 426 327 426 356 c 2,7,-1
 426 714 l 1,8,-1
 555 714 l 1,9,-1
 555 0 l 1,10,-1
 356 0 l 1,11,-1
 168 580 l 1,12,-1
 164 580 l 1,13,14
 168 509 168 509 171 447.5 c 128,-1,15
 174 386 174 386 174 356 c 2,16,-1
 174 0 l 1,17,-1
 45 0 l 1,0,-1
EndSplineSet
Substitution2: "'c2sc' Capitals to Small Capitals lookup 32 subtable" n.sc
Substitution2: "'aalt' Access All Alternates lookup 0 subtable" n.sc
EndChar

StartChar: O
Encoding: 79 79 50
Width: 600
GlyphClass: 2
Flags: W
AnchorPoint: "Anchor-4" 600 714 basechar 0
AnchorPoint: "Anchor-3" 300 714 basechar 0
AnchorPoint: "Anchor-2" 297 10 basechar 0
AnchorPoint: "Anchor-1" 300 357 basechar 0
AnchorPoint: "Anchor-0" 300 0 basechar 0
LayerCount: 2
Fore
SplineSet
300 -10 m 256,0,1
 160 -10 160 -10 95 87.5 c 128,-1,2
 30 185 30 185 30 358 c 0,3,4
 30 532 30 532 95 629 c 128,-1,5
 160 726 160 726 300 726 c 256,6,7
 440 726 440 726 505 628 c 128,-1,8
 570 530 570 530 570 358 c 0,9,10
 570 185 570 185 505 87.5 c 128,-1,11
 440 -10 440 -10 300 -10 c 256,0,1
300 115 m 0,12,13
 364 115 364 115 393.5 176.5 c 128,-1,14
 423 238 423 238 423 359 c 0,15,16
 423 478 423 478 394 539.5 c 128,-1,17
 365 601 365 601 300 601 c 256,18,19
 235 601 235 601 206 539 c 128,-1,20
 177 477 177 477 177 358 c 0,21,22
 177 238 177 238 206 176.5 c 128,-1,23
 235 115 235 115 300 115 c 0,12,13
EndSplineSet
Substitution2: "'c2sc' Capitals to Small Capitals lookup 32 subtable" o.sc
Substitution2: "Single Substitution lookup 30 subtable" ordmasculine
AlternateSubs2: "'aalt' Access All Alternates lookup 1 subtable" ordmasculine o.sc
EndChar

StartChar: P
Encoding: 80 80 51
Width: 600
GlyphClass: 2
Flags: W
AnchorPoint: "Anchor-4" 600 714 basechar 0
AnchorPoint: "Anchor-3" 300 714 basechar 0
AnchorPoint: "Anchor-0" 300 0 basechar 0
LayerCount: 2
Fore
SplineSet
80 0 m 1,0,-1
 80 714 l 1,1,-1
 317 714 l 2,2,3
 440 714 440 714 500 656 c 128,-1,4
 560 598 560 598 560 492 c 0,5,6
 560 421 560 421 534.5 367.5 c 128,-1,7
 509 314 509 314 453.5 284 c 128,-1,8
 398 254 398 254 308 254 c 2,9,-1
 220 254 l 1,10,-1
 220 0 l 1,11,-1
 80 0 l 1,0,-1
220 377 m 1,12,-1
 293 377 l 2,13,14
 355 377 355 377 385.5 405.5 c 128,-1,15
 416 434 416 434 416 486 c 0,16,17
 416 539 416 539 391 565 c 128,-1,18
 366 591 366 591 312 591 c 2,19,-1
 220 591 l 1,20,-1
 220 377 l 1,12,-1
EndSplineSet
Substitution2: "'c2sc' Capitals to Small Capitals lookup 32 subtable" p.sc
Substitution2: "'aalt' Access All Alternates lookup 0 subtable" p.sc
EndChar

StartChar: Q
Encoding: 81 81 52
Width: 600
GlyphClass: 2
Flags: W
AnchorPoint: "Anchor-4" 600 714 basechar 0
AnchorPoint: "Anchor-3" 300 714 basechar 0
AnchorPoint: "Anchor-2" 297 10 basechar 0
AnchorPoint: "Anchor-1" 300 357 basechar 0
AnchorPoint: "Anchor-0" 300 -220 basechar 0
LayerCount: 2
Fore
SplineSet
300 -10 m 0,0,1
 160 -10 160 -10 95 87.5 c 128,-1,2
 30 185 30 185 30 358 c 0,3,4
 30 532 30 532 95 629 c 128,-1,5
 160 726 160 726 300 726 c 256,6,7
 440 726 440 726 505 628 c 128,-1,8
 570 530 570 530 570 358 c 0,9,10
 570 236 570 236 538.5 151 c 128,-1,11
 507 66 507 66 440 25 c 1,12,-1
 551 -180 l 1,13,-1
 397 -180 l 1,14,-1
 312 -10 l 1,15,16
 306 -10 306 -10 300 -10 c 0,0,1
300 115 m 0,17,18
 364 115 364 115 393.5 176.5 c 128,-1,19
 423 238 423 238 423 359 c 0,20,21
 423 478 423 478 394 539.5 c 128,-1,22
 365 601 365 601 300 601 c 256,23,24
 235 601 235 601 206 539 c 128,-1,25
 177 477 177 477 177 358 c 0,26,27
 177 238 177 238 206 176.5 c 128,-1,28
 235 115 235 115 300 115 c 0,17,18
EndSplineSet
Substitution2: "'c2sc' Capitals to Small Capitals lookup 32 subtable" q.sc
Substitution2: "'aalt' Access All Alternates lookup 0 subtable" q.sc
EndChar

StartChar: R
Encoding: 82 82 53
Width: 600
GlyphClass: 2
Flags: W
AnchorPoint: "Anchor-4" 580 714 basechar 0
AnchorPoint: "Anchor-3" 300 714 basechar 0
AnchorPoint: "Anchor-0" 325 0 basechar 0
LayerCount: 2
Fore
SplineSet
80 0 m 1,0,-1
 80 714 l 1,1,-1
 271 714 l 2,2,3
 398 714 398 714 464.5 657 c 128,-1,4
 531 600 531 600 531 499 c 0,5,6
 531 426 531 426 498.5 377.5 c 128,-1,7
 466 329 466 329 410 302 c 1,8,-1
 585 0 l 1,9,-1
 431 0 l 1,10,-1
 282 269 l 1,11,-1
 225 269 l 1,12,-1
 225 0 l 1,13,-1
 80 0 l 1,0,-1
225 392 m 1,14,-1
 268 392 l 2,15,16
 385 392 385 392 385 496 c 0,17,18
 385 548 385 548 354.5 569.5 c 128,-1,19
 324 591 324 591 265 591 c 2,20,-1
 225 591 l 1,21,-1
 225 392 l 1,14,-1
EndSplineSet
Substitution2: "'c2sc' Capitals to Small Capitals lookup 32 subtable" r.sc
Substitution2: "'aalt' Access All Alternates lookup 0 subtable" r.sc
EndChar

StartChar: S
Encoding: 83 83 54
Width: 600
GlyphClass: 2
Flags: W
AnchorPoint: "Anchor-4" 580 714 basechar 0
AnchorPoint: "Anchor-3" 314 714 basechar 0
AnchorPoint: "Anchor-0" 300 0 basechar 0
LayerCount: 2
Fore
SplineSet
275 -10 m 0,0,1
 221 -10 221 -10 168.5 0.5 c 128,-1,2
 116 11 116 11 70 33 c 1,3,-1
 70 165 l 1,4,5
 126 136 126 136 178 123 c 128,-1,6
 230 110 230 110 279 110 c 0,7,8
 331 110 331 110 364 127 c 128,-1,9
 397 144 397 144 397 191 c 0,10,11
 397 222 397 222 379.5 240.5 c 128,-1,12
 362 259 362 259 329 275.5 c 128,-1,13
 296 292 296 292 250 316 c 0,14,15
 204 341 204 341 166 370 c 128,-1,16
 128 399 128 399 106 438.5 c 128,-1,17
 84 478 84 478 84 534 c 0,18,19
 84 630 84 630 148.5 677 c 128,-1,20
 213 724 213 724 318 724 c 0,21,22
 360 724 360 724 418 714.5 c 128,-1,23
 476 705 476 705 532 678 c 1,24,-1
 486 565 l 1,25,26
 437 586 437 586 397 595 c 128,-1,27
 357 604 357 604 326 604 c 0,28,29
 277 604 277 604 254.5 584 c 128,-1,30
 232 564 232 564 232 527 c 0,31,32
 232 498 232 498 246 480 c 128,-1,33
 260 462 260 462 288 447 c 128,-1,34
 316 432 316 432 359 411 c 0,35,36
 418 382 418 382 459.5 354.5 c 128,-1,37
 501 327 501 327 523 290.5 c 128,-1,38
 545 254 545 254 545 199 c 0,39,40
 545 130 545 130 511.5 83.5 c 128,-1,41
 478 37 478 37 417 13.5 c 128,-1,42
 356 -10 356 -10 275 -10 c 0,0,1
EndSplineSet
Substitution2: "'c2sc' Capitals to Small Capitals lookup 32 subtable" s.sc
Substitution2: "'aalt' Access All Alternates lookup 0 subtable" s.sc
EndChar

StartChar: T
Encoding: 84 84 55
Width: 600
GlyphClass: 2
Flags: W
AnchorPoint: "Anchor-4" 580 714 basechar 0
AnchorPoint: "Anchor-3" 300 714 basechar 0
AnchorPoint: "Anchor-1" 300 357 basechar 0
AnchorPoint: "Anchor-0" 300 0 basechar 0
LayerCount: 2
Fore
SplineSet
227 0 m 1,0,-1
 227 589 l 1,1,-1
 30 589 l 1,2,-1
 30 714 l 1,3,-1
 570 714 l 1,4,-1
 570 589 l 1,5,-1
 372 589 l 1,6,-1
 372 0 l 1,7,-1
 227 0 l 1,0,-1
EndSplineSet
Substitution2: "'c2sc' Capitals to Small Capitals lookup 32 subtable" t.sc
Substitution2: "'aalt' Access All Alternates lookup 0 subtable" t.sc
EndChar

StartChar: U
Encoding: 85 85 56
Width: 600
GlyphClass: 2
Flags: W
AnchorPoint: "Anchor-4" 580 714 basechar 0
AnchorPoint: "Anchor-3" 300 714 basechar 0
AnchorPoint: "Anchor-2" 540 10 basechar 0
AnchorPoint: "Anchor-0" 300 0 basechar 0
LayerCount: 2
Fore
SplineSet
298 -10 m 0,0,1
 174 -10 174 -10 109.5 56 c 128,-1,2
 45 122 45 122 45 243 c 2,3,-1
 45 714 l 1,4,-1
 190 714 l 1,5,-1
 190 268 l 2,6,7
 190 184 190 184 217 149.5 c 128,-1,8
 244 115 244 115 300 115 c 0,9,10
 358 115 358 115 384 150.5 c 128,-1,11
 410 186 410 186 410 269 c 2,12,-1
 410 714 l 1,13,-1
 555 714 l 1,14,-1
 555 244 l 2,15,16
 555 127 555 127 491 58.5 c 128,-1,17
 427 -10 427 -10 298 -10 c 0,0,1
EndSplineSet
Substitution2: "'c2sc' Capitals to Small Capitals lookup 32 subtable" u.sc
Substitution2: "'aalt' Access All Alternates lookup 0 subtable" u.sc
EndChar

StartChar: V
Encoding: 86 86 57
Width: 600
GlyphClass: 2
Flags: W
AnchorPoint: "Anchor-4" 580 714 basechar 0
AnchorPoint: "Anchor-3" 300 714 basechar 0
AnchorPoint: "Anchor-0" 300 0 basechar 0
LayerCount: 2
Fore
SplineSet
219 0 m 1,0,-1
 10 714 l 1,1,-1
 156 714 l 1,2,-1
 265 290 l 2,3,4
 270 274 270 274 276.5 244 c 128,-1,5
 283 214 283 214 289 183 c 128,-1,6
 295 152 295 152 298 130 c 1,7,-1
 307 130 l 1,8,9
 310 152 310 152 315.5 182.5 c 128,-1,10
 321 213 321 213 326.5 242.5 c 128,-1,11
 332 272 332 272 337 290 c 2,12,-1
 442 714 l 1,13,-1
 590 714 l 1,14,-1
 381 0 l 1,15,-1
 219 0 l 1,0,-1
EndSplineSet
Substitution2: "'c2sc' Capitals to Small Capitals lookup 32 subtable" v.sc
Substitution2: "'aalt' Access All Alternates lookup 0 subtable" v.sc
EndChar

StartChar: W
Encoding: 87 87 58
Width: 600
GlyphClass: 2
Flags: W
AnchorPoint: "Anchor-4" 580 714 basechar 0
AnchorPoint: "Anchor-3" 300 714 basechar 0
AnchorPoint: "Anchor-0" 300 0 basechar 0
LayerCount: 2
Fore
SplineSet
63 0 m 1,0,-1
 10 714 l 1,1,-1
 136 714 l 1,2,3
 147 606 147 606 153 533.5 c 128,-1,4
 159 461 159 461 161.5 413 c 128,-1,5
 164 365 164 365 164.5 331.5 c 128,-1,6
 165 298 165 298 165 268 c 0,7,8
 165 231 165 231 164.5 192.5 c 128,-1,9
 164 154 164 154 163 121 c 1,10,-1
 170 121 l 1,11,12
 174 156 174 156 179.5 196 c 128,-1,13
 185 236 185 236 189.5 270 c 128,-1,14
 194 304 194 304 197 320 c 2,15,-1
 232 546 l 1,16,-1
 370 546 l 1,17,-1
 404 320 l 2,18,19
 411 276 411 276 420 222.5 c 128,-1,20
 429 169 429 169 436 120 c 1,21,-1
 443 120 l 1,22,23
 442 151 442 151 440.5 186 c 128,-1,24
 439 221 439 221 438.5 252 c 128,-1,25
 438 283 438 283 438 302 c 0,26,27
 438 323 438 323 439 350 c 128,-1,28
 440 377 440 377 443 421.5 c 128,-1,29
 446 466 446 466 451 536.5 c 128,-1,30
 456 607 456 607 464 714 c 1,31,-1
 590 714 l 1,32,-1
 540 0 l 1,33,-1
 360 0 l 1,34,-1
 324 244 l 2,35,36
 320 273 320 273 314 314.5 c 128,-1,37
 308 356 308 356 304 397 c 1,38,-1
 298 397 l 1,39,40
 294 356 294 356 288 314 c 128,-1,41
 282 272 282 272 277 244 c 2,42,-1
 241 0 l 1,43,-1
 63 0 l 1,0,-1
EndSplineSet
Substitution2: "'c2sc' Capitals to Small Capitals lookup 32 subtable" w.sc
Substitution2: "'aalt' Access All Alternates lookup 0 subtable" w.sc
EndChar

StartChar: X
Encoding: 88 88 59
Width: 600
GlyphClass: 2
Flags: W
AnchorPoint: "Anchor-4" 580 714 basechar 0
AnchorPoint: "Anchor-3" 300 714 basechar 0
AnchorPoint: "Anchor-0" 300 0 basechar 0
LayerCount: 2
Fore
SplineSet
20 0 m 1,0,-1
 234 368 l 1,1,-1
 34 714 l 1,2,-1
 182 714 l 1,3,-1
 300 489 l 1,4,-1
 416 714 l 1,5,-1
 566 714 l 1,6,-1
 366 369 l 1,7,-1
 580 0 l 1,8,-1
 427 0 l 1,9,-1
 299 248 l 1,10,-1
 168 0 l 1,11,-1
 20 0 l 1,0,-1
EndSplineSet
Substitution2: "'c2sc' Capitals to Small Capitals lookup 32 subtable" x.sc
Substitution2: "'aalt' Access All Alternates lookup 0 subtable" x.sc
EndChar

StartChar: Y
Encoding: 89 89 60
Width: 600
GlyphClass: 2
Flags: W
AnchorPoint: "Anchor-4" 580 714 basechar 0
AnchorPoint: "Anchor-3" 300 714 basechar 0
AnchorPoint: "Anchor-0" 300 0 basechar 0
LayerCount: 2
Fore
SplineSet
228 0 m 1,0,-1
 228 277 l 1,1,-1
 20 714 l 1,2,-1
 173 714 l 1,3,-1
 301 411 l 1,4,-1
 428 714 l 1,5,-1
 580 714 l 1,6,-1
 373 277 l 1,7,-1
 373 0 l 1,8,-1
 228 0 l 1,0,-1
EndSplineSet
Substitution2: "'c2sc' Capitals to Small Capitals lookup 32 subtable" y.sc
Substitution2: "'aalt' Access All Alternates lookup 0 subtable" y.sc
EndChar

StartChar: Z
Encoding: 90 90 61
Width: 600
GlyphClass: 2
Flags: W
AnchorPoint: "Anchor-4" 580 714 basechar 0
AnchorPoint: "Anchor-3" 312 714 basechar 0
AnchorPoint: "Anchor-0" 312 0 basechar 0
LayerCount: 2
Fore
SplineSet
80 0 m 1,0,-1
 80 98 l 1,1,-1
 366 591 l 1,2,-1
 105 591 l 1,3,-1
 105 714 l 1,4,-1
 528 714 l 1,5,-1
 528 616 l 1,6,-1
 239 125 l 1,7,-1
 530 125 l 1,8,-1
 530 0 l 1,9,-1
 80 0 l 1,0,-1
EndSplineSet
Substitution2: "'c2sc' Capitals to Small Capitals lookup 32 subtable" z.sc
Substitution2: "'aalt' Access All Alternates lookup 0 subtable" z.sc
EndChar

StartChar: bracketleft
Encoding: 91 91 62
Width: 600
Flags: W
LayerCount: 2
Fore
SplineSet
230 -155 m 1,0,-1
 230 727 l 1,1,-1
 470 727 l 1,2,-1
 470 626 l 1,3,-1
 354 626 l 1,4,-1
 354 -52 l 1,5,-1
 470 -52 l 1,6,-1
 470 -155 l 1,7,-1
 230 -155 l 1,0,-1
EndSplineSet
Substitution2: "'smcp' Lowercase to Small Capitals lookup 33 subtable" bracketleft.sc
Substitution2: "'c2sc' Capitals to Small Capitals lookup 32 subtable" bracketleft.sc
Substitution2: "'aalt' Access All Alternates lookup 0 subtable" bracketleft.sc
EndChar

StartChar: asciicircum
Encoding: 94 94 65
Width: 600
Flags: W
LayerCount: 2
Fore
SplineSet
40 266 m 1,0,-1
 258 716 l 1,1,-1
 327 716 l 1,2,-1
 560 266 l 1,3,-1
 442 266 l 1,4,-1
 294 554 l 1,5,-1
 158 266 l 1,6,-1
 40 266 l 1,0,-1
EndSplineSet
EndChar

StartChar: underscore
Encoding: 95 95 66
Width: 600
Flags: W
LayerCount: 2
Fore
SplineSet
0 -187 m 1,0,-1
 0 -67 l 1,1,-1
 600 -67 l 1,2,-1
 600 -187 l 1,3,-1
 0 -187 l 1,0,-1
EndSplineSet
EndChar

StartChar: grave
Encoding: 96 96 67
Width: 600
Flags: W
LayerCount: 2
Fore
SplineSet
297 606 m 1,0,1
 281 618 281 618 258.5 638 c 128,-1,2
 236 658 236 658 212.5 680 c 128,-1,3
 189 702 189 702 168.5 722.5 c 128,-1,4
 148 743 148 743 136 757 c 1,5,-1
 136 766 l 1,6,-1
 294 766 l 1,7,8
 306 744 306 744 324 716.5 c 128,-1,9
 342 689 342 689 361 662.5 c 128,-1,10
 380 636 380 636 393 619 c 1,11,-1
 393 606 l 1,12,-1
 297 606 l 1,0,1
EndSplineSet
EndChar

StartChar: a
Encoding: 97 97 68
Width: 600
GlyphClass: 2
Flags: W
AnchorPoint: "Anchor-4" 580 546 basechar 0
AnchorPoint: "Anchor-3" 308 546 basechar 0
AnchorPoint: "Anchor-2" 540 10 basechar 0
AnchorPoint: "Anchor-0" 307 0 basechar 0
LayerCount: 2
Fore
SplineSet
223 -10 m 0,0,1
 137 -10 137 -10 93.5 35.5 c 128,-1,2
 50 81 50 81 50 158 c 0,3,4
 50 250 50 250 108.5 292 c 128,-1,5
 167 334 167 334 277 337 c 2,6,-1
 397 340 l 1,7,-1
 397 364 l 2,8,9
 397 440 397 440 288 440 c 0,10,11
 218 440 218 440 130 407 c 1,12,-1
 83 508 l 1,13,14
 178 556 178 556 293 556 c 0,15,16
 409 556 409 556 472 508.5 c 128,-1,17
 535 461 535 461 535 364 c 2,18,-1
 535 0 l 1,19,-1
 425 0 l 1,20,-1
 402 69 l 1,21,-1
 398 69 l 1,22,23
 360 26 360 26 316 8 c 128,-1,24
 272 -10 272 -10 223 -10 c 0,0,1
274 104 m 0,25,26
 325 104 325 104 361 132 c 128,-1,27
 397 160 397 160 397 208 c 2,28,-1
 397 253 l 1,29,-1
 314 251 l 2,30,31
 254 250 254 250 222.5 230.5 c 128,-1,32
 191 211 191 211 191 171 c 0,33,34
 191 135 191 135 215 119.5 c 128,-1,35
 239 104 239 104 274 104 c 0,25,26
EndSplineSet
Substitution2: "'smcp' Lowercase to Small Capitals lookup 33 subtable" a.sc
Substitution2: "Single Substitution lookup 30 subtable" ordfeminine
AlternateSubs2: "'aalt' Access All Alternates lookup 1 subtable" ordfeminine a.sc
EndChar

StartChar: b
Encoding: 98 98 69
Width: 600
GlyphClass: 2
Flags: W
AnchorPoint: "Anchor-4" 580 760 basechar 0
AnchorPoint: "Anchor-3" 300 760 basechar 0
AnchorPoint: "Anchor-0" 300 0 basechar 0
LayerCount: 2
Fore
SplineSet
354 -10 m 0,0,1
 308 -10 308 -10 266.5 8 c 128,-1,2
 225 26 225 26 197 60 c 1,3,-1
 187 60 l 1,4,-1
 165 0 l 1,5,-1
 55 0 l 1,6,-1
 55 760 l 1,7,-1
 197 760 l 1,8,-1
 197 583 l 2,9,10
 197 548 197 548 191 475 c 1,11,-1
 197 475 l 1,12,13
 223 516 223 516 265.5 536 c 128,-1,14
 308 556 308 556 357 556 c 0,15,16
 428 556 428 556 473 518 c 128,-1,17
 518 480 518 480 539 416.5 c 128,-1,18
 560 353 560 353 560 275 c 0,19,20
 560 195 560 195 538 130.5 c 128,-1,21
 516 66 516 66 470.5 28 c 128,-1,22
 425 -10 425 -10 354 -10 c 0,0,1
305 110 m 0,23,24
 413 110 413 110 413 276 c 0,25,26
 413 358 413 358 384.5 397 c 128,-1,27
 356 436 356 436 304 436 c 0,28,29
 256 436 256 436 226.5 400 c 128,-1,30
 197 364 197 364 197 276 c 0,31,32
 197 191 197 191 225.5 150.5 c 128,-1,33
 254 110 254 110 305 110 c 0,23,24
EndSplineSet
Substitution2: "'smcp' Lowercase to Small Capitals lookup 33 subtable" b.sc
Substitution2: "'aalt' Access All Alternates lookup 0 subtable" b.sc
EndChar

StartChar: c
Encoding: 99 99 70
Width: 600
GlyphClass: 2
Flags: W
AnchorPoint: "Anchor-4" 580 546 basechar 0
AnchorPoint: "Anchor-3" 325 546 basechar 0
AnchorPoint: "Anchor-0" 330 0 basechar 0
LayerCount: 2
Fore
SplineSet
339 -10 m 0,0,1
 201 -10 201 -10 135.5 59.5 c 128,-1,2
 70 129 70 129 70 266 c 0,3,4
 70 408 70 408 138.5 482 c 128,-1,5
 207 556 207 556 344 556 c 0,6,7
 385 556 385 556 430.5 548.5 c 128,-1,8
 476 541 476 541 520 522 c 1,9,-1
 478 407 l 1,10,11
 438 423 438 423 405 428 c 128,-1,12
 372 433 372 433 352 433 c 0,13,14
 217 433 217 433 217 271 c 0,15,16
 217 188 217 188 252.5 150.5 c 128,-1,17
 288 113 288 113 354 113 c 0,18,19
 385 113 385 113 422.5 122.5 c 128,-1,20
 460 132 460 132 503 158 c 1,21,-1
 503 28 l 1,22,23
 460 6 460 6 421 -2 c 128,-1,24
 382 -10 382 -10 339 -10 c 0,0,1
EndSplineSet
Substitution2: "'smcp' Lowercase to Small Capitals lookup 33 subtable" c.sc
Substitution2: "'aalt' Access All Alternates lookup 0 subtable" c.sc
EndChar

StartChar: d
Encoding: 100 100 71
Width: 600
GlyphClass: 2
Flags: W
AnchorPoint: "Anchor-4" 580 760 basechar 0
AnchorPoint: "Anchor-3" 300 760 basechar 0
AnchorPoint: "Anchor-1" 300 273 basechar 0
AnchorPoint: "Anchor-0" 300 0 basechar 0
LayerCount: 2
Fore
SplineSet
243 -10 m 0,0,1
 172 -10 172 -10 127 27.5 c 128,-1,2
 82 65 82 65 61 129.5 c 128,-1,3
 40 194 40 194 40 273 c 0,4,5
 40 354 40 354 62.5 418 c 128,-1,6
 85 482 85 482 132.5 519 c 128,-1,7
 180 556 180 556 254 556 c 0,8,9
 306 556 306 556 344 536 c 128,-1,10
 382 516 382 516 409 476 c 1,11,-1
 414 476 l 1,12,13
 409 507 409 507 406 535.5 c 128,-1,14
 403 564 403 564 403 596 c 2,15,-1
 403 760 l 1,16,-1
 545 760 l 1,17,-1
 545 0 l 1,18,-1
 435 0 l 1,19,-1
 405 71 l 1,20,-1
 399 71 l 1,21,22
 374 30 374 30 333 10 c 128,-1,23
 292 -10 292 -10 243 -10 c 0,0,1
300 110 m 0,24,25
 414 110 414 110 414 255 c 2,26,-1
 414 271 l 2,27,28
 414 319 414 319 404.5 356.5 c 128,-1,29
 395 394 395 394 371.5 415 c 128,-1,30
 348 436 348 436 305 436 c 0,31,32
 187 436 187 436 187 267 c 0,33,34
 187 185 187 185 215 147.5 c 128,-1,35
 243 110 243 110 300 110 c 0,24,25
EndSplineSet
Substitution2: "'smcp' Lowercase to Small Capitals lookup 33 subtable" d.sc
Substitution2: "'aalt' Access All Alternates lookup 0 subtable" d.sc
EndChar

StartChar: e
Encoding: 101 101 72
Width: 600
GlyphClass: 2
Flags: W
AnchorPoint: "Anchor-4" 580 546 basechar 0
AnchorPoint: "Anchor-3" 310 546 basechar 0
AnchorPoint: "Anchor-2" 310 10 basechar 0
AnchorPoint: "Anchor-0" 310 0 basechar 0
LayerCount: 2
Fore
SplineSet
351 -10 m 0,0,1
 207 -10 207 -10 128.5 64 c 128,-1,2
 50 138 50 138 50 276 c 0,3,4
 50 361 50 361 80 424 c 128,-1,5
 110 487 110 487 168 521.5 c 128,-1,6
 226 556 226 556 308 556 c 0,7,8
 424 556 424 556 487 489 c 128,-1,9
 550 422 550 422 550 303 c 2,10,-1
 550 231 l 1,11,-1
 191 231 l 1,12,13
 192 190 192 190 215 163 c 128,-1,14
 238 136 238 136 276 122.5 c 128,-1,15
 314 109 314 109 359 109 c 0,16,17
 398 109 398 109 441 118.5 c 128,-1,18
 484 128 484 128 534 146 c 1,19,-1
 534 29 l 1,20,21
 490 7 490 7 443.5 -1.5 c 128,-1,22
 397 -10 397 -10 351 -10 c 0,0,1
194 330 m 1,23,-1
 420 330 l 1,24,25
 419 383 419 383 388.5 414 c 128,-1,26
 358 445 358 445 311 445 c 0,27,28
 265 445 265 445 232 415.5 c 128,-1,29
 199 386 199 386 194 330 c 1,23,-1
EndSplineSet
Substitution2: "'smcp' Lowercase to Small Capitals lookup 33 subtable" e.sc
Substitution2: "'aalt' Access All Alternates lookup 0 subtable" e.sc
EndChar

StartChar: f
Encoding: 102 102 73
Width: 600
GlyphClass: 2
Flags: W
AnchorPoint: "Anchor-4" 580 765 basechar 0
AnchorPoint: "Anchor-3" 398 760 basechar 0
AnchorPoint: "Anchor-0" 300 0 basechar 0
LayerCount: 2
Fore
SplineSet
213 0 m 1,0,-1
 213 426 l 1,1,-1
 68 426 l 1,2,-1
 68 516 l 1,3,-1
 213 546 l 1,4,-1
 213 581 l 2,5,6
 213 676 213 676 265 720.5 c 128,-1,7
 317 765 317 765 422 765 c 0,8,9
 461 765 461 765 502 759 c 128,-1,10
 543 753 543 753 580 742 c 1,11,-1
 542 628 l 1,12,13
 516 636 516 636 491 639 c 128,-1,14
 466 642 466 642 451 642 c 0,15,16
 403 642 403 642 380.5 622 c 128,-1,17
 358 602 358 602 358 566 c 2,18,-1
 358 546 l 1,19,-1
 534 546 l 1,20,-1
 534 426 l 1,21,-1
 358 426 l 1,22,-1
 358 0 l 1,23,-1
 213 0 l 1,0,-1
EndSplineSet
Substitution2: "'smcp' Lowercase to Small Capitals lookup 33 subtable" f.sc
Substitution2: "'aalt' Access All Alternates lookup 0 subtable" f.sc
EndChar

StartChar: g
Encoding: 103 103 74
Width: 600
GlyphClass: 2
Flags: W
AnchorPoint: "Anchor-4" 580 546 basechar 0
AnchorPoint: "Anchor-3" 300 546 basechar 0
AnchorPoint: "Anchor-0" 300 -245 basechar 0
LayerCount: 2
Fore
SplineSet
260 -245 m 0,0,1
 216 -245 216 -245 170.5 -238 c 128,-1,2
 125 -231 125 -231 78 -213 c 1,3,-1
 78 -77 l 1,4,5
 128 -98 128 -98 177 -109 c 128,-1,6
 226 -120 226 -120 270 -119 c 0,7,8
 338 -118 338 -118 368.5 -91.5 c 128,-1,9
 399 -65 399 -65 399 -7 c 2,10,-1
 399 4 l 2,11,12
 399 20 399 20 400.5 36.5 c 128,-1,13
 402 53 402 53 403 67 c 1,14,-1
 399 67 l 1,15,16
 371 26 371 26 333 8 c 128,-1,17
 295 -10 295 -10 248 -10 c 0,18,19
 150 -10 150 -10 95 65 c 128,-1,20
 40 140 40 140 40 273 c 256,21,22
 40 406 40 406 94.5 481.5 c 128,-1,23
 149 557 149 557 246 557 c 256,24,25
 343 557 343 557 401 476 c 1,26,-1
 405 476 l 1,27,-1
 435 546 l 1,28,-1
 545 546 l 1,29,-1
 545 -1 l 2,30,31
 545 -118 545 -118 475.5 -181.5 c 128,-1,32
 406 -245 406 -245 260 -245 c 0,0,1
301 110 m 0,33,34
 358 110 358 110 383.5 148 c 128,-1,35
 409 186 409 186 409 253 c 2,36,-1
 409 271 l 2,37,38
 409 359 409 359 382.5 397.5 c 128,-1,39
 356 436 356 436 298 436 c 256,40,41
 240 436 240 436 213.5 393.5 c 128,-1,42
 187 351 187 351 187 273 c 0,43,44
 187 194 187 194 214.5 152 c 128,-1,45
 242 110 242 110 301 110 c 0,33,34
EndSplineSet
Substitution2: "'smcp' Lowercase to Small Capitals lookup 33 subtable" g.sc
Substitution2: "'aalt' Access All Alternates lookup 0 subtable" g.sc
EndChar

StartChar: h
Encoding: 104 104 75
Width: 600
GlyphClass: 2
Flags: W
AnchorPoint: "Anchor-4" 580 760 basechar 0
AnchorPoint: "Anchor-3" 129 760 basechar 0
AnchorPoint: "Anchor-1" 300 273 basechar 0
AnchorPoint: "Anchor-0" 300 0 basechar 0
LayerCount: 2
Fore
SplineSet
55 0 m 1,0,-1
 55 760 l 1,1,-1
 200 760 l 1,2,-1
 200 605 l 2,3,4
 200 540 200 540 197 476 c 1,5,-1
 205 476 l 1,6,7
 230 515 230 515 266 535.5 c 128,-1,8
 302 556 302 556 360 556 c 0,9,10
 452 556 452 556 501 504.5 c 128,-1,11
 550 453 550 453 550 356 c 2,12,-1
 550 0 l 1,13,-1
 405 0 l 1,14,-1
 405 319 l 2,15,16
 405 386 405 386 380 411 c 128,-1,17
 355 436 355 436 312 436 c 0,18,19
 254 436 254 436 227 394 c 128,-1,20
 200 352 200 352 200 257 c 2,21,-1
 200 0 l 1,22,-1
 55 0 l 1,0,-1
EndSplineSet
Substitution2: "'smcp' Lowercase to Small Capitals lookup 33 subtable" h.sc
Substitution2: "'subs' Subscript lookup 20 subtable" uni2095
AlternateSubs2: "'aalt' Access All Alternates lookup 1 subtable" h.sc uni2095
EndChar

StartChar: i
Encoding: 105 105 76
Width: 600
GlyphClass: 2
Flags: W
AnchorPoint: "Anchor-4" 509 776 basechar 0
AnchorPoint: "Anchor-3" 315 776 basechar 0
AnchorPoint: "Anchor-0" 317 0 basechar 0
LayerCount: 2
Fore
SplineSet
315 608 m 0,0,1
 228 608 228 608 228 692 c 256,2,3
 228 776 228 776 317 776 c 0,4,5
 405 776 405 776 405 693 c 0,6,7
 405 608 405 608 315 608 c 0,0,1
60 0 m 1,8,-1
 60 90 l 1,9,-1
 242 120 l 1,10,-1
 242 426 l 1,11,-1
 87 443 l 1,12,-1
 87 546 l 1,13,-1
 387 546 l 1,14,-1
 387 120 l 1,15,-1
 550 90 l 1,16,-1
 550 0 l 1,17,-1
 60 0 l 1,8,-1
EndSplineSet
Substitution2: "'smcp' Lowercase to Small Capitals lookup 33 subtable" i.sc
Substitution2: "Single Substitution lookup 5 subtable" dotlessi
Substitution2: "Single Substitution lookup 4 subtable" dotlessi
AlternateSubs2: "'aalt' Access All Alternates lookup 1 subtable" dotlessi i.sc
EndChar

StartChar: j
Encoding: 106 106 77
Width: 600
GlyphClass: 2
Flags: W
AnchorPoint: "Anchor-4" 580 776 basechar 0
AnchorPoint: "Anchor-3" 340 776 basechar 0
AnchorPoint: "Anchor-0" 211 -245 basechar 0
LayerCount: 2
Fore
SplineSet
345 608 m 0,0,1
 258 608 258 608 258 692 c 256,2,3
 258 776 258 776 347 776 c 0,4,5
 435 776 435 776 435 693 c 0,6,7
 435 608 435 608 345 608 c 0,0,1
196 -245 m 0,8,9
 160 -245 160 -245 119 -239.5 c 128,-1,10
 78 -234 78 -234 40 -223 c 1,11,-1
 40 -100 l 1,12,13
 75 -110 75 -110 112 -114.5 c 128,-1,14
 149 -119 149 -119 174 -119 c 0,15,16
 233 -119 233 -119 258.5 -90.5 c 128,-1,17
 284 -62 284 -62 284 9 c 2,18,-1
 284 426 l 1,19,-1
 129 443 l 1,20,-1
 129 546 l 1,21,-1
 429 546 l 1,22,-1
 429 -19 l 2,23,24
 429 -135 429 -135 371 -190 c 128,-1,25
 313 -245 313 -245 196 -245 c 0,8,9
EndSplineSet
Substitution2: "'smcp' Lowercase to Small Capitals lookup 33 subtable" j.sc
Substitution2: "Single Substitution lookup 5 subtable" uni0237
Substitution2: "Single Substitution lookup 4 subtable" uni0237
AlternateSubs2: "'aalt' Access All Alternates lookup 1 subtable" uni0237 j.sc
EndChar

StartChar: k
Encoding: 107 107 78
Width: 600
GlyphClass: 2
Flags: W
AnchorPoint: "Anchor-4" 580 760 basechar 0
AnchorPoint: "Anchor-3" 340 760 basechar 0
AnchorPoint: "Anchor-0" 321 0 basechar 0
LayerCount: 2
Fore
SplineSet
60 0 m 1,0,-1
 60 760 l 1,1,-1
 205 760 l 1,2,-1
 205 409 l 2,3,4
 205 378 205 378 203 352 c 128,-1,5
 201 326 201 326 197 295 c 1,6,-1
 199 295 l 1,7,8
 213 316 213 316 230 338 c 128,-1,9
 247 360 247 360 265 382 c 2,10,-1
 404 546 l 1,11,-1
 572 546 l 1,12,-1
 372 319 l 1,13,-1
 585 0 l 1,14,-1
 429 0 l 1,15,-1
 282 227 l 1,16,-1
 205 168 l 1,17,-1
 205 0 l 1,18,-1
 60 0 l 1,0,-1
EndSplineSet
Substitution2: "'smcp' Lowercase to Small Capitals lookup 33 subtable" k.sc
Substitution2: "'subs' Subscript lookup 20 subtable" uni2096
AlternateSubs2: "'aalt' Access All Alternates lookup 1 subtable" k.sc uni2096
EndChar

StartChar: l
Encoding: 108 108 79
Width: 600
GlyphClass: 2
Flags: W
AnchorPoint: "Anchor-4" 498 760 basechar 0
AnchorPoint: "Anchor-3" 300 760 basechar 0
AnchorPoint: "Anchor-1" 315 376 basechar 0
AnchorPoint: "Anchor-0" 315 0 basechar 0
LayerCount: 2
Fore
SplineSet
60 0 m 1,0,-1
 60 90 l 1,1,-1
 240 120 l 1,2,-1
 240 640 l 1,3,-1
 95 670 l 1,4,-1
 95 760 l 1,5,-1
 385 760 l 1,6,-1
 385 120 l 1,7,-1
 550 90 l 1,8,-1
 550 0 l 1,9,-1
 60 0 l 1,0,-1
EndSplineSet
Substitution2: "'smcp' Lowercase to Small Capitals lookup 33 subtable" l.sc
Substitution2: "'subs' Subscript lookup 20 subtable" uni2097
AlternateSubs2: "'aalt' Access All Alternates lookup 1 subtable" l.sc uni2097
EndChar

StartChar: m
Encoding: 109 109 80
Width: 600
GlyphClass: 2
Flags: W
AnchorPoint: "Anchor-4" 580 546 basechar 0
AnchorPoint: "Anchor-3" 330 546 basechar 0
AnchorPoint: "Anchor-0" 310 0 basechar 0
LayerCount: 2
Fore
SplineSet
30 0 m 1,0,-1
 30 546 l 1,1,-1
 128 546 l 1,2,-1
 144 478 l 1,3,-1
 152 478 l 1,4,5
 167 518 167 518 190.5 537 c 128,-1,6
 214 556 214 556 253 556 c 0,7,8
 297 556 297 556 320 533 c 128,-1,9
 343 510 343 510 351 466 c 1,10,-1
 356 466 l 1,11,12
 374 510 374 510 399 533 c 128,-1,13
 424 556 424 556 467 556 c 0,14,15
 532 556 532 556 551 505 c 128,-1,16
 570 454 570 454 570 355 c 2,17,-1
 570 0 l 1,18,-1
 445 0 l 1,19,-1
 445 384 l 2,20,21
 445 409 445 409 438 422.5 c 128,-1,22
 431 436 431 436 409 436 c 0,23,24
 384 436 384 436 374 417 c 128,-1,25
 364 398 364 398 364 353 c 2,26,-1
 364 0 l 1,27,-1
 237 0 l 1,28,-1
 237 384 l 2,29,30
 237 410 237 410 229.5 423 c 128,-1,31
 222 436 222 436 200 436 c 0,32,33
 174 436 174 436 164.5 418 c 128,-1,34
 155 400 155 400 155 353 c 2,35,-1
 155 0 l 1,36,-1
 30 0 l 1,0,-1
EndSplineSet
Substitution2: "'smcp' Lowercase to Small Capitals lookup 33 subtable" m.sc
Substitution2: "'subs' Subscript lookup 20 subtable" uni2098
AlternateSubs2: "'aalt' Access All Alternates lookup 1 subtable" m.sc uni2098
EndChar

StartChar: n
Encoding: 110 110 81
Width: 600
GlyphClass: 2
Flags: W
AnchorPoint: "Anchor-4" 580 546 basechar 0
AnchorPoint: "Anchor-3" 304 546 basechar 0
AnchorPoint: "Anchor-0" 304 0 basechar 0
LayerCount: 2
Fore
SplineSet
55 0 m 1,0,-1
 55 546 l 1,1,-1
 165 546 l 1,2,-1
 189 476 l 1,3,-1
 197 476 l 1,4,5
 247 556 247 556 362 556 c 0,6,7
 454 556 454 556 502 504.5 c 128,-1,8
 550 453 550 453 550 356 c 2,9,-1
 550 0 l 1,10,-1
 405 0 l 1,11,-1
 405 319 l 2,12,13
 405 379 405 379 381 407.5 c 128,-1,14
 357 436 357 436 312 436 c 0,15,16
 253 436 253 436 226.5 388 c 128,-1,17
 200 340 200 340 200 257 c 2,18,-1
 200 0 l 1,19,-1
 55 0 l 1,0,-1
EndSplineSet
Substitution2: "'smcp' Lowercase to Small Capitals lookup 33 subtable" n.sc
Substitution2: "'sups' Superscript lookup 21 subtable" nsuperior
Substitution2: "'subs' Subscript lookup 20 subtable" uni2099
AlternateSubs2: "'aalt' Access All Alternates lookup 1 subtable" nsuperior n.sc uni2099
EndChar

StartChar: o
Encoding: 111 111 82
Width: 600
GlyphClass: 2
Flags: W
AnchorPoint: "Anchor-4" 580 546 basechar 0
AnchorPoint: "Anchor-3" 300 546 basechar 0
AnchorPoint: "Anchor-2" 305 10 basechar 0
AnchorPoint: "Anchor-1" 300 273 basechar 0
AnchorPoint: "Anchor-0" 300 0 basechar 0
LayerCount: 2
Fore
SplineSet
300 -10 m 0,0,1
 218 -10 218 -10 160 25 c 128,-1,2
 102 60 102 60 71 123 c 128,-1,3
 40 186 40 186 40 271 c 0,4,5
 40 358 40 358 71.5 422 c 128,-1,6
 103 486 103 486 161.5 521 c 128,-1,7
 220 556 220 556 302 556 c 0,8,9
 420 556 420 556 490 481 c 128,-1,10
 560 406 560 406 560 273 c 0,11,12
 560 188 560 188 530 124.5 c 128,-1,13
 500 61 500 61 442 25.5 c 128,-1,14
 384 -10 384 -10 300 -10 c 0,0,1
302 107 m 0,15,16
 359 107 359 107 386 151.5 c 128,-1,17
 413 196 413 196 413 273 c 0,18,19
 413 348 413 348 386.5 393.5 c 128,-1,20
 360 439 360 439 302 439 c 256,21,22
 244 439 244 439 215.5 394.5 c 128,-1,23
 187 350 187 350 187 273 c 256,24,25
 187 196 187 196 215.5 151.5 c 128,-1,26
 244 107 244 107 302 107 c 0,15,16
EndSplineSet
Substitution2: "'smcp' Lowercase to Small Capitals lookup 33 subtable" o.sc
Substitution2: "Single Substitution lookup 30 subtable" ordmasculine
AlternateSubs2: "'aalt' Access All Alternates lookup 1 subtable" ordmasculine o.sc
EndChar

StartChar: p
Encoding: 112 112 83
Width: 600
GlyphClass: 2
Flags: W
AnchorPoint: "Anchor-4" 580 546 basechar 0
AnchorPoint: "Anchor-3" 340 546 basechar 0
AnchorPoint: "Anchor-0" 340 -240 basechar 0
LayerCount: 2
Fore
SplineSet
55 -240 m 1,0,-1
 55 546 l 1,1,-1
 165 546 l 1,2,-1
 190 475 l 1,3,-1
 197 475 l 1,4,5
 223 516 223 516 265.5 536 c 128,-1,6
 308 556 308 556 358 556 c 0,7,8
 428 556 428 556 473 518 c 128,-1,9
 518 480 518 480 539 416 c 128,-1,10
 560 352 560 352 560 274 c 0,11,12
 560 140 560 140 504 65 c 128,-1,13
 448 -10 448 -10 353 -10 c 0,14,15
 308 -10 308 -10 266.5 8 c 128,-1,16
 225 26 225 26 197 60 c 1,17,-1
 190 60 l 1,18,19
 194 26 194 26 195.5 6 c 128,-1,20
 197 -14 197 -14 197 -19 c 2,21,-1
 197 -240 l 1,22,-1
 55 -240 l 1,0,-1
308 110 m 0,23,24
 360 110 360 110 385 149.5 c 128,-1,25
 410 189 410 189 410 276 c 0,26,27
 410 354 410 354 385.5 395 c 128,-1,28
 361 436 361 436 307 436 c 0,29,30
 254 436 254 436 225.5 398 c 128,-1,31
 197 360 197 360 197 291 c 2,32,-1
 197 275 l 2,33,34
 197 190 197 190 226 150 c 128,-1,35
 255 110 255 110 308 110 c 0,23,24
EndSplineSet
Substitution2: "'smcp' Lowercase to Small Capitals lookup 33 subtable" p.sc
Substitution2: "'subs' Subscript lookup 20 subtable" uni209A
AlternateSubs2: "'aalt' Access All Alternates lookup 1 subtable" p.sc uni209A
EndChar

StartChar: q
Encoding: 113 113 84
Width: 600
GlyphClass: 2
Flags: W
AnchorPoint: "Anchor-4" 580 546 basechar 0
AnchorPoint: "Anchor-3" 280 546 basechar 0
AnchorPoint: "Anchor-0" 280 -240 basechar 0
LayerCount: 2
Fore
SplineSet
403 -240 m 1,0,-1
 403 -11 l 2,1,2
 403 18 403 18 409 71 c 1,3,-1
 403 71 l 1,4,5
 380 34 380 34 337.5 12 c 128,-1,6
 295 -10 295 -10 242 -10 c 0,7,8
 172 -10 172 -10 127 27.5 c 128,-1,9
 82 65 82 65 61 129 c 128,-1,10
 40 193 40 193 40 272 c 0,11,12
 40 350 40 350 61 414.5 c 128,-1,13
 82 479 82 479 128 517.5 c 128,-1,14
 174 556 174 556 247 556 c 0,15,16
 296 556 296 556 338 536.5 c 128,-1,17
 380 517 380 517 409 476 c 1,18,-1
 414 476 l 1,19,-1
 435 546 l 1,20,-1
 545 546 l 1,21,-1
 545 -240 l 1,22,-1
 403 -240 l 1,0,-1
299 110 m 0,23,24
 359 110 359 110 384.5 150.5 c 128,-1,25
 410 191 410 191 410 253 c 2,26,-1
 410 271 l 2,27,28
 410 357 410 357 380.5 396.5 c 128,-1,29
 351 436 351 436 299 436 c 0,30,31
 243 436 243 436 216.5 393 c 128,-1,32
 190 350 190 350 190 271 c 256,33,34
 190 192 190 192 216 151 c 128,-1,35
 242 110 242 110 299 110 c 0,23,24
EndSplineSet
Substitution2: "'smcp' Lowercase to Small Capitals lookup 33 subtable" q.sc
Substitution2: "'aalt' Access All Alternates lookup 0 subtable" q.sc
EndChar

StartChar: r
Encoding: 114 114 85
Width: 600
GlyphClass: 2
Flags: W
AnchorPoint: "Anchor-4" 580 546 basechar 0
AnchorPoint: "Anchor-3" 330 546 basechar 0
AnchorPoint: "Anchor-0" 260 0 basechar 0
LayerCount: 2
Fore
SplineSet
41 0 m 1,0,-1
 41 90 l 1,1,-1
 183 120 l 1,2,-1
 183 426 l 1,3,-1
 68 443 l 1,4,-1
 68 546 l 1,5,-1
 293 546 l 1,6,-1
 314 454 l 1,7,-1
 321 454 l 1,8,9
 347 500 347 500 386.5 528 c 128,-1,10
 426 556 426 556 488 556 c 0,11,12
 504 556 504 556 530.5 553 c 128,-1,13
 557 550 557 550 583 539 c 1,14,-1
 544 404 l 1,15,16
 530 408 530 408 509 412.5 c 128,-1,17
 488 417 488 417 465 417 c 0,18,19
 396 417 396 417 362 372.5 c 128,-1,20
 328 328 328 328 328 262 c 2,21,-1
 328 120 l 1,22,-1
 471 90 l 1,23,-1
 471 0 l 1,24,-1
 41 0 l 1,0,-1
EndSplineSet
Substitution2: "'smcp' Lowercase to Small Capitals lookup 33 subtable" r.sc
Substitution2: "'aalt' Access All Alternates lookup 0 subtable" r.sc
EndChar

StartChar: s
Encoding: 115 115 86
Width: 600
GlyphClass: 2
Flags: W
AnchorPoint: "Anchor-4" 580 546 basechar 0
AnchorPoint: "Anchor-3" 305 546 basechar 0
AnchorPoint: "Anchor-0" 305 0 basechar 0
LayerCount: 2
Fore
SplineSet
272 -10 m 0,0,1
 222 -10 222 -10 175 -3 c 128,-1,2
 128 4 128 4 80 22 c 1,3,-1
 80 157 l 1,4,5
 123 138 123 138 177 124.5 c 128,-1,6
 231 111 231 111 289 111 c 0,7,8
 327 111 327 111 349 120.5 c 128,-1,9
 371 130 371 130 371 152 c 0,10,11
 371 180 371 180 338 194 c 128,-1,12
 305 208 305 208 241 233 c 0,13,14
 196 250 196 250 160.5 270 c 128,-1,15
 125 290 125 290 104.5 319 c 128,-1,16
 84 348 84 348 84 396 c 0,17,18
 84 452 84 452 112.5 487.5 c 128,-1,19
 141 523 141 523 191 539.5 c 128,-1,20
 241 556 241 556 307 556 c 0,21,22
 360 556 360 556 414 545.5 c 128,-1,23
 468 535 468 535 519 513 c 1,24,-1
 474 402 l 1,25,26
 428 419 428 419 386.5 428 c 128,-1,27
 345 437 345 437 302 437 c 0,28,29
 269 437 269 437 250.5 429 c 128,-1,30
 232 421 232 421 232 401 c 0,31,32
 232 374 232 374 263.5 360.5 c 128,-1,33
 295 347 295 347 352 327 c 0,34,35
 396 311 396 311 434.5 291 c 128,-1,36
 473 271 473 271 496.5 238.5 c 128,-1,37
 520 206 520 206 520 151 c 0,38,39
 520 67 520 67 457.5 28.5 c 128,-1,40
 395 -10 395 -10 272 -10 c 0,0,1
EndSplineSet
Substitution2: "'smcp' Lowercase to Small Capitals lookup 33 subtable" s.sc
Substitution2: "'subs' Subscript lookup 20 subtable" uni209B
AlternateSubs2: "'aalt' Access All Alternates lookup 1 subtable" s.sc uni209B
EndChar

StartChar: t
Encoding: 116 116 87
Width: 600
GlyphClass: 2
Flags: W
AnchorPoint: "Anchor-4" 580 682 basechar 0
AnchorPoint: "Anchor-3" 269 682 basechar 0
AnchorPoint: "Anchor-1" 261 273 basechar 0
AnchorPoint: "Anchor-0" 366 0 basechar 0
LayerCount: 2
Fore
SplineSet
391 -10 m 0,0,1
 285 -10 285 -10 231.5 37 c 128,-1,2
 178 84 178 84 178 188 c 2,3,-1
 178 426 l 1,4,-1
 53 426 l 1,5,-1
 53 516 l 1,6,-1
 189 546 l 1,7,-1
 213 682 l 1,8,-1
 323 682 l 1,9,-1
 323 546 l 1,10,-1
 528 546 l 1,11,-1
 528 426 l 1,12,-1
 323 426 l 1,13,-1
 323 203 l 2,14,15
 323 164 323 164 336 144 c 128,-1,16
 349 124 349 124 370.5 117.5 c 128,-1,17
 392 111 392 111 419 111 c 0,18,19
 443 111 443 111 468 114.5 c 128,-1,20
 493 118 493 118 533 126 c 1,21,-1
 533 12 l 1,22,23
 496 0 496 0 460.5 -5 c 128,-1,24
 425 -10 425 -10 391 -10 c 0,0,1
EndSplineSet
Substitution2: "'smcp' Lowercase to Small Capitals lookup 33 subtable" t.sc
Substitution2: "'subs' Subscript lookup 20 subtable" uni209C
AlternateSubs2: "'aalt' Access All Alternates lookup 1 subtable" t.sc uni209C
EndChar

StartChar: u
Encoding: 117 117 88
Width: 600
GlyphClass: 2
Flags: W
AnchorPoint: "Anchor-4" 580 546 basechar 0
AnchorPoint: "Anchor-3" 300 546 basechar 0
AnchorPoint: "Anchor-2" 540 10 basechar 0
AnchorPoint: "Anchor-0" 300 0 basechar 0
LayerCount: 2
Fore
SplineSet
234 -10 m 0,0,1
 147 -10 147 -10 98.5 41.5 c 128,-1,2
 50 93 50 93 50 190 c 2,3,-1
 50 546 l 1,4,-1
 195 546 l 1,5,-1
 195 227 l 2,6,7
 195 172 195 172 214 141 c 128,-1,8
 233 110 233 110 283 110 c 0,9,10
 330 110 330 110 355.5 132 c 128,-1,11
 381 154 381 154 390.5 194 c 128,-1,12
 400 234 400 234 400 289 c 2,13,-1
 400 546 l 1,14,-1
 545 546 l 1,15,-1
 545 0 l 1,16,-1
 435 0 l 1,17,-1
 411 70 l 1,18,-1
 403 70 l 1,19,20
 379 32 379 32 334.5 11 c 128,-1,21
 290 -10 290 -10 234 -10 c 0,0,1
EndSplineSet
Substitution2: "'smcp' Lowercase to Small Capitals lookup 33 subtable" u.sc
Substitution2: "'aalt' Access All Alternates lookup 0 subtable" u.sc
EndChar

StartChar: v
Encoding: 118 118 89
Width: 600
GlyphClass: 2
Flags: W
AnchorPoint: "Anchor-4" 580 546 basechar 0
AnchorPoint: "Anchor-3" 300 546 basechar 0
AnchorPoint: "Anchor-0" 300 0 basechar 0
LayerCount: 2
Fore
SplineSet
223 0 m 1,0,-1
 20 546 l 1,1,-1
 176 546 l 1,2,-1
 275 235 l 2,3,4
 284 206 284 206 291 177.5 c 128,-1,5
 298 149 298 149 301 123 c 1,6,-1
 304 123 l 1,7,8
 307 149 307 149 312.5 174.5 c 128,-1,9
 318 200 318 200 329 234 c 2,10,-1
 427 546 l 1,11,-1
 580 546 l 1,12,-1
 376 0 l 1,13,-1
 223 0 l 1,0,-1
EndSplineSet
Substitution2: "'smcp' Lowercase to Small Capitals lookup 33 subtable" v.sc
Substitution2: "'aalt' Access All Alternates lookup 0 subtable" v.sc
EndChar

StartChar: w
Encoding: 119 119 90
Width: 600
GlyphClass: 2
Flags: W
AnchorPoint: "Anchor-4" 580 546 basechar 0
AnchorPoint: "Anchor-3" 302 546 basechar 0
AnchorPoint: "Anchor-0" 302 0 basechar 0
LayerCount: 2
Fore
SplineSet
80 0 m 1,0,-1
 3 546 l 1,1,-1
 135 546 l 1,2,-1
 160 264 l 2,3,4
 163 232 163 232 165.5 202 c 128,-1,5
 168 172 168 172 173 124 c 1,6,-1
 177 124 l 1,7,8
 183 171 183 171 187.5 200.5 c 128,-1,9
 192 230 192 230 199 266 c 2,10,-1
 239 466 l 1,11,-1
 363 466 l 1,12,-1
 403 265 l 2,13,14
 409 236 409 236 414.5 202 c 128,-1,15
 420 168 420 168 427 124 c 1,16,-1
 431 124 l 1,17,18
 436 168 436 168 438.5 201.5 c 128,-1,19
 441 235 441 235 443 264 c 2,20,-1
 468 546 l 1,21,-1
 598 546 l 1,22,-1
 521 0 l 1,23,-1
 356 0 l 1,24,-1
 318 212 l 2,25,26
 312 245 312 245 309 266.5 c 128,-1,27
 306 288 306 288 302 313 c 1,28,-1
 298 313 l 1,29,30
 294 287 294 287 291 266 c 128,-1,31
 288 245 288 245 282 212 c 2,32,-1
 243 0 l 1,33,-1
 80 0 l 1,0,-1
EndSplineSet
Substitution2: "'smcp' Lowercase to Small Capitals lookup 33 subtable" w.sc
Substitution2: "'aalt' Access All Alternates lookup 0 subtable" w.sc
EndChar

StartChar: x
Encoding: 120 120 91
Width: 600
GlyphClass: 2
Flags: W
AnchorPoint: "Anchor-4" 580 546 basechar 0
AnchorPoint: "Anchor-3" 300 546 basechar 0
AnchorPoint: "Anchor-0" 300 0 basechar 0
LayerCount: 2
Fore
SplineSet
20 0 m 1,0,-1
 213 278 l 1,1,-1
 29 546 l 1,2,-1
 203 546 l 1,3,-1
 302 374 l 1,4,-1
 406 546 l 1,5,-1
 580 546 l 1,6,-1
 392 278 l 1,7,-1
 580 0 l 1,8,-1
 406 0 l 1,9,-1
 303 180 l 1,10,-1
 194 0 l 1,11,-1
 20 0 l 1,0,-1
EndSplineSet
Substitution2: "'smcp' Lowercase to Small Capitals lookup 33 subtable" x.sc
Substitution2: "'aalt' Access All Alternates lookup 0 subtable" x.sc
EndChar

StartChar: y
Encoding: 121 121 92
Width: 600
GlyphClass: 2
Flags: W
AnchorPoint: "Anchor-4" 580 546 basechar 0
AnchorPoint: "Anchor-3" 300 546 basechar 0
AnchorPoint: "Anchor-0" 300 -245 basechar 0
LayerCount: 2
Fore
SplineSet
133 -245 m 0,0,1
 115 -245 115 -245 96.5 -243 c 128,-1,2
 78 -241 78 -241 59 -237 c 1,3,-1
 59 -113 l 1,4,5
 72 -116 72 -116 86 -117.5 c 128,-1,6
 100 -119 100 -119 111 -119 c 0,7,8
 157 -119 157 -119 183.5 -94.5 c 128,-1,9
 210 -70 210 -70 226 -23 c 2,10,-1
 235 4 l 1,11,-1
 20 546 l 1,12,-1
 178 546 l 1,13,-1
 283 232 l 2,14,15
 290 212 290 212 295.5 188.5 c 128,-1,16
 301 165 301 165 305 137 c 1,17,-1
 308 137 l 1,18,19
 312 165 312 165 318 187 c 128,-1,20
 324 209 324 209 331 232 c 2,21,-1
 424 546 l 1,22,-1
 580 546 l 1,23,-1
 371 -29 l 2,24,25
 330 -140 330 -140 274 -192.5 c 128,-1,26
 218 -245 218 -245 133 -245 c 0,0,1
EndSplineSet
Substitution2: "'smcp' Lowercase to Small Capitals lookup 33 subtable" y.sc
Substitution2: "'aalt' Access All Alternates lookup 0 subtable" y.sc
EndChar

StartChar: z
Encoding: 122 122 93
Width: 600
GlyphClass: 2
Flags: W
AnchorPoint: "Anchor-4" 580 546 basechar 0
AnchorPoint: "Anchor-3" 308 546 basechar 0
AnchorPoint: "Anchor-0" 308 0 basechar 0
LayerCount: 2
Fore
SplineSet
65 0 m 1,0,-1
 65 88 l 1,1,-1
 343 432 l 1,2,-1
 80 432 l 1,3,-1
 80 546 l 1,4,-1
 526 546 l 1,5,-1
 526 449 l 1,6,-1
 250 114 l 1,7,-1
 535 114 l 1,8,-1
 535 0 l 1,9,-1
 65 0 l 1,0,-1
EndSplineSet
Substitution2: "'smcp' Lowercase to Small Capitals lookup 33 subtable" z.sc
Substitution2: "'aalt' Access All Alternates lookup 0 subtable" z.sc
EndChar

StartChar: braceleft
Encoding: 123 123 94
Width: 600
Flags: W
LayerCount: 2
Fore
SplineSet
463 -162 m 1,0,1
 382 -162 382 -162 335.5 -147.5 c 128,-1,2
 289 -133 289 -133 269.5 -100.5 c 128,-1,3
 250 -68 250 -68 250 -12 c 2,4,-1
 250 135 l 2,5,6
 250 223 250 223 137 223 c 1,7,-1
 137 333 l 1,8,9
 193 333 193 333 221.5 353.5 c 128,-1,10
 250 374 250 374 250 421 c 2,11,-1
 250 568 l 2,12,13
 250 621 250 621 268 654 c 128,-1,14
 286 687 286 687 332.5 702.5 c 128,-1,15
 379 718 379 718 463 718 c 1,16,-1
 463 611 l 1,17,18
 422 610 422 610 399 596.5 c 128,-1,19
 376 583 376 583 376 542 c 2,20,-1
 376 397 l 2,21,22
 376 297 376 297 274 281 c 1,23,-1
 274 275 l 1,24,25
 376 259 376 259 376 161 c 2,26,-1
 376 15 l 2,27,28
 376 -25 376 -25 397.5 -39.5 c 128,-1,29
 419 -54 419 -54 463 -55 c 1,30,-1
 463 -162 l 1,0,1
EndSplineSet
Substitution2: "'smcp' Lowercase to Small Capitals lookup 33 subtable" braceleft.sc
Substitution2: "'c2sc' Capitals to Small Capitals lookup 32 subtable" braceleft.sc
Substitution2: "'aalt' Access All Alternates lookup 0 subtable" braceleft.sc
EndChar

StartChar: bar
Encoding: 124 124 95
Width: 600
Flags: W
LayerCount: 2
Fore
SplineSet
244 -240 m 1,0,-1
 244 760 l 1,1,-1
 355 760 l 1,2,-1
 355 -240 l 1,3,-1
 244 -240 l 1,0,-1
EndSplineSet
EndChar

StartChar: asciitilde
Encoding: 126 126 97
Width: 600
Flags: W
LayerCount: 2
Fore
SplineSet
75 269 m 1,0,-1
 75 383 l 1,1,2
 122 435 122 435 192 435 c 0,3,4
 221 435 221 435 249.5 427.5 c 128,-1,5
 278 420 278 420 316 404 c 0,6,7
 377 377 377 377 419 377 c 0,8,9
 444 377 444 377 473 393.5 c 128,-1,10
 502 410 502 410 525 436 c 1,11,-1
 525 323 l 1,12,13
 479 271 479 271 409 271 c 0,14,15
 379 271 379 271 350.5 277 c 128,-1,16
 322 283 322 283 284 301 c 0,17,18
 252 316 252 316 227.5 322 c 128,-1,19
 203 328 203 328 181 328 c 0,20,21
 156 328 156 328 128 312 c 128,-1,22
 100 296 100 296 75 269 c 1,0,-1
EndSplineSet
EndChar

StartChar: cent
Encoding: 162 162 100
Width: 600
Flags: W
LayerCount: 2
Fore
SplineSet
299 -10 m 1,0,-1
 299 86 l 1,1,2
 75 109 75 109 70 362 c 1,3,4
 72 492 72 492 132 561.5 c 128,-1,5
 192 631 192 631 299 643 c 1,6,-1
 299 724 l 1,7,-1
 379 724 l 1,8,-1
 379 647 l 1,9,10
 423 645 423 645 464 635.5 c 128,-1,11
 505 626 505 626 530 612 c 1,12,-1
 491 502 l 1,13,14
 462 516 462 516 425 524 c 128,-1,15
 388 532 388 532 360 532 c 0,16,17
 286 532 286 532 247 492 c 128,-1,18
 208 452 208 452 208 363 c 0,19,20
 208 277 208 277 247 237.5 c 128,-1,21
 286 198 286 198 359 198 c 0,22,23
 401 198 401 198 442.5 208.5 c 128,-1,24
 484 219 484 219 516 237 c 1,25,-1
 516 119 l 1,26,27
 491 105 491 105 453.5 95.5 c 128,-1,28
 416 86 416 86 379 83 c 1,29,-1
 379 -10 l 1,30,-1
 299 -10 l 1,0,-1
EndSplineSet
EndChar

StartChar: sterling
Encoding: 163 163 101
Width: 600
Flags: W
LayerCount: 2
Fore
SplineSet
81 0 m 1,0,-1
 81 117 l 1,1,2
 118 136 118 136 137.5 162.5 c 128,-1,3
 157 189 157 189 157 243 c 2,4,-1
 157 313 l 1,5,-1
 80 313 l 1,6,-1
 80 417 l 1,7,-1
 157 417 l 1,8,-1
 157 520 l 2,9,10
 157 626 157 626 215 675 c 128,-1,11
 273 724 273 724 366 724 c 0,12,13
 412 724 412 724 453.5 713.5 c 128,-1,14
 495 703 495 703 532 684 c 1,15,-1
 491 574 l 1,16,17
 460 589 460 589 434.5 596.5 c 128,-1,18
 409 604 409 604 377 604 c 0,19,20
 348 604 348 604 322.5 584.5 c 128,-1,21
 297 565 297 565 297 520 c 2,22,-1
 297 417 l 1,23,-1
 460 417 l 1,24,-1
 460 313 l 1,25,-1
 297 313 l 1,26,-1
 297 244 l 2,27,28
 297 197 297 197 277 168.5 c 128,-1,29
 257 140 257 140 228 123 c 1,30,-1
 540 123 l 1,31,-1
 540 0 l 1,32,-1
 81 0 l 1,0,-1
EndSplineSet
EndChar

StartChar: currency
Encoding: 164 164 102
Width: 600
Flags: W
LayerCount: 2
Fore
SplineSet
469 134 m 1,0,-1
 403 199 l 1,1,2
 380 186 380 186 353.5 178 c 128,-1,3
 327 170 327 170 299 170 c 0,4,5
 240 170 240 170 193 199 c 1,6,-1
 129 135 l 1,7,-1
 61 203 l 1,8,-1
 127 267 l 1,9,10
 112 291 112 291 104 317 c 128,-1,11
 96 343 96 343 96 372 c 0,12,13
 96 426 96 426 127 476 c 1,14,-1
 60 542 l 1,15,-1
 129 610 l 1,16,-1
 194 545 l 1,17,18
 240 575 240 575 299 575 c 0,19,20
 356 575 356 575 403 544 c 1,21,-1
 469 610 l 1,22,-1
 539 544 l 1,23,-1
 472 477 l 1,24,25
 486 454 486 454 494.5 427 c 128,-1,26
 503 400 503 400 503 372 c 0,27,28
 503 316 503 316 472 266 c 1,29,-1
 536 202 l 1,30,-1
 469 134 l 1,0,-1
299 272 m 0,31,32
 344 272 344 272 372.5 299.5 c 128,-1,33
 401 327 401 327 401 372 c 0,34,35
 401 416 401 416 374 444.5 c 128,-1,36
 347 473 347 473 299 473 c 0,37,38
 252 473 252 473 225.5 443.5 c 128,-1,39
 199 414 199 414 199 372 c 0,40,41
 199 326 199 326 228 299 c 128,-1,42
 257 272 257 272 299 272 c 0,31,32
EndSplineSet
EndChar

StartChar: yen
Encoding: 165 165 103
Width: 600
Flags: W
LayerCount: 2
Fore
SplineSet
232 0 m 1,0,-1
 232 111 l 1,1,-1
 88 111 l 1,2,-1
 88 197 l 1,3,-1
 232 197 l 1,4,-1
 232 265 l 1,5,-1
 88 265 l 1,6,-1
 88 352 l 1,7,-1
 206 352 l 1,8,-1
 25 714 l 1,9,-1
 172 714 l 1,10,-1
 300 427 l 1,11,-1
 428 714 l 1,12,-1
 575 714 l 1,13,-1
 391 352 l 1,14,-1
 512 352 l 1,15,-1
 512 265 l 1,16,-1
 368 265 l 1,17,-1
 368 197 l 1,18,-1
 512 197 l 1,19,-1
 512 111 l 1,20,-1
 368 111 l 1,21,-1
 368 0 l 1,22,-1
 232 0 l 1,0,-1
EndSplineSet
EndChar

StartChar: brokenbar
Encoding: 166 166 104
Width: 600
Flags: W
LayerCount: 2
Fore
SplineSet
244 362 m 1,0,-1
 244 758 l 1,1,-1
 355 758 l 1,2,-1
 355 362 l 1,3,-1
 244 362 l 1,0,-1
244 -230 m 1,4,-1
 244 167 l 1,5,-1
 355 167 l 1,6,-1
 355 -230 l 1,7,-1
 244 -230 l 1,4,-1
EndSplineSet
EndChar

StartChar: section
Encoding: 167 167 105
Width: 600
Flags: W
LayerCount: 2
Fore
SplineSet
276 -10 m 0,0,1
 223 -10 223 -10 180.5 0 c 128,-1,2
 138 10 138 10 103 29 c 1,3,-1
 103 131 l 1,4,5
 140 111 140 111 188 96.5 c 128,-1,6
 236 82 236 82 274 82 c 0,7,8
 322 82 322 82 343 98 c 128,-1,9
 364 114 364 114 364 139 c 0,10,11
 364 156 364 156 356.5 168.5 c 128,-1,12
 349 181 349 181 327.5 194 c 128,-1,13
 306 207 306 207 263 225 c 0,14,15
 183 260 183 260 143.5 294.5 c 128,-1,16
 104 329 104 329 104 386 c 0,17,18
 104 430 104 430 125 461 c 128,-1,19
 146 492 146 492 181 511 c 1,20,21
 110 556 110 556 110 626 c 0,22,23
 110 690 110 690 166 727.5 c 128,-1,24
 222 765 222 765 313 765 c 0,25,26
 362 765 362 765 405 754.5 c 128,-1,27
 448 744 448 744 491 726 c 1,28,-1
 449 633 l 1,29,30
 414 651 414 651 380.5 662 c 128,-1,31
 347 673 347 673 314 673 c 0,32,33
 238 673 238 673 238 626 c 0,34,35
 238 602 238 602 263 585.5 c 128,-1,36
 288 569 288 569 338 549 c 0,37,38
 415 518 415 518 456.5 480.5 c 128,-1,39
 498 443 498 443 498 382 c 0,40,41
 498 341 498 341 479.5 311 c 128,-1,42
 461 281 461 281 429 260 c 1,43,44
 493 217 493 217 493 146 c 256,45,46
 493 75 493 75 434.5 32.5 c 128,-1,47
 376 -10 376 -10 276 -10 c 0,0,1
343 303 m 1,48,49
 357 314 357 314 367.5 330 c 128,-1,50
 378 346 378 346 378 369 c 0,51,52
 378 399 378 399 355.5 421 c 128,-1,53
 333 443 333 443 266 468 c 1,54,55
 248 460 248 460 235.5 444 c 128,-1,56
 223 428 223 428 223 405 c 0,57,58
 223 377 223 377 247 356 c 128,-1,59
 271 335 271 335 321 313 c 2,60,-1
 343 303 l 1,48,49
EndSplineSet
EndChar

StartChar: dieresis
Encoding: 168 168 106
Width: 600
GlyphClass: 2
Flags: W
AnchorPoint: "Anchor-13" 300 656 basemark 0
AnchorPoint: "Anchor-13" 300 546 mark 0
AnchorPoint: "Anchor-8" 300 546 mark 0
AnchorPoint: "Anchor-3" 300 546 mark 0
LayerCount: 2
Fore
SplineSet
419 610 m 256,0,1
 388 610 388 610 367.5 629 c 128,-1,2
 347 648 347 648 347 684 c 0,3,4
 347 722 347 722 367.5 739.5 c 128,-1,5
 388 757 388 757 419 757 c 256,6,7
 450 757 450 757 471 739 c 128,-1,8
 492 721 492 721 492 684 c 0,9,10
 492 648 492 648 471 629 c 128,-1,11
 450 610 450 610 419 610 c 256,0,1
185 610 m 256,12,13
 154 610 154 610 134 628.5 c 128,-1,14
 114 647 114 647 114 684 c 0,15,16
 114 722 114 722 134 739.5 c 128,-1,17
 154 757 154 757 185 757 c 256,18,19
 216 757 216 757 237 739 c 128,-1,20
 258 721 258 721 258 684 c 0,21,22
 258 648 258 648 237 629 c 128,-1,23
 216 610 216 610 185 610 c 256,12,13
EndSplineSet
EndChar

StartChar: copyright
Encoding: 169 169 107
Width: 600
Flags: W
LayerCount: 2
Fore
SplineSet
298 77 m 0,0,1
 209 77 209 77 148.5 115 c 128,-1,2
 88 153 88 153 57 215.5 c 128,-1,3
 26 278 26 278 26 350 c 0,4,5
 26 427 26 427 59.5 488.5 c 128,-1,6
 93 550 93 550 154.5 586 c 128,-1,7
 216 622 216 622 300 622 c 256,8,9
 384 622 384 622 445.5 585.5 c 128,-1,10
 507 549 507 549 540.5 486.5 c 128,-1,11
 574 424 574 424 574 346 c 0,12,13
 574 266 574 266 539 205.5 c 128,-1,14
 504 145 504 145 442 111 c 128,-1,15
 380 77 380 77 298 77 c 0,0,1
298 142 m 0,16,17
 359 142 359 142 404.5 168.5 c 128,-1,18
 450 195 450 195 475.5 242.5 c 128,-1,19
 501 290 501 290 501 352 c 256,20,21
 501 414 501 414 475 460.5 c 128,-1,22
 449 507 449 507 403.5 532 c 128,-1,23
 358 557 358 557 300 557 c 0,24,25
 236 557 236 557 191 528.5 c 128,-1,26
 146 500 146 500 122.5 452.5 c 128,-1,27
 99 405 99 405 99 349 c 0,28,29
 99 292 99 292 122.5 245 c 128,-1,30
 146 198 146 198 190 170 c 128,-1,31
 234 142 234 142 298 142 c 0,16,17
311 180 m 0,32,33
 235 180 235 180 195 225.5 c 128,-1,34
 155 271 155 271 155 349 c 0,35,36
 155 428 155 428 196 474.5 c 128,-1,37
 237 521 237 521 312 521 c 0,38,39
 360 521 360 521 407 498 c 1,40,-1
 383 435 l 1,41,42
 348 455 348 455 315 455 c 0,43,44
 278 455 278 455 256.5 427 c 128,-1,45
 235 399 235 399 235 346 c 0,46,47
 235 247 235 247 316 247 c 0,48,49
 355 247 355 247 395 264 c 1,50,-1
 395 198 l 1,51,52
 376 190 376 190 356 185 c 128,-1,53
 336 180 336 180 311 180 c 0,32,33
EndSplineSet
EndChar

StartChar: ordfeminine
Encoding: 170 170 108
Width: 600
Flags: W
LayerCount: 2
Fore
SplineSet
257 369 m 0,0,1
 206 369 206 369 174.5 395.5 c 128,-1,2
 143 422 143 422 143 474 c 0,3,4
 143 535 143 535 187.5 559 c 128,-1,5
 232 583 232 583 313 587 c 2,6,-1
 361 589 l 1,7,-1
 361 598 l 2,8,9
 361 648 361 648 299 648 c 0,10,11
 278 648 278 648 253 642 c 128,-1,12
 228 636 228 636 203 623 c 1,13,-1
 172 687 l 1,14,15
 201 703 201 703 237.5 712.5 c 128,-1,16
 274 722 274 722 314 722 c 0,17,18
 388 722 388 722 422 687 c 128,-1,19
 456 652 456 652 456 591 c 2,20,-1
 456 375 l 1,21,-1
 392 375 l 1,22,-1
 377 427 l 1,23,24
 356 399 356 399 326 384 c 128,-1,25
 296 369 296 369 257 369 c 0,0,1
283 440 m 0,26,27
 318 440 318 440 339.5 461 c 128,-1,28
 361 482 361 482 361 514 c 2,29,-1
 361 532 l 1,30,-1
 313 529 l 2,31,32
 267 526 267 526 253 511 c 128,-1,33
 239 496 239 496 239 478 c 0,34,35
 239 440 239 440 283 440 c 0,26,27
EndSplineSet
EndChar

StartChar: guillemotleft
Encoding: 171 171 109
Width: 600
Flags: W
LayerCount: 2
Fore
SplineSet
440 48 m 1,0,-1
 274 267 l 1,1,-1
 274 281 l 1,2,-1
 440 500 l 1,3,-1
 540 447 l 1,4,-1
 421 274 l 1,5,-1
 540 102 l 1,6,-1
 440 48 l 1,0,-1
226 48 m 1,7,-1
 60 267 l 1,8,-1
 60 281 l 1,9,-1
 226 500 l 1,10,-1
 326 447 l 1,11,-1
 206 274 l 1,12,-1
 326 102 l 1,13,-1
 226 48 l 1,7,-1
EndSplineSet
EndChar

StartChar: logicalnot
Encoding: 172 172 110
Width: 600
Flags: W
LayerCount: 2
Fore
SplineSet
413 120 m 1,0,-1
 413 300 l 1,1,-1
 70 300 l 1,2,-1
 70 406 l 1,3,-1
 520 406 l 1,4,-1
 520 120 l 1,5,-1
 413 120 l 1,0,-1
EndSplineSet
EndChar

StartChar: registered
Encoding: 174 174 112
Width: 600
Flags: W
LayerCount: 2
Fore
SplineSet
298 78 m 0,0,1
 210 78 210 78 149.5 116 c 128,-1,2
 89 154 89 154 58 216 c 128,-1,3
 27 278 27 278 27 351 c 0,4,5
 27 428 27 428 60.5 489 c 128,-1,6
 94 550 94 550 155.5 586 c 128,-1,7
 217 622 217 622 300 622 c 0,8,9
 384 622 384 622 445 585.5 c 128,-1,10
 506 549 506 549 539.5 486.5 c 128,-1,11
 573 424 573 424 573 347 c 0,12,13
 573 266 573 266 538.5 205.5 c 128,-1,14
 504 145 504 145 442 111.5 c 128,-1,15
 380 78 380 78 298 78 c 0,0,1
298 143 m 0,16,17
 359 143 359 143 404.5 169.5 c 128,-1,18
 450 196 450 196 475 243.5 c 128,-1,19
 500 291 500 291 500 353 c 0,20,21
 500 416 500 416 474.5 461.5 c 128,-1,22
 449 507 449 507 403.5 532 c 128,-1,23
 358 557 358 557 300 557 c 0,24,25
 236 557 236 557 191.5 528.5 c 128,-1,26
 147 500 147 500 123.5 452.5 c 128,-1,27
 100 405 100 405 100 349 c 0,28,29
 100 292 100 292 123 245 c 128,-1,30
 146 198 146 198 190.5 170.5 c 128,-1,31
 235 143 235 143 298 143 c 0,16,17
192 196 m 1,32,-1
 192 511 l 1,33,-1
 290 511 l 2,34,35
 414 511 414 511 414 416 c 0,36,37
 414 382 414 382 401 361 c 128,-1,38
 388 340 388 340 366 330 c 1,39,-1
 425 196 l 1,40,-1
 347 196 l 1,41,-1
 301 317 l 1,42,-1
 264 317 l 1,43,-1
 264 196 l 1,44,-1
 192 196 l 1,32,-1
264 368 m 1,45,-1
 287 368 l 2,46,47
 310 368 310 368 323.5 379 c 128,-1,48
 337 390 337 390 337 415 c 0,49,50
 337 437 337 437 325.5 446 c 128,-1,51
 314 455 314 455 288 455 c 2,52,-1
 264 455 l 1,53,-1
 264 368 l 1,45,-1
EndSplineSet
EndChar

StartChar: overscore
Encoding: 175 175 113
Width: 600
Flags: W
LayerCount: 2
Fore
SplineSet
149 622 m 1,0,-1
 149 721 l 1,1,-1
 452 721 l 1,2,-1
 452 622 l 1,3,-1
 149 622 l 1,0,-1
EndSplineSet
EndChar

StartChar: degree
Encoding: 176 176 114
Width: 600
Flags: W
LayerCount: 2
Fore
SplineSet
300 409 m 0,0,1
 254 409 254 409 218 430 c 128,-1,2
 182 451 182 451 161.5 486.5 c 128,-1,3
 141 522 141 522 141 567 c 0,4,5
 141 611 141 611 162.5 646.5 c 128,-1,6
 184 682 184 682 220 703 c 128,-1,7
 256 724 256 724 300 724 c 256,8,9
 344 724 344 724 380.5 703 c 128,-1,10
 417 682 417 682 438.5 646 c 128,-1,11
 460 610 460 610 460 567 c 0,12,13
 460 522 460 522 440.5 486.5 c 128,-1,14
 421 451 421 451 385.5 430 c 128,-1,15
 350 409 350 409 300 409 c 0,0,1
300 495 m 0,16,17
 334 495 334 495 352 516 c 128,-1,18
 370 537 370 537 370 567 c 0,19,20
 370 599 370 599 349.5 619 c 128,-1,21
 329 639 329 639 300 639 c 256,22,23
 271 639 271 639 251 618.5 c 128,-1,24
 231 598 231 598 231 567 c 0,25,26
 231 537 231 537 249.5 516 c 128,-1,27
 268 495 268 495 300 495 c 0,16,17
EndSplineSet
EndChar

StartChar: plusminus
Encoding: 177 177 115
Width: 600
Flags: W
LayerCount: 2
Fore
SplineSet
248 155 m 1,0,-1
 248 337 l 1,1,-1
 72 337 l 1,2,-1
 72 443 l 1,3,-1
 248 443 l 1,4,-1
 248 627 l 1,5,-1
 355 627 l 1,6,-1
 355 443 l 1,7,-1
 530 443 l 1,8,-1
 530 337 l 1,9,-1
 355 337 l 1,10,-1
 355 155 l 1,11,-1
 248 155 l 1,0,-1
70 0 m 1,12,-1
 70 107 l 1,13,-1
 530 107 l 1,14,-1
 530 0 l 1,15,-1
 70 0 l 1,12,-1
EndSplineSet
EndChar

StartChar: uni00B2
Encoding: 178 178 116
Width: 600
Flags: W
LayerCount: 2
Fore
SplineSet
154 416 m 1,0,-1
 154 499 l 1,1,-1
 243 585 l 2,2,3
 266 608 266 608 288 628 c 128,-1,4
 310 648 310 648 323.5 669.5 c 128,-1,5
 337 691 337 691 337 718 c 0,6,7
 337 746 337 746 323 756 c 128,-1,8
 309 766 309 766 287 766 c 0,9,10
 263 766 263 766 242.5 755.5 c 128,-1,11
 222 745 222 745 200 723 c 1,12,-1
 150 792 l 1,13,14
 176 818 176 818 215.5 836 c 128,-1,15
 255 854 255 854 305 854 c 0,16,17
 364 854 364 854 401.5 824.5 c 128,-1,18
 439 795 439 795 439 728 c 0,19,20
 439 684 439 684 422.5 654.5 c 128,-1,21
 406 625 406 625 376.5 597.5 c 128,-1,22
 347 570 347 570 308 532 c 2,23,-1
 278 503 l 1,24,-1
 460 503 l 1,25,-1
 460 416 l 1,26,-1
 154 416 l 1,0,-1
EndSplineSet
EndChar

StartChar: uni00B3
Encoding: 179 179 117
Width: 600
Flags: W
LayerCount: 2
Fore
SplineSet
283 408 m 0,0,1
 206 408 206 408 152 440 c 1,2,-1
 152 533 l 1,3,4
 180 514 180 514 212.5 503 c 128,-1,5
 245 492 245 492 282 492 c 0,6,7
 349 492 349 492 349 542 c 0,8,9
 349 566 349 566 331.5 580.5 c 128,-1,10
 314 595 314 595 271 595 c 2,11,-1
 223 595 l 1,12,-1
 223 672 l 1,13,-1
 263 672 l 2,14,15
 306 672 306 672 322.5 687 c 128,-1,16
 339 702 339 702 339 725 c 0,17,18
 339 745 339 745 326.5 757.5 c 128,-1,19
 314 770 314 770 288 770 c 0,20,21
 242 770 242 770 196 733 c 1,22,-1
 150 799 l 1,23,24
 179 824 179 824 216.5 838.5 c 128,-1,25
 254 853 254 853 299 853 c 0,26,27
 360 853 360 853 398.5 823.5 c 128,-1,28
 437 794 437 794 437 743 c 0,29,30
 437 672 437 672 360 642 c 1,31,-1
 360 637 l 1,32,33
 405 626 405 626 427.5 598 c 128,-1,34
 450 570 450 570 450 530 c 0,35,36
 450 474 450 474 406 441 c 128,-1,37
 362 408 362 408 283 408 c 0,0,1
EndSplineSet
EndChar

StartChar: acute
Encoding: 180 180 118
Width: 600
Flags: W
LayerCount: 2
Fore
SplineSet
223 606 m 1,0,-1
 223 619 l 1,1,2
 248 653 248 653 275.5 692.5 c 128,-1,3
 303 732 303 732 322 766 c 1,4,-1
 480 766 l 1,5,-1
 480 757 l 1,6,7
 464 738 464 738 435 710 c 128,-1,8
 406 682 406 682 375 654 c 128,-1,9
 344 626 344 626 319 606 c 1,10,-1
 223 606 l 1,0,-1
EndSplineSet
EndChar

StartChar: uni00B5
Encoding: 181 181 119
Width: 600
GlyphClass: 2
Flags: W
AnchorPoint: "Anchor-4" 580 546 basechar 0
AnchorPoint: "Anchor-3" 300 546 basechar 0
AnchorPoint: "Anchor-2" 540 10 basechar 0
AnchorPoint: "Anchor-0" 300 0 basechar 0
LayerCount: 2
Fore
SplineSet
234 -10 m 0,0,1
 213 -10 213 -10 195 -7 c 1,2,-1
 195 -240 l 1,3,-1
 50 -240 l 1,4,-1
 50 546 l 1,5,-1
 195 546 l 1,6,-1
 195 227 l 2,7,8
 195 172 195 172 214 141 c 128,-1,9
 233 110 233 110 283 110 c 0,10,11
 330 110 330 110 355.5 132 c 128,-1,12
 381 154 381 154 390.5 194 c 128,-1,13
 400 234 400 234 400 289 c 2,14,-1
 400 546 l 1,15,-1
 545 546 l 1,16,-1
 545 0 l 1,17,-1
 435 0 l 1,18,-1
 411 70 l 1,19,-1
 403 70 l 1,20,21
 379 32 379 32 334.5 11 c 128,-1,22
 290 -10 290 -10 234 -10 c 0,0,1
EndSplineSet
EndChar

StartChar: paragraph
Encoding: 182 182 120
Width: 600
Flags: W
LayerCount: 2
Fore
SplineSet
326 -127 m 1,0,-1
 326 273 l 1,1,2
 299 264 299 264 259 264 c 0,3,4
 153 264 153 264 96.5 321 c 128,-1,5
 40 378 40 378 40 509 c 0,6,7
 40 643 40 643 101 701.5 c 128,-1,8
 162 760 162 760 274 760 c 2,9,-1
 550 760 l 1,10,-1
 550 -127 l 1,11,-1
 473 -127 l 1,12,-1
 473 676 l 1,13,-1
 402 676 l 1,14,-1
 402 -127 l 1,15,-1
 326 -127 l 1,0,-1
EndSplineSet
EndChar

StartChar: cedilla
Encoding: 184 184 122
Width: 600
Flags: W
LayerCount: 2
Fore
SplineSet
271 -240 m 0,0,1
 229 -240 229 -240 199 -231 c 1,2,-1
 199 -157 l 1,3,4
 224 -166 224 -166 251 -166 c 0,5,6
 274 -166 274 -166 289.5 -157 c 128,-1,7
 305 -148 305 -148 305 -126 c 256,8,9
 305 -104 305 -104 287 -94 c 128,-1,10
 269 -84 269 -84 230 -79 c 1,11,-1
 266 5 l 1,12,-1
 341 5 l 1,13,-1
 326 -35 l 1,14,15
 362 -44 362 -44 385.5 -68 c 128,-1,16
 409 -92 409 -92 409 -136 c 0,17,18
 409 -182 409 -182 377 -211 c 128,-1,19
 345 -240 345 -240 271 -240 c 0,0,1
EndSplineSet
EndChar

StartChar: uni00B9
Encoding: 185 185 123
Width: 600
Flags: W
LayerCount: 2
Fore
SplineSet
171 416 m 1,0,-1
 171 480 l 1,1,-1
 271 489 l 1,2,-1
 271 629 l 2,3,4
 271 652 271 652 271.5 684.5 c 128,-1,5
 272 717 272 717 274 736 c 1,6,7
 268 731 268 731 257.5 723.5 c 128,-1,8
 247 716 247 716 240 712 c 2,9,-1
 189 679 l 1,10,-1
 145 749 l 1,11,-1
 291 844 l 1,12,-1
 367 844 l 1,13,-1
 367 490 l 1,14,-1
 465 480 l 1,15,-1
 465 416 l 1,16,-1
 171 416 l 1,0,-1
EndSplineSet
EndChar

StartChar: ordmasculine
Encoding: 186 186 124
Width: 600
Flags: W
LayerCount: 2
Fore
SplineSet
298 369 m 0,0,1
 231 369 231 369 187.5 415 c 128,-1,2
 144 461 144 461 144 546 c 0,3,4
 144 630 144 630 186 676 c 128,-1,5
 228 722 228 722 300 722 c 0,6,7
 366 722 366 722 410.5 676 c 128,-1,8
 455 630 455 630 455 546 c 0,9,10
 455 461 455 461 412.5 415 c 128,-1,11
 370 369 370 369 298 369 c 0,0,1
299 446 m 256,12,13
 358 446 358 446 358 546 c 0,14,15
 358 645 358 645 299 645 c 256,16,17
 240 645 240 645 240 546 c 0,18,19
 240 446 240 446 299 446 c 256,12,13
EndSplineSet
EndChar

StartChar: AE
Encoding: 198 198 136
Width: 600
GlyphClass: 2
Flags: W
AnchorPoint: "Anchor-3" 331 714 basechar 0
AnchorPoint: "Anchor-0" 300 0 basechar 0
LayerCount: 2
Fore
SplineSet
10 0 m 1,0,-1
 180 714 l 1,1,-1
 570 714 l 1,2,-1
 570 590 l 1,3,-1
 430 590 l 1,4,-1
 430 433 l 1,5,-1
 552 433 l 1,6,-1
 552 309 l 1,7,-1
 430 309 l 1,8,-1
 430 124 l 1,9,-1
 570 124 l 1,10,-1
 570 0 l 1,11,-1
 309 0 l 1,12,-1
 309 176 l 1,13,-1
 183 176 l 1,14,-1
 144 0 l 1,15,-1
 10 0 l 1,0,-1
274 590 m 1,16,-1
 210 300 l 1,17,-1
 309 300 l 1,18,-1
 309 590 l 1,19,-1
 274 590 l 1,16,-1
EndSplineSet
Substitution2: "'c2sc' Capitals to Small Capitals lookup 32 subtable" ae.sc
Substitution2: "'aalt' Access All Alternates lookup 0 subtable" ae.sc
EndChar

StartChar: Eth
Encoding: 208 208 146
Width: 600
GlyphClass: 2
Flags: W
AnchorPoint: "Anchor-4" 600 714 basechar 0
AnchorPoint: "Anchor-3" 300 714 basechar 0
AnchorPoint: "Anchor-1" 305 357 basechar 0
AnchorPoint: "Anchor-0" 300 0 basechar 0
LayerCount: 2
Fore
SplineSet
45 0 m 1,0,-1
 45 293 l 1,1,-1
 0 293 l 1,2,-1
 0 413 l 1,3,-1
 45 413 l 1,4,-1
 45 714 l 1,5,-1
 266 714 l 2,6,7
 405 714 405 714 487.5 625.5 c 128,-1,8
 570 537 570 537 570 363 c 0,9,10
 570 188 570 188 485 94 c 128,-1,11
 400 0 400 0 255 0 c 2,12,-1
 45 0 l 1,0,-1
188 123 m 1,13,-1
 247 123 l 2,14,15
 338 123 338 123 380.5 182 c 128,-1,16
 423 241 423 241 423 362 c 0,17,18
 423 482 423 482 382 536.5 c 128,-1,19
 341 591 341 591 259 591 c 2,20,-1
 188 591 l 1,21,-1
 188 413 l 1,22,-1
 294 413 l 1,23,-1
 294 293 l 1,24,-1
 188 293 l 1,25,-1
 188 123 l 1,13,-1
EndSplineSet
Substitution2: "'c2sc' Capitals to Small Capitals lookup 32 subtable" eth.sc
Substitution2: "'aalt' Access All Alternates lookup 0 subtable" eth.sc
EndChar

StartChar: multiply
Encoding: 215 215 153
Width: 600
Flags: W
LayerCount: 2
Fore
SplineSet
156 133 m 1,0,-1
 81 210 l 1,1,-1
 222 353 l 1,2,-1
 80 495 l 1,3,-1
 156 573 l 1,4,-1
 300 432 l 1,5,-1
 444 573 l 1,6,-1
 521 497 l 1,7,-1
 377 353 l 1,8,-1
 519 209 l 1,9,-1
 443 133 l 1,10,-1
 300 276 l 1,11,-1
 156 133 l 1,0,-1
EndSplineSet
EndChar

StartChar: Oslash
Encoding: 216 216 154
Width: 600
GlyphClass: 2
Flags: W
AnchorPoint: "Anchor-4" 600 714 basechar 0
AnchorPoint: "Anchor-3" 300 714 basechar 0
AnchorPoint: "Anchor-2" 297 10 basechar 0
AnchorPoint: "Anchor-1" 300 357 basechar 0
AnchorPoint: "Anchor-0" 300 0 basechar 0
LayerCount: 2
Fore
SplineSet
90 -43 m 1,0,-1
 13 9 l 1,1,-1
 81 110 l 1,2,3
 55 156 55 156 42.5 218.5 c 128,-1,4
 30 281 30 281 30 358 c 0,5,6
 30 532 30 532 95 629 c 128,-1,7
 160 726 160 726 300 726 c 0,8,9
 398 726 398 726 461 676 c 1,10,-1
 512 751 l 1,11,-1
 588 701 l 1,12,-1
 521 602 l 1,13,14
 546 556 546 556 558 494.5 c 128,-1,15
 570 433 570 433 570 358 c 0,16,17
 570 185 570 185 505 87.5 c 128,-1,18
 440 -10 440 -10 300 -10 c 0,19,20
 205 -10 205 -10 143 37 c 1,21,-1
 90 -43 l 1,0,-1
177 358 m 0,22,23
 177 303 177 303 183 261 c 1,24,-1
 383 559 l 1,25,26
 353 601 353 601 300 601 c 0,27,28
 235 601 235 601 206 539 c 128,-1,29
 177 477 177 477 177 358 c 0,22,23
300 115 m 0,30,31
 364 115 364 115 393.5 176 c 128,-1,32
 423 237 423 237 423 359 c 0,33,34
 423 409 423 409 418 447 c 1,35,-1
 221 152 l 1,36,37
 250 115 250 115 300 115 c 0,30,31
EndSplineSet
Substitution2: "'c2sc' Capitals to Small Capitals lookup 32 subtable" oslash.sc
Substitution2: "'aalt' Access All Alternates lookup 0 subtable" oslash.sc
EndChar

StartChar: Thorn
Encoding: 222 222 160
Width: 600
GlyphClass: 2
Flags: W
AnchorPoint: "Anchor-3" 300 714 basechar 0
AnchorPoint: "Anchor-0" 300 0 basechar 0
LayerCount: 2
Fore
SplineSet
80 0 m 1,0,-1
 80 714 l 1,1,-1
 220 714 l 1,2,-1
 220 594 l 1,3,-1
 317 594 l 2,4,5
 440 594 440 594 500 536 c 128,-1,6
 560 478 560 478 560 372 c 0,7,8
 560 301 560 301 534.5 247.5 c 128,-1,9
 509 194 509 194 453.5 164 c 128,-1,10
 398 134 398 134 308 134 c 2,11,-1
 220 134 l 1,12,-1
 220 0 l 1,13,-1
 80 0 l 1,0,-1
220 257 m 1,14,-1
 293 257 l 2,15,16
 355 257 355 257 385.5 285.5 c 128,-1,17
 416 314 416 314 416 366 c 0,18,19
 416 419 416 419 391 445 c 128,-1,20
 366 471 366 471 312 471 c 2,21,-1
 220 471 l 1,22,-1
 220 257 l 1,14,-1
EndSplineSet
Substitution2: "'c2sc' Capitals to Small Capitals lookup 32 subtable" thorn.sc
Substitution2: "'aalt' Access All Alternates lookup 0 subtable" thorn.sc
EndChar

StartChar: germandbls
Encoding: 223 223 161
Width: 600
GlyphClass: 2
Flags: W
AnchorPoint: "Anchor-3" 300 765 basechar 0
AnchorPoint: "Anchor-0" 300 0 basechar 0
LayerCount: 2
Fore
SplineSet
373 -10 m 0,0,1
 337 -10 337 -10 304 -3 c 128,-1,2
 271 4 271 4 243 20 c 1,3,-1
 243 143 l 1,4,5
 266 126 266 126 298.5 114.5 c 128,-1,6
 331 103 331 103 362 103 c 0,7,8
 428 103 428 103 428 161 c 0,9,10
 428 178 428 178 421 189.5 c 128,-1,11
 414 201 414 201 397 214.5 c 128,-1,12
 380 228 380 228 350 249 c 0,13,14
 300 284 300 284 278.5 315 c 128,-1,15
 257 346 257 346 257 385 c 0,16,17
 257 417 257 417 268.5 439 c 128,-1,18
 280 461 280 461 297.5 478 c 128,-1,19
 315 495 315 495 332.5 510 c 128,-1,20
 350 525 350 525 361.5 542.5 c 128,-1,21
 373 560 373 560 373 584 c 0,22,23
 373 617 373 617 349.5 632.5 c 128,-1,24
 326 648 326 648 292 648 c 0,25,26
 243 648 243 648 219.5 621 c 128,-1,27
 196 594 196 594 196 545 c 2,28,-1
 196 0 l 1,29,-1
 55 0 l 1,30,-1
 55 554 l 2,31,32
 55 657 55 657 118.5 711 c 128,-1,33
 182 765 182 765 289 765 c 0,34,35
 353 765 353 765 404 746 c 128,-1,36
 455 727 455 727 484.5 690 c 128,-1,37
 514 653 514 653 514 600 c 0,38,39
 514 556 514 556 496 526.5 c 128,-1,40
 478 497 478 497 455 476.5 c 128,-1,41
 432 456 432 456 414 439.5 c 128,-1,42
 396 423 396 423 396 404 c 0,43,44
 396 382 396 382 420.5 363.5 c 128,-1,45
 445 345 445 345 476 322 c 0,46,47
 520 289 520 289 545.5 255 c 128,-1,48
 571 221 571 221 571 160 c 0,49,50
 571 78 571 78 520.5 34 c 128,-1,51
 470 -10 470 -10 373 -10 c 0,0,1
EndSplineSet
Substitution2: "'smcp' Lowercase to Small Capitals lookup 33 subtable" germandbls.sc
Substitution2: "'aalt' Access All Alternates lookup 0 subtable" germandbls.sc
EndChar

StartChar: ae
Encoding: 230 230 168
Width: 600
GlyphClass: 2
Flags: W
AnchorPoint: "Anchor-3" 300 546 basechar 0
AnchorPoint: "Anchor-0" 300 0 basechar 0
LayerCount: 2
Fore
SplineSet
149 -10 m 0,0,1
 81 -10 81 -10 45.5 33 c 128,-1,2
 10 76 10 76 10 157 c 0,3,4
 10 245 10 245 52.5 287 c 128,-1,5
 95 329 95 329 178 332 c 2,6,-1
 240 334 l 1,7,-1
 240 377 l 2,8,9
 240 440 240 440 167 440 c 0,10,11
 131 440 131 440 82 419 c 1,12,-1
 37 516 l 1,13,14
 104 556 104 556 183 556 c 256,15,16
 262 556 262 556 310 508 c 1,17,18
 336 533 336 533 366 544.5 c 128,-1,19
 396 556 396 556 428 556 c 0,20,21
 484 556 484 556 520 523.5 c 128,-1,22
 556 491 556 491 573 434.5 c 128,-1,23
 590 378 590 378 590 306 c 2,24,-1
 590 239 l 1,25,-1
 361 239 l 1,26,27
 362 168 362 168 394 134 c 128,-1,28
 426 100 426 100 475 100 c 0,29,30
 500 100 500 100 522 109 c 128,-1,31
 544 118 544 118 567 136 c 1,32,-1
 567 28 l 1,33,34
 521 -10 521 -10 454 -10 c 0,35,36
 402 -10 402 -10 359.5 12 c 128,-1,37
 317 34 317 34 291 78 c 1,38,39
 265 35 265 35 231.5 12.5 c 128,-1,40
 198 -10 198 -10 149 -10 c 0,0,1
364 331 m 1,41,-1
 469 331 l 1,42,43
 466 440 466 440 418 440 c 0,44,45
 390 440 390 440 377 410 c 128,-1,46
 364 380 364 380 364 331 c 1,41,-1
183 101 m 0,47,48
 212 101 212 101 226 130.5 c 128,-1,49
 240 160 240 160 240 207 c 2,50,-1
 240 251 l 1,51,-1
 207 251 l 2,52,53
 172 251 172 251 154.5 227.5 c 128,-1,54
 137 204 137 204 137 167 c 0,55,56
 137 132 137 132 150 116.5 c 128,-1,57
 163 101 163 101 183 101 c 0,47,48
EndSplineSet
Substitution2: "'smcp' Lowercase to Small Capitals lookup 33 subtable" ae.sc
Substitution2: "'aalt' Access All Alternates lookup 0 subtable" ae.sc
EndChar

StartChar: eth
Encoding: 240 240 178
Width: 600
GlyphClass: 2
Flags: W
AnchorPoint: "Anchor-4" 580 760 basechar 0
AnchorPoint: "Anchor-3" 300 765 basechar 0
AnchorPoint: "Anchor-1" 300 273 basechar 0
AnchorPoint: "Anchor-0" 300 0 basechar 0
LayerCount: 2
Fore
SplineSet
295 -10 m 0,0,1
 220 -10 220 -10 162.5 19 c 128,-1,2
 105 48 105 48 72.5 103.5 c 128,-1,3
 40 159 40 159 40 238 c 256,4,5
 40 317 40 317 69 372 c 128,-1,6
 98 427 98 427 150 456 c 128,-1,7
 202 485 202 485 269 485 c 0,8,9
 369 485 369 485 405 436 c 1,10,-1
 409 438 l 1,11,12
 392 479 392 479 367 513.5 c 128,-1,13
 342 548 342 548 310 578 c 1,14,-1
 198 509 l 1,15,-1
 151 583 l 1,16,-1
 237 636 l 1,17,18
 219 648 219 648 200.5 659.5 c 128,-1,19
 182 671 182 671 163 682 c 1,20,-1
 211 765 l 1,21,22
 280 736 280 736 337 697 c 1,23,-1
 448 764 l 1,24,-1
 496 691 l 1,25,-1
 409 638 l 1,26,27
 560 493 560 493 560 280 c 0,28,29
 560 140 560 140 488.5 65 c 128,-1,30
 417 -10 417 -10 295 -10 c 0,0,1
297 96 m 0,31,32
 359 96 359 96 386.5 137 c 128,-1,33
 414 178 414 178 414 259 c 0,34,35
 414 306 414 306 385.5 342.5 c 128,-1,36
 357 379 357 379 297 379 c 256,37,38
 237 379 237 379 211.5 343.5 c 128,-1,39
 186 308 186 308 186 237 c 0,40,41
 186 175 186 175 212 135.5 c 128,-1,42
 238 96 238 96 297 96 c 0,31,32
EndSplineSet
Substitution2: "'smcp' Lowercase to Small Capitals lookup 33 subtable" eth.sc
Substitution2: "'aalt' Access All Alternates lookup 0 subtable" eth.sc
EndChar

StartChar: divide
Encoding: 247 247 185
Width: 600
Flags: W
LayerCount: 2
Fore
SplineSet
301 458 m 0,0,1
 271 458 271 458 252 476.5 c 128,-1,2
 233 495 233 495 233 533 c 0,3,4
 233 572 233 572 251.5 590 c 128,-1,5
 270 608 270 608 301 608 c 0,6,7
 331 608 331 608 349.5 590 c 128,-1,8
 368 572 368 572 368 533 c 0,9,10
 368 495 368 495 349 476.5 c 128,-1,11
 330 458 330 458 301 458 c 0,0,1
70 300 m 1,12,-1
 70 406 l 1,13,-1
 530 406 l 1,14,-1
 530 300 l 1,15,-1
 70 300 l 1,12,-1
301 97 m 0,16,17
 271 97 271 97 252 116 c 128,-1,18
 233 135 233 135 233 173 c 0,19,20
 233 212 233 212 251.5 230 c 128,-1,21
 270 248 270 248 301 248 c 0,22,23
 331 248 331 248 349.5 230 c 128,-1,24
 368 212 368 212 368 173 c 0,25,26
 368 135 368 135 349 116 c 128,-1,27
 330 97 330 97 301 97 c 0,16,17
EndSplineSet
EndChar

StartChar: oslash
Encoding: 248 248 186
Width: 600
GlyphClass: 2
Flags: W
AnchorPoint: "Anchor-4" 580 546 basechar 0
AnchorPoint: "Anchor-3" 300 546 basechar 0
AnchorPoint: "Anchor-2" 305 10 basechar 0
AnchorPoint: "Anchor-1" 300 273 basechar 0
AnchorPoint: "Anchor-0" 300 0 basechar 0
LayerCount: 2
Fore
SplineSet
147 -37 m 1,0,-1
 74 13 l 1,1,-1
 110 66 l 1,2,3
 40 141 40 141 40 271 c 0,4,5
 40 358 40 358 71.5 422 c 128,-1,6
 103 486 103 486 161.5 521 c 128,-1,7
 220 556 220 556 302 556 c 0,8,9
 371 556 371 556 424 530 c 1,10,-1
 455 576 l 1,11,-1
 528 524 l 1,12,-1
 495 476 l 1,13,14
 526 439 526 439 543 388 c 128,-1,15
 560 337 560 337 560 273 c 0,16,17
 560 188 560 188 530 124.5 c 128,-1,18
 500 61 500 61 442 25.5 c 128,-1,19
 384 -10 384 -10 300 -10 c 0,20,21
 234 -10 234 -10 181 14 c 1,22,-1
 147 -37 l 1,0,-1
187 273 m 0,23,24
 187 228 187 228 197 194 c 1,25,-1
 354 426 l 1,26,27
 332 439 332 439 302 439 c 0,28,29
 244 439 244 439 215.5 394.5 c 128,-1,30
 187 350 187 350 187 273 c 0,23,24
302 107 m 0,31,32
 359 107 359 107 386 151.5 c 128,-1,33
 413 196 413 196 413 273 c 0,34,35
 413 313 413 313 406 344 c 1,36,-1
 252 118 l 1,37,38
 274 107 274 107 302 107 c 0,31,32
EndSplineSet
Substitution2: "'smcp' Lowercase to Small Capitals lookup 33 subtable" oslash.sc
Substitution2: "'aalt' Access All Alternates lookup 0 subtable" oslash.sc
EndChar

StartChar: thorn
Encoding: 254 254 192
Width: 600
GlyphClass: 2
Flags: W
AnchorPoint: "Anchor-3" 330 760 basechar 0
AnchorPoint: "Anchor-0" 330 -240 basechar 0
LayerCount: 2
Fore
SplineSet
55 -240 m 1,0,-1
 55 760 l 1,1,-1
 197 760 l 1,2,-1
 197 563 l 2,3,4
 197 541 197 541 195.5 519 c 128,-1,5
 194 497 194 497 192 475 c 1,6,-1
 197 475 l 1,7,8
 223 516 223 516 265.5 536 c 128,-1,9
 308 556 308 556 358 556 c 0,10,11
 428 556 428 556 473 518 c 128,-1,12
 518 480 518 480 539 416 c 128,-1,13
 560 352 560 352 560 274 c 0,14,15
 560 140 560 140 504 65 c 128,-1,16
 448 -10 448 -10 353 -10 c 0,17,18
 308 -10 308 -10 266.5 8 c 128,-1,19
 225 26 225 26 197 60 c 1,20,-1
 190 60 l 1,21,22
 194 26 194 26 195.5 6 c 128,-1,23
 197 -14 197 -14 197 -19 c 2,24,-1
 197 -240 l 1,25,-1
 55 -240 l 1,0,-1
308 110 m 0,26,27
 360 110 360 110 385 149.5 c 128,-1,28
 410 189 410 189 410 276 c 0,29,30
 410 354 410 354 385.5 395 c 128,-1,31
 361 436 361 436 307 436 c 0,32,33
 254 436 254 436 225.5 398 c 128,-1,34
 197 360 197 360 197 291 c 2,35,-1
 197 275 l 2,36,37
 197 190 197 190 226 150 c 128,-1,38
 255 110 255 110 308 110 c 0,26,27
EndSplineSet
Substitution2: "'smcp' Lowercase to Small Capitals lookup 33 subtable" thorn.sc
Substitution2: "'aalt' Access All Alternates lookup 0 subtable" thorn.sc
EndChar

StartChar: dcaron
Encoding: 271 271 209
Width: 600
GlyphClass: 2
Flags: W
AnchorPoint: "Anchor-4" 520 760 basechar 0
AnchorPoint: "Anchor-3" 281 760 basechar 0
AnchorPoint: "Anchor-1" 240 273 basechar 0
AnchorPoint: "Anchor-0" 240 0 basechar 0
LayerCount: 2
Fore
SplineSet
212 -10 m 0,0,1
 148 -10 148 -10 108 28 c 128,-1,2
 68 66 68 66 49 130 c 128,-1,3
 30 194 30 194 30 273 c 0,4,5
 30 355 30 355 50.5 419 c 128,-1,6
 71 483 71 483 113.5 519.5 c 128,-1,7
 156 556 156 556 223 556 c 0,8,9
 270 556 270 556 300.5 536 c 128,-1,10
 331 516 331 516 359 476 c 1,11,-1
 364 476 l 1,12,13
 359 507 359 507 356 535.5 c 128,-1,14
 353 564 353 564 353 596 c 2,15,-1
 353 760 l 1,16,-1
 495 760 l 1,17,-1
 495 0 l 1,18,-1
 385 0 l 1,19,-1
 355 71 l 1,20,-1
 349 71 l 1,21,22
 298 -10 298 -10 212 -10 c 0,0,1
517 600 m 1,23,-1
 517 613 l 1,24,25
 525 642 525 642 534 685 c 128,-1,26
 543 728 543 728 547 760 c 1,27,-1
 680 760 l 1,28,-1
 680 750 l 1,29,30
 666 718 666 718 646 678.5 c 128,-1,31
 626 639 626 639 600 600 c 1,32,-1
 517 600 l 1,23,-1
267 110 m 0,33,34
 313 110 313 110 338.5 146.5 c 128,-1,35
 364 183 364 183 364 255 c 2,36,-1
 364 271 l 2,37,38
 364 348 364 348 343.5 392 c 128,-1,39
 323 436 323 436 268 436 c 0,40,41
 231 436 231 436 211.5 416 c 128,-1,42
 192 396 192 396 184.5 361 c 128,-1,43
 177 326 177 326 177 280 c 0,44,45
 177 188 177 188 199.5 149 c 128,-1,46
 222 110 222 110 267 110 c 0,33,34
EndSplineSet
Substitution2: "'smcp' Lowercase to Small Capitals lookup 33 subtable" dcaron.sc
Substitution2: "'aalt' Access All Alternates lookup 0 subtable" dcaron.sc
EndChar

StartChar: dcroat
Encoding: 273 273 211
Width: 600
GlyphClass: 2
Flags: W
AnchorPoint: "Anchor-4" 580 760 basechar 0
AnchorPoint: "Anchor-3" 300 760 basechar 0
AnchorPoint: "Anchor-1" 300 273 basechar 0
AnchorPoint: "Anchor-0" 300 0 basechar 0
LayerCount: 2
Fore
SplineSet
243 -10 m 0,0,1
 172 -10 172 -10 127 27 c 128,-1,2
 82 64 82 64 61 127 c 128,-1,3
 40 190 40 190 40 268 c 0,4,5
 40 348 40 348 62.5 411 c 128,-1,6
 85 474 85 474 132.5 510 c 128,-1,7
 180 546 180 546 254 546 c 0,8,9
 306 546 306 546 344 526 c 128,-1,10
 382 506 382 506 409 466 c 1,11,-1
 414 466 l 1,12,13
 409 495 409 495 406 522.5 c 128,-1,14
 403 550 403 550 403 586 c 1,15,-1
 261 586 l 1,16,-1
 261 680 l 1,17,-1
 403 680 l 1,18,-1
 403 760 l 1,19,-1
 545 760 l 1,20,-1
 545 680 l 1,21,-1
 600 680 l 1,22,-1
 600 586 l 1,23,-1
 545 586 l 1,24,-1
 545 0 l 1,25,-1
 435 0 l 1,26,-1
 405 71 l 1,27,-1
 399 71 l 1,28,29
 374 30 374 30 333 10 c 128,-1,30
 292 -10 292 -10 243 -10 c 0,0,1
300 110 m 0,31,32
 414 110 414 110 414 250 c 2,33,-1
 414 266 l 2,34,35
 414 312 414 312 404.5 348.5 c 128,-1,36
 395 385 395 385 371.5 405.5 c 128,-1,37
 348 426 348 426 305 426 c 0,38,39
 187 426 187 426 187 262 c 0,40,41
 187 182 187 182 215 146 c 128,-1,42
 243 110 243 110 300 110 c 0,31,32
EndSplineSet
Substitution2: "'smcp' Lowercase to Small Capitals lookup 33 subtable" dcroat.sc
Substitution2: "'aalt' Access All Alternates lookup 0 subtable" dcroat.sc
EndChar

StartChar: eogonek
Encoding: 281 281 219
Width: 600
GlyphClass: 2
Flags: W
AnchorPoint: "Anchor-4" 580 546 basechar 0
AnchorPoint: "Anchor-3" 300 546 basechar 0
AnchorPoint: "Anchor-2" 310 10 basechar 0
AnchorPoint: "Anchor-0" 320 -237 basechar 0
LayerCount: 2
Fore
SplineSet
351 -10 m 0,0,1
 207 -10 207 -10 128.5 64 c 128,-1,2
 50 138 50 138 50 276 c 0,3,4
 50 361 50 361 80 424 c 128,-1,5
 110 487 110 487 168 521.5 c 128,-1,6
 226 556 226 556 308 556 c 0,7,8
 424 556 424 556 487 489 c 128,-1,9
 550 422 550 422 550 303 c 2,10,-1
 550 231 l 1,11,-1
 191 231 l 1,12,13
 192 190 192 190 215 163 c 128,-1,14
 238 136 238 136 276 122.5 c 128,-1,15
 314 109 314 109 359 109 c 0,16,17
 398 109 398 109 441 118.5 c 128,-1,18
 484 128 484 128 534 146 c 1,19,-1
 534 29 l 1,20,21
 434 -34 434 -34 434 -102 c 0,22,23
 434 -149 434 -149 476 -149 c 0,24,25
 488 -149 488 -149 500 -146 c 128,-1,26
 512 -143 512 -143 520 -140 c 1,27,-1
 520 -225 l 1,28,29
 507 -230 507 -230 489.5 -233.5 c 128,-1,30
 472 -237 472 -237 453 -237 c 0,31,32
 394 -237 394 -237 363 -206.5 c 128,-1,33
 332 -176 332 -176 332 -127 c 0,34,35
 332 -91 332 -91 347.5 -62 c 128,-1,36
 363 -33 363 -33 386 -9 c 1,37,38
 369 -10 369 -10 351 -10 c 0,0,1
194 330 m 1,39,-1
 420 330 l 1,40,41
 419 383 419 383 388.5 414 c 128,-1,42
 358 445 358 445 311 445 c 0,43,44
 265 445 265 445 232 415.5 c 128,-1,45
 199 386 199 386 194 330 c 1,39,-1
EndSplineSet
Substitution2: "'smcp' Lowercase to Small Capitals lookup 33 subtable" eogonek.sc
Substitution2: "'locl' Localized Forms in Latin lookup 11 subtable" eogonek.loclNAV
Ligature2: "'ccmp' Glyph Composition/Decomposition lookup 6 subtable" e uni0328
AlternateSubs2: "'aalt' Access All Alternates lookup 1 subtable" eogonek.loclNAV eogonek.sc
EndChar

StartChar: Hbar
Encoding: 294 294 232
Width: 600
GlyphClass: 2
Flags: W
AnchorPoint: "Anchor-3" 300 714 basechar 0
AnchorPoint: "Anchor-1" 300 357 basechar 0
AnchorPoint: "Anchor-0" 300 0 basechar 0
LayerCount: 2
Fore
SplineSet
57 0 m 1,0,-1
 57 522 l 1,1,-1
 0 522 l 1,2,-1
 0 617 l 1,3,-1
 57 617 l 1,4,-1
 57 714 l 1,5,-1
 202 714 l 1,6,-1
 202 617 l 1,7,-1
 399 617 l 1,8,-1
 399 714 l 1,9,-1
 544 714 l 1,10,-1
 544 617 l 1,11,-1
 600 617 l 1,12,-1
 600 522 l 1,13,-1
 544 522 l 1,14,-1
 544 0 l 1,15,-1
 399 0 l 1,16,-1
 399 310 l 1,17,-1
 202 310 l 1,18,-1
 202 0 l 1,19,-1
 57 0 l 1,0,-1
202 435 m 1,20,-1
 399 435 l 1,21,-1
 399 522 l 1,22,-1
 202 522 l 1,23,-1
 202 435 l 1,20,-1
EndSplineSet
Substitution2: "'c2sc' Capitals to Small Capitals lookup 32 subtable" hbar.sc
Substitution2: "'aalt' Access All Alternates lookup 0 subtable" hbar.sc
EndChar

StartChar: hbar
Encoding: 295 295 233
Width: 600
GlyphClass: 2
Flags: W
AnchorPoint: "Anchor-3" 129 760 basechar 0
AnchorPoint: "Anchor-1" 300 273 basechar 0
AnchorPoint: "Anchor-0" 300 0 basechar 0
LayerCount: 2
Fore
SplineSet
55 0 m 1,0,-1
 55 586 l 1,1,-1
 0 586 l 1,2,-1
 0 680 l 1,3,-1
 55 680 l 1,4,-1
 55 760 l 1,5,-1
 200 760 l 1,6,-1
 200 680 l 1,7,-1
 348 680 l 1,8,-1
 348 586 l 1,9,-1
 200 586 l 1,10,11
 200 526 200 526 197 466 c 1,12,-1
 205 466 l 1,13,14
 230 505 230 505 266 525.5 c 128,-1,15
 302 546 302 546 360 546 c 0,16,17
 452 546 452 546 501 494.5 c 128,-1,18
 550 443 550 443 550 346 c 2,19,-1
 550 0 l 1,20,-1
 405 0 l 1,21,-1
 405 309 l 2,22,23
 405 376 405 376 380 401 c 128,-1,24
 355 426 355 426 312 426 c 0,25,26
 254 426 254 426 227 384 c 128,-1,27
 200 342 200 342 200 247 c 2,28,-1
 200 0 l 1,29,-1
 55 0 l 1,0,-1
EndSplineSet
Substitution2: "'smcp' Lowercase to Small Capitals lookup 33 subtable" hbar.sc
Substitution2: "'aalt' Access All Alternates lookup 0 subtable" hbar.sc
EndChar

StartChar: IJ
Encoding: 306 306 243
Width: 600
GlyphClass: 2
LigCaretCntFixed: 1
Flags: W
AnchorPoint: "Anchor-3" 300 714 basechar 0
AnchorPoint: "Anchor-0" 300 0 basechar 0
LayerCount: 2
Fore
SplineSet
253 -10 m 0,0,1
 215 -10 215 -10 171 -5 c 128,-1,2
 127 0 127 0 86 11 c 1,3,-1
 86 135 l 1,4,5
 139 124 139 124 176 120 c 128,-1,6
 213 116 213 116 241 116 c 0,7,8
 312 116 312 116 342.5 146.5 c 128,-1,9
 373 177 373 177 373 245 c 2,10,-1
 373 714 l 1,11,-1
 515 714 l 1,12,-1
 515 246 l 2,13,14
 515 120 515 120 453.5 55 c 128,-1,15
 392 -10 392 -10 253 -10 c 0,0,1
85 216 m 1,16,-1
 85 714 l 1,17,-1
 224 714 l 1,18,-1
 224 216 l 1,19,-1
 85 216 l 1,16,-1
EndSplineSet
Substitution2: "'c2sc' Capitals to Small Capitals lookup 32 subtable" ij.sc
Substitution2: "'aalt' Access All Alternates lookup 0 subtable" ij.sc
LCarets2: 1 0
EndChar

StartChar: ij
Encoding: 307 307 244
Width: 600
GlyphClass: 2
LigCaretCntFixed: 1
Flags: W
AnchorPoint: "Anchor-3" 300 776 basechar 0
AnchorPoint: "Anchor-0" 306 -245 basechar 0
LayerCount: 2
Fore
SplineSet
162 608 m 0,0,1
 75 608 75 608 75 692 c 256,2,3
 75 776 75 776 164 776 c 0,4,5
 252 776 252 776 252 693 c 0,6,7
 252 608 252 608 162 608 c 0,0,1
435 608 m 0,8,9
 348 608 348 608 348 692 c 256,10,11
 348 776 348 776 437 776 c 0,12,13
 525 776 525 776 525 693 c 0,14,15
 525 608 525 608 435 608 c 0,8,9
276 -245 m 0,16,17
 240 -245 240 -245 199 -239.5 c 128,-1,18
 158 -234 158 -234 120 -223 c 1,19,-1
 120 -100 l 1,20,21
 155 -110 155 -110 192 -114.5 c 128,-1,22
 229 -119 229 -119 254 -119 c 0,23,24
 313 -119 313 -119 338.5 -90.5 c 128,-1,25
 364 -62 364 -62 364 9 c 2,26,-1
 364 546 l 1,27,-1
 509 546 l 1,28,-1
 509 -19 l 2,29,30
 509 -135 509 -135 451 -190 c 128,-1,31
 393 -245 393 -245 276 -245 c 0,16,17
89 0 m 1,32,-1
 89 546 l 1,33,-1
 234 546 l 1,34,-1
 234 0 l 1,35,-1
 89 0 l 1,32,-1
EndSplineSet
Substitution2: "'smcp' Lowercase to Small Capitals lookup 33 subtable" ij.sc
Substitution2: "'aalt' Access All Alternates lookup 0 subtable" ij.sc
LCarets2: 1 0
EndChar

StartChar: kgreenlandic
Encoding: 312 312 249
Width: 600
GlyphClass: 2
Flags: W
AnchorPoint: "Anchor-3" 300 546 basechar 0
AnchorPoint: "Anchor-0" 300 0 basechar 0
LayerCount: 2
Fore
SplineSet
60 0 m 1,0,-1
 60 546 l 1,1,-1
 205 546 l 1,2,-1
 205 409 l 2,3,4
 205 378 205 378 203 352 c 128,-1,5
 201 326 201 326 197 295 c 1,6,-1
 199 295 l 1,7,8
 213 316 213 316 230 338 c 128,-1,9
 247 360 247 360 265 382 c 2,10,-1
 404 546 l 1,11,-1
 572 546 l 1,12,-1
 372 319 l 1,13,-1
 585 0 l 1,14,-1
 429 0 l 1,15,-1
 282 227 l 1,16,-1
 205 168 l 1,17,-1
 205 0 l 1,18,-1
 60 0 l 1,0,-1
EndSplineSet
EndChar

StartChar: Lslash
Encoding: 321 321 258
Width: 600
GlyphClass: 2
Flags: W
AnchorPoint: "Anchor-4" 494 714 basechar 0
AnchorPoint: "Anchor-3" 205 714 basechar 0
AnchorPoint: "Anchor-1" 340 357 basechar 0
AnchorPoint: "Anchor-0" 357 0 basechar 0
LayerCount: 2
Fore
SplineSet
130 0 m 1,0,-1
 130 242 l 1,1,-1
 93 220 l 1,2,-1
 40 312 l 1,3,-1
 130 367 l 1,4,-1
 130 714 l 1,5,-1
 275 714 l 1,6,-1
 275 455 l 1,7,-1
 350 501 l 1,8,-1
 405 408 l 1,9,-1
 275 330 l 1,10,-1
 275 128 l 1,11,-1
 570 128 l 1,12,-1
 570 0 l 1,13,-1
 130 0 l 1,0,-1
EndSplineSet
Substitution2: "'c2sc' Capitals to Small Capitals lookup 32 subtable" lslash.sc
Substitution2: "'aalt' Access All Alternates lookup 0 subtable" lslash.sc
EndChar

StartChar: lslash
Encoding: 322 322 259
Width: 600
GlyphClass: 2
Flags: W
AnchorPoint: "Anchor-4" 498 760 basechar 0
AnchorPoint: "Anchor-3" 300 760 basechar 0
AnchorPoint: "Anchor-1" 315 376 basechar 0
AnchorPoint: "Anchor-0" 300 0 basechar 0
LayerCount: 2
Fore
SplineSet
60 0 m 1,0,-1
 60 90 l 1,1,-1
 240 120 l 1,2,-1
 240 252 l 1,3,-1
 169 209 l 1,4,-1
 116 301 l 1,5,-1
 240 377 l 1,6,-1
 240 640 l 1,7,-1
 95 670 l 1,8,-1
 95 760 l 1,9,-1
 385 760 l 1,10,-1
 385 466 l 1,11,-1
 448 505 l 1,12,-1
 503 413 l 1,13,-1
 385 341 l 1,14,-1
 385 120 l 1,15,-1
 550 90 l 1,16,-1
 550 0 l 1,17,-1
 60 0 l 1,0,-1
EndSplineSet
Substitution2: "'smcp' Lowercase to Small Capitals lookup 33 subtable" lslash.sc
Substitution2: "'aalt' Access All Alternates lookup 0 subtable" lslash.sc
EndChar

StartChar: napostrophe
Encoding: 329 329 266
Width: 600
GlyphClass: 2
Flags: W
AnchorPoint: "Anchor-3" 309 546 basechar 0
AnchorPoint: "Anchor-0" 309 0 basechar 0
LayerCount: 2
Fore
SplineSet
-114 469 m 1,0,1
 -97 541 -97 541 -84.5 602.5 c 128,-1,2
 -72 664 -72 664 -65 714 c 1,3,-1
 72 714 l 1,4,-1
 79 703 l 1,5,6
 67 655 67 655 45.5 596.5 c 128,-1,7
 24 538 24 538 -7 469 c 1,8,-1
 -114 469 l 1,0,1
65 0 m 1,9,-1
 65 546 l 1,10,-1
 175 546 l 1,11,-1
 199 476 l 1,12,-1
 207 476 l 1,13,14
 255 556 255 556 367 556 c 0,15,16
 456 556 456 556 503 504.5 c 128,-1,17
 550 453 550 453 550 356 c 2,18,-1
 550 0 l 1,19,-1
 405 0 l 1,20,-1
 405 319 l 2,21,22
 405 436 405 436 318 436 c 0,23,24
 261 436 261 436 235.5 388 c 128,-1,25
 210 340 210 340 210 257 c 2,26,-1
 210 0 l 1,27,-1
 65 0 l 1,9,-1
EndSplineSet
EndChar

StartChar: Eng
Encoding: 330 330 267
Width: 600
GlyphClass: 2
Flags: W
AnchorPoint: "Anchor-4" 600 714 basechar 0
AnchorPoint: "Anchor-3" 305 714 basechar 0
AnchorPoint: "Anchor-0" 305 -208 basechar 0
LayerCount: 2
Fore
SplineSet
45 0 m 1,0,-1
 45 714 l 1,1,-1
 242 714 l 1,2,-1
 430 139 l 1,3,-1
 433 139 l 1,4,5
 429 209 429 209 427.5 268 c 128,-1,6
 426 327 426 327 426 356 c 2,7,-1
 426 714 l 1,8,-1
 555 714 l 1,9,-1
 555 0 l 1,10,-1
 555 0 l 1,11,12
 554 -108 554 -108 492.5 -158 c 128,-1,13
 431 -208 431 -208 330 -208 c 0,14,15
 302 -208 302 -208 278 -205 c 128,-1,16
 254 -202 254 -202 238 -197 c 1,17,-1
 238 -93 l 1,18,19
 256 -97 256 -97 276 -100 c 128,-1,20
 296 -103 296 -103 319 -103 c 0,21,22
 376 -103 376 -103 406 -79 c 128,-1,23
 436 -55 436 -55 436 0 c 1,24,-1
 356 0 l 1,25,-1
 168 580 l 1,26,-1
 164 580 l 1,27,28
 168 509 168 509 171 447.5 c 128,-1,29
 174 386 174 386 174 356 c 2,30,-1
 174 0 l 1,31,-1
 45 0 l 1,0,-1
EndSplineSet
Substitution2: "'c2sc' Capitals to Small Capitals lookup 32 subtable" eng.sc
AlternateSubs2: "'aalt' Access All Alternates lookup 1 subtable" Eng.alt1 Eng.alt2 Eng.alt3 eng.sc
EndChar

StartChar: eng
Encoding: 331 331 268
Width: 600
GlyphClass: 2
Flags: W
AnchorPoint: "Anchor-4" 580 546 basechar 0
AnchorPoint: "Anchor-3" 304 546 basechar 0
AnchorPoint: "Anchor-0" 304 -240 basechar 0
LayerCount: 2
Fore
SplineSet
55 0 m 1,0,-1
 55 546 l 1,1,-1
 165 546 l 1,2,-1
 189 476 l 1,3,-1
 197 476 l 1,4,5
 247 556 247 556 362 556 c 0,6,7
 454 556 454 556 502 504.5 c 128,-1,8
 550 453 550 453 550 356 c 2,9,-1
 550 -61 l 2,10,11
 550 -111 550 -111 532 -151.5 c 128,-1,12
 514 -192 514 -192 475 -216 c 128,-1,13
 436 -240 436 -240 374 -240 c 0,14,15
 351 -240 351 -240 326.5 -236.5 c 128,-1,16
 302 -233 302 -233 286 -228 c 1,17,-1
 286 -116 l 1,18,19
 316 -125 316 -125 340 -125 c 0,20,21
 368 -125 368 -125 386.5 -108.5 c 128,-1,22
 405 -92 405 -92 405 -42 c 2,23,-1
 405 319 l 2,24,25
 405 379 405 379 381 407.5 c 128,-1,26
 357 436 357 436 312 436 c 0,27,28
 253 436 253 436 226.5 388 c 128,-1,29
 200 340 200 340 200 257 c 2,30,-1
 200 0 l 1,31,-1
 55 0 l 1,0,-1
EndSplineSet
Substitution2: "'smcp' Lowercase to Small Capitals lookup 33 subtable" eng.sc
Substitution2: "'aalt' Access All Alternates lookup 0 subtable" eng.sc
EndChar

StartChar: OE
Encoding: 338 338 275
Width: 600
GlyphClass: 2
Flags: W
AnchorPoint: "Anchor-3" 300 714 basechar 0
AnchorPoint: "Anchor-0" 300 0 basechar 0
LayerCount: 2
Fore
SplineSet
252 -10 m 0,0,1
 172 -10 172 -10 123 35 c 128,-1,2
 74 80 74 80 52 162.5 c 128,-1,3
 30 245 30 245 30 359 c 0,4,5
 30 472 30 472 53 553.5 c 128,-1,6
 76 635 76 635 126 679.5 c 128,-1,7
 176 724 176 724 256 724 c 0,8,9
 267 724 267 724 286 723 c 128,-1,10
 305 722 305 722 329 714 c 1,11,-1
 580 714 l 1,12,-1
 580 590 l 1,13,-1
 443 590 l 1,14,-1
 443 433 l 1,15,-1
 562 433 l 1,16,-1
 562 309 l 1,17,-1
 443 309 l 1,18,-1
 443 124 l 1,19,-1
 580 124 l 1,20,-1
 580 0 l 1,21,-1
 327 0 l 1,22,23
 310 -5 310 -5 291 -7.5 c 128,-1,24
 272 -10 272 -10 252 -10 c 0,0,1
267 116 m 0,25,26
 278 116 278 116 289 119 c 128,-1,27
 300 122 300 122 307 126 c 1,28,-1
 307 589 l 1,29,30
 300 595 300 595 289.5 596.5 c 128,-1,31
 279 598 279 598 269 598 c 0,32,33
 219 598 219 598 195.5 537 c 128,-1,34
 172 476 172 476 172 358 c 0,35,36
 172 239 172 239 191.5 177.5 c 128,-1,37
 211 116 211 116 267 116 c 0,25,26
EndSplineSet
Substitution2: "'c2sc' Capitals to Small Capitals lookup 32 subtable" oe.sc
Substitution2: "'aalt' Access All Alternates lookup 0 subtable" oe.sc
EndChar

StartChar: oe
Encoding: 339 339 276
Width: 600
GlyphClass: 2
Flags: W
AnchorPoint: "Anchor-3" 300 546 basechar 0
AnchorPoint: "Anchor-0" 300 0 basechar 0
LayerCount: 2
Fore
SplineSet
191 -10 m 0,0,1
 134 -10 134 -10 95.5 25.5 c 128,-1,2
 57 61 57 61 37.5 125.5 c 128,-1,3
 18 190 18 190 18 276 c 0,4,5
 18 403 18 403 61 479 c 128,-1,6
 104 555 104 555 192 555 c 0,7,8
 275 555 275 555 318 478 c 1,9,10
 360 554 360 554 436 554 c 256,11,12
 512 554 512 554 551 488 c 128,-1,13
 590 422 590 422 590 309 c 2,14,-1
 590 239 l 1,15,-1
 372 239 l 1,16,17
 372 179 372 179 385 146.5 c 128,-1,18
 398 114 398 114 419 101.5 c 128,-1,19
 440 89 440 89 464 89 c 0,20,21
 487 89 487 89 516.5 99 c 128,-1,22
 546 109 546 109 576 129 c 1,23,-1
 576 27 l 1,24,25
 548 9 548 9 514 -0.5 c 128,-1,26
 480 -10 480 -10 447 -10 c 0,27,28
 404 -10 404 -10 373.5 8 c 128,-1,29
 343 26 343 26 319 69 c 1,30,31
 297 28 297 28 264.5 9 c 128,-1,32
 232 -10 232 -10 191 -10 c 0,0,1
372 328 m 1,33,-1
 483 328 l 1,34,35
 483 390 483 390 471 423.5 c 128,-1,36
 459 457 459 457 433 457 c 0,37,38
 411 457 411 457 392.5 429 c 128,-1,39
 374 401 374 401 372 328 c 1,33,-1
192 93 m 0,40,41
 223 93 223 93 239 139 c 128,-1,42
 255 185 255 185 255 273 c 256,43,44
 255 361 255 361 239 406.5 c 128,-1,45
 223 452 223 452 192 452 c 0,46,47
 162 452 162 452 149 408 c 128,-1,48
 136 364 136 364 136 274 c 0,49,50
 136 181 136 181 149.5 137 c 128,-1,51
 163 93 163 93 192 93 c 0,40,41
EndSplineSet
Substitution2: "'smcp' Lowercase to Small Capitals lookup 33 subtable" oe.sc
Substitution2: "'aalt' Access All Alternates lookup 0 subtable" oe.sc
EndChar

StartChar: Tbar
Encoding: 358 358 295
Width: 600
GlyphClass: 2
Flags: W
AnchorPoint: "Anchor-4" 580 714 basechar 0
AnchorPoint: "Anchor-3" 300 714 basechar 0
AnchorPoint: "Anchor-1" 300 357 basechar 0
AnchorPoint: "Anchor-0" 300 0 basechar 0
LayerCount: 2
Fore
SplineSet
227 0 m 1,0,-1
 227 294 l 1,1,-1
 104 294 l 1,2,-1
 104 413 l 1,3,-1
 227 413 l 1,4,-1
 227 589 l 1,5,-1
 30 589 l 1,6,-1
 30 714 l 1,7,-1
 570 714 l 1,8,-1
 570 589 l 1,9,-1
 372 589 l 1,10,-1
 372 413 l 1,11,-1
 496 413 l 1,12,-1
 496 294 l 1,13,-1
 372 294 l 1,14,-1
 372 0 l 1,15,-1
 227 0 l 1,0,-1
EndSplineSet
Substitution2: "'c2sc' Capitals to Small Capitals lookup 32 subtable" tbar.sc
Substitution2: "'aalt' Access All Alternates lookup 0 subtable" tbar.sc
EndChar

StartChar: tbar
Encoding: 359 359 296
Width: 600
GlyphClass: 2
Flags: W
AnchorPoint: "Anchor-4" 580 682 basechar 0
AnchorPoint: "Anchor-3" 269 682 basechar 0
AnchorPoint: "Anchor-1" 261 273 basechar 0
AnchorPoint: "Anchor-0" 324 0 basechar 0
LayerCount: 2
Fore
SplineSet
53 247 m 1,0,-1
 53 341 l 1,1,-1
 178 341 l 1,2,-1
 178 426 l 1,3,-1
 53 426 l 1,4,-1
 53 516 l 1,5,-1
 189 546 l 1,6,-1
 213 682 l 1,7,-1
 323 682 l 1,8,-1
 323 546 l 1,9,-1
 528 546 l 1,10,-1
 528 426 l 1,11,-1
 323 426 l 1,12,-1
 323 341 l 1,13,-1
 533 341 l 1,14,-1
 533 247 l 1,15,-1
 323 247 l 1,16,-1
 323 203 l 2,17,18
 323 164 323 164 336 144 c 128,-1,19
 349 124 349 124 370.5 117.5 c 128,-1,20
 392 111 392 111 419 111 c 0,21,22
 443 111 443 111 468 114.5 c 128,-1,23
 493 118 493 118 533 126 c 1,24,-1
 533 12 l 1,25,26
 496 0 496 0 460.5 -5 c 128,-1,27
 425 -10 425 -10 391 -10 c 0,28,29
 285 -10 285 -10 231.5 37 c 128,-1,30
 178 84 178 84 178 188 c 2,31,-1
 178 247 l 1,32,-1
 53 247 l 1,0,-1
EndSplineSet
Substitution2: "'smcp' Lowercase to Small Capitals lookup 33 subtable" tbar.sc
Substitution2: "'aalt' Access All Alternates lookup 0 subtable" tbar.sc
EndChar

StartChar: Uogonek
Encoding: 370 370 307
Width: 600
GlyphClass: 2
Flags: W
AnchorPoint: "Anchor-4" 580 714 basechar 0
AnchorPoint: "Anchor-3" 300 714 basechar 0
AnchorPoint: "Anchor-2" 540 10 basechar 0
AnchorPoint: "Anchor-0" 330 -237 basechar 0
LayerCount: 2
Fore
SplineSet
334 -237 m 0,0,1
 276 -237 276 -237 245 -207.5 c 128,-1,2
 214 -178 214 -178 214 -132 c 0,3,4
 214 -99 214 -99 230.5 -67.5 c 128,-1,5
 247 -36 247 -36 283 -10 c 1,6,7
 166 -6 166 -6 105.5 60 c 128,-1,8
 45 126 45 126 45 243 c 2,9,-1
 45 714 l 1,10,-1
 190 714 l 1,11,-1
 190 268 l 2,12,13
 190 184 190 184 217 149.5 c 128,-1,14
 244 115 244 115 300 115 c 0,15,16
 358 115 358 115 384 150.5 c 128,-1,17
 410 186 410 186 410 269 c 2,18,-1
 410 714 l 1,19,-1
 555 714 l 1,20,-1
 555 244 l 2,21,22
 555 163 555 163 524.5 105 c 128,-1,23
 494 47 494 47 433 17 c 1,24,25
 375 -17 375 -17 345.5 -48 c 128,-1,26
 316 -79 316 -79 316 -109 c 0,27,28
 316 -127 316 -127 327 -138 c 128,-1,29
 338 -149 338 -149 359 -149 c 0,30,31
 370 -149 370 -149 382 -146 c 128,-1,32
 394 -143 394 -143 402 -140 c 1,33,-1
 402 -225 l 1,34,35
 389 -230 389 -230 371.5 -233.5 c 128,-1,36
 354 -237 354 -237 334 -237 c 0,0,1
EndSplineSet
Substitution2: "'c2sc' Capitals to Small Capitals lookup 32 subtable" uogonek.sc
Substitution2: "'locl' Localized Forms in Latin lookup 11 subtable" Uogonek.loclNAV
Ligature2: "'ccmp' Glyph Composition/Decomposition lookup 6 subtable" U uni0328
AlternateSubs2: "'aalt' Access All Alternates lookup 1 subtable" Uogonek.loclNAV uogonek.sc
EndChar

StartChar: longs
Encoding: 383 383 320
Width: 600
GlyphClass: 2
Flags: W
AnchorPoint: "Anchor-3" 376 765 basechar 0
AnchorPoint: "Anchor-0" 300 0 basechar 0
LayerCount: 2
Fore
SplineSet
199 0 m 1,0,-1
 199 585 l 2,1,2
 199 654 199 654 222.5 693.5 c 128,-1,3
 246 733 246 733 289 749 c 128,-1,4
 332 765 332 765 390 765 c 0,5,6
 436 765 436 765 468 758 c 128,-1,7
 500 751 500 751 522 742 c 1,8,-1
 488 631 l 1,9,10
 471 636 471 636 451 640.5 c 128,-1,11
 431 645 431 645 411 645 c 0,12,13
 372 645 372 645 357 626.5 c 128,-1,14
 342 608 342 608 342 574 c 2,15,-1
 342 0 l 1,16,-1
 199 0 l 1,0,-1
EndSplineSet
EndChar

StartChar: florin
Encoding: 402 402 321
Width: 600
GlyphClass: 2
Flags: W
AnchorPoint: "Anchor-3" 378 724 basechar 0
AnchorPoint: "Anchor-0" 278 -245 basechar 0
LayerCount: 2
Fore
SplineSet
190 -245 m 0,0,1
 161 -245 161 -245 133.5 -241.5 c 128,-1,2
 106 -238 106 -238 90 -233 c 1,3,-1
 90 -121 l 1,4,5
 105 -126 105 -126 122.5 -128 c 128,-1,6
 140 -130 140 -130 152 -130 c 0,7,8
 181 -130 181 -130 198.5 -112.5 c 128,-1,9
 216 -95 216 -95 216 -51 c 2,10,-1
 216 390 l 1,11,-1
 122 390 l 1,12,-1
 122 466 l 1,13,-1
 216 500 l 1,14,-1
 216 536 l 2,15,16
 216 640 216 640 267.5 682 c 128,-1,17
 319 724 319 724 414 724 c 0,18,19
 453 724 453 724 483 718 c 128,-1,20
 513 712 513 712 540 701 c 1,21,-1
 508 597 l 1,22,23
 494 603 494 603 476.5 606.5 c 128,-1,24
 459 610 459 610 439 610 c 0,25,26
 394 610 394 610 374.5 591.5 c 128,-1,27
 355 573 355 573 355 537 c 2,28,-1
 355 500 l 1,29,-1
 476 500 l 1,30,-1
 476 390 l 1,31,-1
 355 390 l 1,32,-1
 355 -55 l 2,33,34
 355 -144 355 -144 317 -194.5 c 128,-1,35
 279 -245 279 -245 190 -245 c 0,0,1
EndSplineSet
EndChar

StartChar: circumflex
Encoding: 710 710 330
Width: 600
Flags: W
LayerCount: 2
Fore
SplineSet
120 606 m 1,0,-1
 120 619 l 1,1,2
 137 638 137 638 158.5 664.5 c 128,-1,3
 180 691 180 691 199 718.5 c 128,-1,4
 218 746 218 746 230 766 c 1,5,-1
 377 766 l 1,6,7
 396 733 396 733 427.5 692 c 128,-1,8
 459 651 459 651 486 619 c 1,9,-1
 486 606 l 1,10,-1
 398 606 l 1,11,12
 376 622 376 622 351 643 c 128,-1,13
 326 664 326 664 303 690 c 1,14,15
 279 664 279 664 254.5 642.5 c 128,-1,16
 230 621 230 621 209 606 c 1,17,-1
 120 606 l 1,0,-1
EndSplineSet
EndChar

StartChar: caron
Encoding: 711 711 331
Width: 600
GlyphClass: 2
Flags: W
AnchorPoint: "Anchor-13" 299 763 basemark 0
AnchorPoint: "Anchor-13" 299 528 mark 0
AnchorPoint: "Anchor-8" 299 528 mark 0
AnchorPoint: "Anchor-3" 299 528 mark 0
LayerCount: 2
Fore
SplineSet
227 606 m 1,0,1
 215 627 215 627 195.5 654.5 c 128,-1,2
 176 682 176 682 155 708 c 128,-1,3
 134 734 134 734 117 753 c 1,4,-1
 117 766 l 1,5,-1
 206 766 l 1,6,7
 227 750 227 750 251.5 729 c 128,-1,8
 276 708 276 708 299 683 c 1,9,10
 323 710 323 710 347.5 730 c 128,-1,11
 372 750 372 750 394 766 c 1,12,-1
 483 766 l 1,13,-1
 483 753 l 1,14,15
 467 734 467 734 446 708 c 128,-1,16
 425 682 425 682 405.5 655 c 128,-1,17
 386 628 386 628 373 606 c 1,18,-1
 227 606 l 1,0,1
EndSplineSet
EndChar

StartChar: breve
Encoding: 728 728 333
Width: 600
GlyphClass: 2
Flags: W
AnchorPoint: "Anchor-13" 300 765 basemark 0
AnchorPoint: "Anchor-13" 300 546 mark 0
AnchorPoint: "Anchor-8" 300 546 mark 0
AnchorPoint: "Anchor-3" 300 546 mark 0
LayerCount: 2
Fore
SplineSet
301 606 m 0,0,1
 228 606 228 606 182.5 649 c 128,-1,2
 137 692 137 692 135 769 c 1,3,-1
 218 769 l 1,4,5
 221 731 221 731 245 716 c 128,-1,6
 269 701 269 701 303 701 c 0,7,8
 334 701 334 701 359 715 c 128,-1,9
 384 729 384 729 388 769 c 1,10,-1
 471 769 l 1,11,12
 469 696 469 696 422.5 651 c 128,-1,13
 376 606 376 606 301 606 c 0,0,1
EndSplineSet
EndChar

StartChar: dotaccent
Encoding: 729 729 334
Width: 600
Flags: W
LayerCount: 2
Fore
SplineSet
298 608 m 0,0,1
 211 608 211 608 211 692 c 256,2,3
 211 776 211 776 300 776 c 0,4,5
 388 776 388 776 388 693 c 0,6,7
 388 608 388 608 298 608 c 0,0,1
EndSplineSet
EndChar

StartChar: ring
Encoding: 730 730 335
Width: 600
Flags: W
LayerCount: 2
Fore
SplineSet
298 606 m 256,0,1
 245 606 245 606 212.5 637 c 128,-1,2
 180 668 180 668 180 721 c 256,3,4
 180 774 180 774 212.5 805 c 128,-1,5
 245 836 245 836 298 836 c 0,6,7
 350 836 350 836 384.5 804.5 c 128,-1,8
 419 773 419 773 419 722 c 0,9,10
 419 670 419 670 385 638 c 128,-1,11
 351 606 351 606 298 606 c 256,0,1
299 675 m 0,12,13
 318 675 318 675 331.5 687.5 c 128,-1,14
 345 700 345 700 345 721 c 256,15,16
 345 742 345 742 332 754.5 c 128,-1,17
 319 767 319 767 299 767 c 256,18,19
 279 767 279 767 265.5 754.5 c 128,-1,20
 252 742 252 742 252 721 c 256,21,22
 252 700 252 700 264 687.5 c 128,-1,23
 276 675 276 675 299 675 c 0,12,13
EndSplineSet
EndChar

StartChar: ogonek
Encoding: 731 731 336
Width: 600
Flags: W
LayerCount: 2
Fore
SplineSet
330 -237 m 0,0,1
 273 -237 273 -237 242.5 -207.5 c 128,-1,2
 212 -178 212 -178 212 -129 c 0,3,4
 212 -90 212 -90 238 -52 c 128,-1,5
 264 -14 264 -14 310 16 c 1,6,-1
 377 0 l 1,7,8
 344 -33 344 -33 329 -57.5 c 128,-1,9
 314 -82 314 -82 314 -107 c 0,10,11
 314 -149 314 -149 354 -149 c 0,12,13
 368 -149 368 -149 380 -146 c 128,-1,14
 392 -143 392 -143 400 -140 c 1,15,-1
 400 -225 l 1,16,17
 387 -230 387 -230 369.5 -233.5 c 128,-1,18
 352 -237 352 -237 330 -237 c 0,0,1
EndSplineSet
EndChar

StartChar: tilde
Encoding: 732 732 337
Width: 600
Flags: W
LayerCount: 2
Fore
SplineSet
110 605 m 1,0,1
 114 667 114 667 141 711 c 128,-1,2
 168 755 168 755 220 755 c 0,3,4
 249 755 249 755 276 742 c 128,-1,5
 303 729 303 729 328.5 716.5 c 128,-1,6
 354 704 354 704 378 704 c 0,7,8
 395 704 395 704 404 717 c 128,-1,9
 413 730 413 730 418 756 c 1,10,-1
 490 756 l 1,11,12
 486 681 486 681 455 643.5 c 128,-1,13
 424 606 424 606 380 606 c 0,14,15
 352 606 352 606 324 618.5 c 128,-1,16
 296 631 296 631 270 644 c 128,-1,17
 244 657 244 657 222 657 c 0,18,19
 204 657 204 657 195 644.5 c 128,-1,20
 186 632 186 632 182 605 c 1,21,-1
 110 605 l 1,0,1
EndSplineSet
EndChar

StartChar: hungarumlaut
Encoding: 733 733 338
Width: 600
Flags: W
LayerCount: 2
Fore
SplineSet
294 606 m 1,0,-1
 294 619 l 1,1,2
 317 656 317 656 341.5 697.5 c 128,-1,3
 366 739 366 739 379 766 c 1,4,-1
 513 766 l 1,5,-1
 513 757 l 1,6,7
 503 738 503 738 477 709.5 c 128,-1,8
 451 681 451 681 420.5 652.5 c 128,-1,9
 390 624 390 624 367 606 c 1,10,-1
 294 606 l 1,0,-1
115 606 m 1,11,-1
 115 619 l 1,12,13
 138 657 138 657 162 698 c 128,-1,14
 186 739 186 739 200 766 c 1,15,-1
 334 766 l 1,16,-1
 334 757 l 1,17,18
 324 738 324 738 298 710 c 128,-1,19
 272 682 272 682 242 654 c 128,-1,20
 212 626 212 626 186 606 c 1,21,-1
 115 606 l 1,11,-1
EndSplineSet
EndChar

StartChar: tonos
Encoding: 900 900 339
Width: 600
GlyphClass: 2
Flags: W
AnchorPoint: "Anchor-13" 309 760 basemark 0
AnchorPoint: "Anchor-13" 300 546 mark 0
AnchorPoint: "Anchor-8" 300 546 mark 0
AnchorPoint: "Anchor-3" 300 546 mark 0
LayerCount: 2
Fore
SplineSet
260 606 m 1,0,-1
 260 621 l 1,1,2
 266 644 266 644 272 675.5 c 128,-1,3
 278 707 278 707 283 739.5 c 128,-1,4
 288 772 288 772 290 797 c 1,5,-1
 424 797 l 1,6,-1
 424 785 l 1,7,8
 410 747 410 747 389 699.5 c 128,-1,9
 368 652 368 652 343 606 c 1,10,-1
 260 606 l 1,0,-1
EndSplineSet
EndChar

StartChar: dieresistonos
Encoding: 901 901 340
Width: 600
GlyphClass: 2
Flags: W
AnchorPoint: "Anchor-13" 301 838 basemark 0
AnchorPoint: "Anchor-13" 300 546 mark 0
AnchorPoint: "Anchor-8" 300 546 mark 0
AnchorPoint: "Anchor-3" 300 546 mark 0
LayerCount: 2
Fore
SplineSet
250 678 m 1,0,-1
 250 691 l 1,1,2
 258 720 258 720 267.5 763 c 128,-1,3
 277 806 277 806 281 838 c 1,4,-1
 406 838 l 1,5,-1
 406 828 l 1,6,7
 391 795 391 795 366.5 756 c 128,-1,8
 342 717 342 717 314 678 c 1,9,-1
 250 678 l 1,0,-1
167 622 m 0,10,11
 139 622 139 622 122.5 637.5 c 128,-1,12
 106 653 106 653 106 686 c 256,13,14
 106 719 106 719 122.5 734.5 c 128,-1,15
 139 750 139 750 167 750 c 0,16,17
 194 750 194 750 211.5 734.5 c 128,-1,18
 229 719 229 719 229 686 c 256,19,20
 229 653 229 653 211.5 637.5 c 128,-1,21
 194 622 194 622 167 622 c 0,10,11
430 622 m 0,22,23
 402 622 402 622 385 637.5 c 128,-1,24
 368 653 368 653 368 686 c 256,25,26
 368 719 368 719 385 734.5 c 128,-1,27
 402 750 402 750 430 750 c 0,28,29
 457 750 457 750 475 734.5 c 128,-1,30
 493 719 493 719 493 686 c 256,31,32
 493 653 493 653 475 637.5 c 128,-1,33
 457 622 457 622 430 622 c 0,22,23
EndSplineSet
EndChar

StartChar: Epsilontonos
Encoding: 904 904 343
Width: 600
GlyphClass: 2
Flags: W
AnchorPoint: "Anchor-3" 332 714 basechar 0
AnchorPoint: "Anchor-0" 341 0 basechar 0
LayerCount: 2
Fore
SplineSet
-51 606 m 1,0,-1
 -51 621 l 1,1,2
 -46 644 -46 644 -40 675.5 c 128,-1,3
 -34 707 -34 707 -29 739.5 c 128,-1,4
 -24 772 -24 772 -21 797 c 1,5,-1
 113 797 l 1,6,-1
 113 785 l 1,7,8
 99 747 99 747 78.5 699.5 c 128,-1,9
 58 652 58 652 32 606 c 1,10,-1
 -51 606 l 1,0,-1
133 0 m 1,11,-1
 133 714 l 1,12,-1
 530 714 l 1,13,-1
 530 589 l 1,14,-1
 273 589 l 1,15,-1
 273 433 l 1,16,-1
 515 433 l 1,17,-1
 515 308 l 1,18,-1
 273 308 l 1,19,-1
 273 125 l 1,20,-1
 530 125 l 1,21,-1
 530 0 l 1,22,-1
 133 0 l 1,11,-1
EndSplineSet
EndChar

StartChar: Etatonos
Encoding: 905 905 344
Width: 600
GlyphClass: 2
Flags: W
AnchorPoint: "Anchor-3" 327 714 basechar 0
AnchorPoint: "Anchor-1" 327 377 basechar 0
AnchorPoint: "Anchor-0" 327 0 basechar 0
LayerCount: 2
Fore
SplineSet
-73 606 m 1,0,-1
 -73 621 l 1,1,2
 -68 644 -68 644 -62 675.5 c 128,-1,3
 -56 707 -56 707 -51 739.5 c 128,-1,4
 -46 772 -46 772 -43 797 c 1,5,-1
 91 797 l 1,6,-1
 91 785 l 1,7,8
 77 747 77 747 56.5 699.5 c 128,-1,9
 36 652 36 652 10 606 c 1,10,-1
 -73 606 l 1,0,-1
95 0 m 1,11,-1
 95 714 l 1,12,-1
 240 714 l 1,13,-1
 240 435 l 1,14,-1
 410 435 l 1,15,-1
 410 714 l 1,16,-1
 555 714 l 1,17,-1
 555 0 l 1,18,-1
 410 0 l 1,19,-1
 410 310 l 1,20,-1
 240 310 l 1,21,-1
 240 0 l 1,22,-1
 95 0 l 1,11,-1
EndSplineSet
EndChar

StartChar: Upsilontonos
Encoding: 910 910 347
Width: 600
GlyphClass: 2
Flags: W
AnchorPoint: "Anchor-3" 351 714 basechar 0
AnchorPoint: "Anchor-0" 351 0 basechar 0
LayerCount: 2
Fore
SplineSet
-48 606 m 1,0,-1
 -48 621 l 1,1,2
 -42 644 -42 644 -36 675.5 c 128,-1,3
 -30 707 -30 707 -25 739.5 c 128,-1,4
 -20 772 -20 772 -18 797 c 1,5,-1
 116 797 l 1,6,-1
 116 785 l 1,7,8
 102 747 102 747 81 699.5 c 128,-1,9
 60 652 60 652 35 606 c 1,10,-1
 -48 606 l 1,0,-1
278 0 m 1,11,-1
 278 277 l 1,12,-1
 110 714 l 1,13,-1
 263 714 l 1,14,-1
 351 411 l 1,15,-1
 438 714 l 1,16,-1
 590 714 l 1,17,-1
 423 277 l 1,18,-1
 423 0 l 1,19,-1
 278 0 l 1,11,-1
EndSplineSet
EndChar

StartChar: Gamma
Encoding: 915 915 352
Width: 600
GlyphClass: 2
Flags: W
AnchorPoint: "Anchor-3" 330 714 basechar 0
AnchorPoint: "Anchor-0" 330 0 basechar 0
LayerCount: 2
Fore
SplineSet
90 0 m 1,0,-1
 90 714 l 1,1,-1
 530 714 l 1,2,-1
 530 593 l 1,3,-1
 235 593 l 1,4,-1
 235 0 l 1,5,-1
 90 0 l 1,0,-1
EndSplineSet
EndChar

StartChar: uni0394
Encoding: 916 916 353
Width: 600
GlyphClass: 2
Flags: W
AnchorPoint: "Anchor-3" 300 714 basechar 0
AnchorPoint: "Anchor-0" 300 0 basechar 0
LayerCount: 2
Fore
SplineSet
10 0 m 1,0,-1
 10 84 l 1,1,-1
 219 717 l 1,2,-1
 382 717 l 1,3,-1
 590 83 l 1,4,-1
 590 0 l 1,5,-1
 10 0 l 1,0,-1
159 121 m 1,6,-1
 442 121 l 1,7,-1
 326 496 l 2,8,9
 323 506 323 506 317 526.5 c 128,-1,10
 311 547 311 547 306 567.5 c 128,-1,11
 301 588 301 588 300 595 c 1,12,13
 299 588 299 588 294 567.5 c 128,-1,14
 289 547 289 547 283 526.5 c 128,-1,15
 277 506 277 506 274 496 c 2,16,-1
 159 121 l 1,6,-1
EndSplineSet
EndChar

StartChar: Theta
Encoding: 920 920 357
Width: 600
GlyphClass: 2
Flags: W
AnchorPoint: "Anchor-4" 600 714 basechar 0
AnchorPoint: "Anchor-3" 300 714 basechar 0
AnchorPoint: "Anchor-2" 297 10 basechar 0
AnchorPoint: "Anchor-1" 300 357 basechar 0
AnchorPoint: "Anchor-0" 300 0 basechar 0
LayerCount: 2
Fore
SplineSet
300 -10 m 256,0,1
 160 -10 160 -10 95 87.5 c 128,-1,2
 30 185 30 185 30 358 c 0,3,4
 30 532 30 532 95 629 c 128,-1,5
 160 726 160 726 300 726 c 256,6,7
 440 726 440 726 505 628 c 128,-1,8
 570 530 570 530 570 358 c 0,9,10
 570 185 570 185 505 87.5 c 128,-1,11
 440 -10 440 -10 300 -10 c 256,0,1
300 115 m 0,12,13
 364 115 364 115 393.5 176.5 c 128,-1,14
 423 238 423 238 423 359 c 0,15,16
 423 478 423 478 394 539.5 c 128,-1,17
 365 601 365 601 300 601 c 256,18,19
 235 601 235 601 206 539 c 128,-1,20
 177 477 177 477 177 358 c 0,21,22
 177 238 177 238 206 176.5 c 128,-1,23
 235 115 235 115 300 115 c 0,12,13
221 303 m 1,24,-1
 221 423 l 1,25,-1
 380 423 l 1,26,-1
 380 303 l 1,27,-1
 221 303 l 1,24,-1
EndSplineSet
EndChar

StartChar: Lambda
Encoding: 923 923 360
Width: 600
GlyphClass: 2
Flags: W
AnchorPoint: "Anchor-3" 300 714 basechar 0
AnchorPoint: "Anchor-0" 300 0 basechar 0
LayerCount: 2
Fore
SplineSet
10 0 m 1,0,-1
 220 714 l 1,1,-1
 378 714 l 1,2,-1
 590 0 l 1,3,-1
 442 0 l 1,4,-1
 334 431 l 2,5,6
 330 447 330 447 323.5 477.5 c 128,-1,7
 317 508 317 508 310.5 539 c 128,-1,8
 304 570 304 570 300 590 c 1,9,10
 296 569 296 569 290 537.5 c 128,-1,11
 284 506 284 506 278 476 c 128,-1,12
 272 446 272 446 268 430 c 2,13,-1
 157 0 l 1,14,-1
 10 0 l 1,0,-1
EndSplineSet
EndChar

StartChar: Xi
Encoding: 926 926 363
Width: 600
GlyphClass: 2
Flags: W
AnchorPoint: "Anchor-3" 300 714 basechar 0
AnchorPoint: "Anchor-0" 300 0 basechar 0
LayerCount: 2
Fore
SplineSet
65 594 m 1,0,-1
 65 714 l 1,1,-1
 535 714 l 1,2,-1
 535 594 l 1,3,-1
 65 594 l 1,0,-1
105 311 m 1,4,-1
 105 431 l 1,5,-1
 495 431 l 1,6,-1
 495 311 l 1,7,-1
 105 311 l 1,4,-1
45 0 m 1,8,-1
 45 120 l 1,9,-1
 555 120 l 1,10,-1
 555 0 l 1,11,-1
 45 0 l 1,8,-1
EndSplineSet
EndChar

StartChar: Pi
Encoding: 928 928 365
Width: 600
GlyphClass: 2
Flags: W
AnchorPoint: "Anchor-3" 300 714 basechar 0
AnchorPoint: "Anchor-0" 300 0 basechar 0
LayerCount: 2
Fore
SplineSet
45 0 m 1,0,-1
 45 714 l 1,1,-1
 555 714 l 1,2,-1
 555 0 l 1,3,-1
 410 0 l 1,4,-1
 410 593 l 1,5,-1
 190 593 l 1,6,-1
 190 0 l 1,7,-1
 45 0 l 1,0,-1
EndSplineSet
EndChar

StartChar: Sigma
Encoding: 931 931 367
Width: 600
GlyphClass: 2
Flags: W
AnchorPoint: "Anchor-3" 300 714 basechar 0
AnchorPoint: "Anchor-0" 300 0 basechar 0
LayerCount: 2
Fore
SplineSet
80 0 m 1,0,-1
 80 115 l 1,1,-1
 290 374 l 1,2,-1
 86 602 l 1,3,-1
 86 714 l 1,4,-1
 501 714 l 1,5,-1
 501 594 l 1,6,-1
 352 594 l 2,7,8
 325 594 325 594 298.5 595 c 128,-1,9
 272 596 272 596 245 599 c 1,10,-1
 453 375 l 1,11,-1
 234 115 l 1,12,13
 269 118 269 118 302 119 c 128,-1,14
 335 120 335 120 370 120 c 2,15,-1
 530 120 l 1,16,-1
 530 0 l 1,17,-1
 80 0 l 1,0,-1
EndSplineSet
EndChar

StartChar: Phi
Encoding: 934 934 370
Width: 600
GlyphClass: 2
Flags: W
AnchorPoint: "Anchor-3" 300 714 basechar 0
AnchorPoint: "Anchor-0" 300 0 basechar 0
LayerCount: 2
Fore
SplineSet
242 -10 m 1,0,-1
 242 100 l 1,1,2
 178 102 178 102 136.5 127 c 128,-1,3
 95 152 95 152 71.5 192 c 128,-1,4
 48 232 48 232 39 279.5 c 128,-1,5
 30 327 30 327 30 373 c 0,6,7
 30 440 30 440 49 499 c 128,-1,8
 68 558 68 558 114 595.5 c 128,-1,9
 160 633 160 633 242 636 c 1,10,-1
 242 724 l 1,11,-1
 363 724 l 1,12,-1
 363 636 l 1,13,14
 423 634 423 634 463 611 c 128,-1,15
 503 588 503 588 526 550.5 c 128,-1,16
 549 513 549 513 559 467 c 128,-1,17
 569 421 569 421 569 373 c 0,18,19
 569 322 569 322 558.5 274 c 128,-1,20
 548 226 548 226 524.5 187.5 c 128,-1,21
 501 149 501 149 461.5 125.5 c 128,-1,22
 422 102 422 102 363 100 c 1,23,-1
 363 -10 l 1,24,-1
 242 -10 l 1,0,-1
242 213 m 1,25,-1
 242 522 l 1,26,27
 204 519 204 519 185.5 497 c 128,-1,28
 167 475 167 475 161 442 c 128,-1,29
 155 409 155 409 155 373 c 0,30,31
 155 330 155 330 162 294.5 c 128,-1,32
 169 259 169 259 188 237.5 c 128,-1,33
 207 216 207 216 242 213 c 1,25,-1
363 213 m 1,34,35
 394 216 394 216 412 238 c 128,-1,36
 430 260 430 260 437 295 c 128,-1,37
 444 330 444 330 444 372 c 0,38,39
 444 409 444 409 437.5 442 c 128,-1,40
 431 475 431 475 413.5 497 c 128,-1,41
 396 519 396 519 363 522 c 1,42,-1
 363 213 l 1,34,35
EndSplineSet
EndChar

StartChar: Psi
Encoding: 936 936 372
Width: 600
GlyphClass: 2
Flags: W
AnchorPoint: "Anchor-3" 300 714 basechar 0
AnchorPoint: "Anchor-0" 300 0 basechar 0
LayerCount: 2
Fore
SplineSet
237 0 m 1,0,-1
 237 213 l 1,1,2
 158 213 158 213 113 244.5 c 128,-1,3
 68 276 68 276 49 335 c 128,-1,4
 30 394 30 394 30 478 c 2,5,-1
 30 714 l 1,6,-1
 160 714 l 1,7,-1
 160 480 l 2,8,9
 160 416 160 416 170 384 c 128,-1,10
 180 352 180 352 197 341.5 c 128,-1,11
 214 331 214 331 237 331 c 1,12,-1
 237 714 l 1,13,-1
 362 714 l 1,14,-1
 362 331 l 1,15,16
 382 331 382 331 400.5 341.5 c 128,-1,17
 419 352 419 352 430 383 c 128,-1,18
 441 414 441 414 441 478 c 2,19,-1
 441 714 l 1,20,-1
 569 714 l 1,21,-1
 569 480 l 2,22,23
 569 350 569 350 523 281.5 c 128,-1,24
 477 213 477 213 362 213 c 1,25,-1
 362 0 l 1,26,-1
 237 0 l 1,0,-1
EndSplineSet
EndChar

StartChar: uni03A9
Encoding: 937 937 373
Width: 600
GlyphClass: 2
Flags: W
AnchorPoint: "Anchor-3" 299 714 basechar 0
AnchorPoint: "Anchor-0" 300 0 basechar 0
LayerCount: 2
Fore
SplineSet
15 0 m 1,0,-1
 15 112 l 1,1,-1
 152 112 l 1,2,3
 100 154 100 154 70 230.5 c 128,-1,4
 40 307 40 307 40 411 c 0,5,6
 40 566 40 566 108 645.5 c 128,-1,7
 176 725 176 725 299 725 c 0,8,9
 419 725 419 725 488.5 646.5 c 128,-1,10
 558 568 558 568 558 409 c 0,11,12
 558 306 558 306 528 230.5 c 128,-1,13
 498 155 498 155 444 112 c 1,14,-1
 585 112 l 1,15,-1
 585 0 l 1,16,-1
 337 0 l 1,17,-1
 337 118 l 1,18,19
 382 158 382 158 403.5 226 c 128,-1,20
 425 294 425 294 425 388 c 0,21,22
 425 496 425 496 395.5 549.5 c 128,-1,23
 366 603 366 603 300 603 c 0,24,25
 236 603 236 603 206 550 c 128,-1,26
 176 497 176 497 176 384 c 0,27,28
 176 294 176 294 195.5 225.5 c 128,-1,29
 215 157 215 157 261 118 c 1,30,-1
 261 0 l 1,31,-1
 15 0 l 1,0,-1
EndSplineSet
EndChar

StartChar: alpha
Encoding: 945 945 381
Width: 600
GlyphClass: 2
Flags: W
AnchorPoint: "Anchor-3" 300 546 basechar 0
AnchorPoint: "Anchor-0" 293 0 basechar 0
LayerCount: 2
Fore
SplineSet
235 -10 m 0,0,1
 147 -10 147 -10 93.5 61.5 c 128,-1,2
 40 133 40 133 40 271 c 0,3,4
 40 410 40 410 95 482 c 128,-1,5
 150 554 150 554 245 554 c 0,6,7
 295 554 295 554 326.5 533.5 c 128,-1,8
 358 513 358 513 383 472 c 1,9,-1
 390 472 l 1,10,11
 394 489 394 489 402.5 509.5 c 128,-1,12
 411 530 411 530 423 545 c 1,13,-1
 540 545 l 1,14,15
 532 524 532 524 524.5 488.5 c 128,-1,16
 517 453 517 453 511.5 410.5 c 128,-1,17
 506 368 506 368 506 325 c 2,18,-1
 506 168 l 2,19,20
 506 134 506 134 518 122 c 128,-1,21
 530 110 530 110 547 110 c 0,22,23
 554 110 554 110 563 112 c 128,-1,24
 572 114 572 114 577 115 c 1,25,-1
 577 3 l 1,26,27
 570 -2 570 -2 549 -6 c 128,-1,28
 528 -10 528 -10 511 -10 c 0,29,30
 462 -10 462 -10 432 8 c 128,-1,31
 402 26 402 26 385 72 c 1,32,-1
 375 72 l 1,33,34
 352 38 352 38 320.5 14 c 128,-1,35
 289 -10 289 -10 235 -10 c 0,0,1
277 104 m 0,36,37
 330 104 330 104 351 143 c 128,-1,38
 372 182 372 182 373 266 c 2,39,-1
 373 272 l 2,40,41
 373 353 373 353 352 396.5 c 128,-1,42
 331 440 331 440 275 440 c 0,43,44
 230 440 230 440 208 396 c 128,-1,45
 186 352 186 352 186 270 c 0,46,47
 186 104 186 104 277 104 c 0,36,37
EndSplineSet
EndChar

StartChar: beta
Encoding: 946 946 382
Width: 600
GlyphClass: 2
Flags: W
AnchorPoint: "Anchor-4" 580 765 basechar 0
AnchorPoint: "Anchor-3" 302 765 basechar 0
AnchorPoint: "Anchor-0" 366 0 basechar 0
LayerCount: 2
Fore
SplineSet
55 -240 m 1,0,-1
 55 535 l 2,1,2
 55 616 55 616 88 666.5 c 128,-1,3
 121 717 121 717 177.5 741 c 128,-1,4
 234 765 234 765 304 765 c 0,5,6
 369 765 369 765 420 743.5 c 128,-1,7
 471 722 471 722 500 679.5 c 128,-1,8
 529 637 529 637 529 573 c 0,9,10
 529 501 529 501 491.5 458.5 c 128,-1,11
 454 416 454 416 385 405 c 1,12,-1
 385 402 l 1,13,14
 470 392 470 392 518.5 346.5 c 128,-1,15
 567 301 567 301 567 210 c 0,16,17
 567 106 567 106 502 48 c 128,-1,18
 437 -10 437 -10 328 -10 c 0,19,20
 278 -10 278 -10 250.5 -2 c 128,-1,21
 223 6 223 6 198 21 c 1,22,-1
 198 -240 l 1,23,-1
 55 -240 l 1,0,-1
293 104 m 0,24,25
 358 104 358 104 389 135.5 c 128,-1,26
 420 167 420 167 420 223 c 0,27,28
 420 286 420 286 381.5 311.5 c 128,-1,29
 343 337 343 337 288 337 c 2,30,-1
 251 337 l 1,31,-1
 251 450 l 1,32,-1
 279 450 l 2,33,34
 334 450 334 450 360 480 c 128,-1,35
 386 510 386 510 386 556 c 0,36,37
 386 605 386 605 362 629 c 128,-1,38
 338 653 338 653 300 653 c 0,39,40
 272 653 272 653 249 641.5 c 128,-1,41
 226 630 226 630 212 602 c 128,-1,42
 198 574 198 574 198 522 c 2,43,-1
 198 139 l 1,44,45
 218 123 218 123 240.5 113.5 c 128,-1,46
 263 104 263 104 293 104 c 0,24,25
EndSplineSet
EndChar

StartChar: gamma
Encoding: 947 947 383
Width: 600
GlyphClass: 2
Flags: W
AnchorPoint: "Anchor-4" 580 546 basechar 0
AnchorPoint: "Anchor-3" 309 546 basechar 0
AnchorPoint: "Anchor-0" 307 -240 basechar 0
LayerCount: 2
Fore
SplineSet
180 -240 m 1,0,1
 180 -212 180 -212 186.5 -170 c 128,-1,2
 193 -128 193 -128 204 -81.5 c 128,-1,3
 215 -35 215 -35 229 6 c 1,4,-1
 20 546 l 1,5,-1
 169 546 l 1,6,-1
 252 300 l 2,7,8
 261 274 261 274 271.5 238 c 128,-1,9
 282 202 282 202 290.5 169 c 128,-1,10
 299 136 299 136 302 118 c 1,11,-1
 305 118 l 1,12,13
 306 133 306 133 313 162.5 c 128,-1,14
 320 192 320 192 330 227 c 128,-1,15
 340 262 340 262 350 293 c 2,16,-1
 433 546 l 1,17,-1
 580 546 l 1,18,-1
 380 9 l 2,19,20
 365 -32 365 -32 354.5 -76.5 c 128,-1,21
 344 -121 344 -121 338 -163.5 c 128,-1,22
 332 -206 332 -206 332 -240 c 1,23,-1
 180 -240 l 1,0,1
EndSplineSet
EndChar

StartChar: delta
Encoding: 948 948 384
Width: 600
GlyphClass: 2
Flags: W
AnchorPoint: "Anchor-3" 337 765 basechar 0
AnchorPoint: "Anchor-0" 306 0 basechar 0
LayerCount: 2
Fore
SplineSet
297 -10 m 0,0,1
 222 -10 222 -10 164 16 c 128,-1,2
 106 42 106 42 73 92 c 128,-1,3
 40 142 40 142 40 214 c 0,4,5
 40 282 40 282 65 328.5 c 128,-1,6
 90 375 90 375 133.5 404 c 128,-1,7
 177 433 177 433 231 449 c 1,8,9
 184 478 184 478 149 519 c 128,-1,10
 114 560 114 560 114 615 c 0,11,12
 114 664 114 664 142 697 c 128,-1,13
 170 730 170 730 219 747.5 c 128,-1,14
 268 765 268 765 332 765 c 0,15,16
 398 765 398 765 449 750 c 128,-1,17
 500 735 500 735 552 711 c 1,18,-1
 495 609 l 1,19,20
 451 631 451 631 409 644.5 c 128,-1,21
 367 658 367 658 326 658 c 0,22,23
 286 658 286 658 269 642.5 c 128,-1,24
 252 627 252 627 252 607 c 0,25,26
 252 580 252 580 284.5 554 c 128,-1,27
 317 528 317 528 384 494 c 0,28,29
 474 448 474 448 517 388 c 128,-1,30
 560 328 560 328 560 249 c 0,31,32
 560 160 560 160 527 102.5 c 128,-1,33
 494 45 494 45 435 17.5 c 128,-1,34
 376 -10 376 -10 297 -10 c 0,0,1
298 105 m 0,35,36
 353 105 353 105 383.5 140 c 128,-1,37
 414 175 414 175 414 240 c 0,38,39
 414 293 414 293 387 329 c 128,-1,40
 360 365 360 365 316 390 c 1,41,42
 288 382 288 382 258 362.5 c 128,-1,43
 228 343 228 343 207.5 308 c 128,-1,44
 187 273 187 273 187 219 c 0,45,46
 187 170 187 170 216.5 137.5 c 128,-1,47
 246 105 246 105 298 105 c 0,35,36
EndSplineSet
EndChar

StartChar: epsilon
Encoding: 949 949 385
Width: 600
GlyphClass: 2
Flags: W
AnchorPoint: "Anchor-3" 300 546 basechar 0
AnchorPoint: "Anchor-0" 326 0 basechar 0
LayerCount: 2
Fore
SplineSet
341 -10 m 0,0,1
 203 -10 203 -10 140.5 34 c 128,-1,2
 78 78 78 78 78 151 c 0,3,4
 78 211 78 211 115 240.5 c 128,-1,5
 152 270 152 270 210 282 c 1,6,-1
 210 287 l 1,7,8
 158 299 158 299 132.5 331 c 128,-1,9
 107 363 107 363 107 412 c 0,10,11
 107 464 107 464 138.5 495 c 128,-1,12
 170 526 170 526 223 540.5 c 128,-1,13
 276 555 276 555 341 555 c 0,14,15
 398 555 398 555 454 544 c 128,-1,16
 510 533 510 533 551 514 c 1,17,-1
 506 410 l 1,18,19
 471 425 471 425 432.5 437 c 128,-1,20
 394 449 394 449 345 449 c 0,21,22
 235 449 235 449 235 395 c 0,23,24
 235 362 235 362 268 348 c 128,-1,25
 301 334 301 334 371 334 c 2,26,-1
 445 334 l 1,27,-1
 445 234 l 1,28,-1
 363 234 l 2,29,30
 286 234 286 234 253 216.5 c 128,-1,31
 220 199 220 199 220 165 c 0,32,33
 220 136 220 136 251 118.5 c 128,-1,34
 282 101 282 101 352 101 c 0,35,36
 412 101 412 101 464 114 c 128,-1,37
 516 127 516 127 550 143 c 1,38,-1
 550 28 l 1,39,40
 513 11 513 11 460.5 0.5 c 128,-1,41
 408 -10 408 -10 341 -10 c 0,0,1
EndSplineSet
EndChar

StartChar: zeta
Encoding: 950 950 386
Width: 600
GlyphClass: 2
Flags: W
AnchorPoint: "Anchor-3" 339 760 basechar 0
AnchorPoint: "Anchor-0" 337 -186 basechar 0
LayerCount: 2
Fore
SplineSet
329 -186 m 1,0,1
 358 -146 358 -146 379 -116.5 c 128,-1,2
 400 -87 400 -87 400 -54 c 0,3,4
 400 -26 400 -26 379 -16 c 128,-1,5
 358 -6 358 -6 309 4 c 0,6,7
 270 13 270 13 232 27 c 128,-1,8
 194 41 194 41 163 65.5 c 128,-1,9
 132 90 132 90 114 129 c 128,-1,10
 96 168 96 168 96 227 c 0,11,12
 96 314 96 314 134.5 389.5 c 128,-1,13
 173 465 173 465 237 532.5 c 128,-1,14
 301 600 301 600 376 662 c 1,15,16
 364 660 364 660 343 658 c 128,-1,17
 322 656 322 656 300 655.5 c 128,-1,18
 278 655 278 655 264 655 c 2,19,-1
 124 655 l 1,20,-1
 124 760 l 1,21,-1
 537 760 l 1,22,-1
 537 673 l 1,23,24
 437 591 437 591 378 524 c 128,-1,25
 319 457 319 457 290 403.5 c 128,-1,26
 261 350 261 350 252 309.5 c 128,-1,27
 243 269 243 269 243 239 c 0,28,29
 243 188 243 188 258.5 163 c 128,-1,30
 274 138 274 138 305 127 c 128,-1,31
 336 116 336 116 383 106 c 0,32,33
 467 88 467 88 503 58 c 128,-1,34
 539 28 539 28 539 -21 c 0,35,36
 539 -64 539 -64 518.5 -108 c 128,-1,37
 498 -152 498 -152 473 -186 c 1,38,-1
 329 -186 l 1,0,1
EndSplineSet
EndChar

StartChar: eta
Encoding: 951 951 387
Width: 600
GlyphClass: 2
Flags: W
AnchorPoint: "Anchor-4" 580 546 basechar 0
AnchorPoint: "Anchor-3" 300 546 basechar 0
AnchorPoint: "Anchor-0" 301 -240 basechar 0
LayerCount: 2
Fore
SplineSet
55 0 m 1,0,-1
 55 546 l 1,1,-1
 165 546 l 1,2,-1
 189 476 l 1,3,-1
 197 476 l 1,4,5
 247 556 247 556 362 556 c 0,6,7
 454 556 454 556 502 504.5 c 128,-1,8
 550 453 550 453 550 356 c 2,9,-1
 550 -240 l 1,10,-1
 405 -240 l 1,11,-1
 405 319 l 2,12,13
 405 379 405 379 381 407.5 c 128,-1,14
 357 436 357 436 312 436 c 0,15,16
 253 436 253 436 226.5 388 c 128,-1,17
 200 340 200 340 200 257 c 2,18,-1
 200 0 l 1,19,-1
 55 0 l 1,0,-1
EndSplineSet
EndChar

StartChar: theta
Encoding: 952 952 388
Width: 600
GlyphClass: 2
Flags: W
AnchorPoint: "Anchor-4" 580 765 basechar 0
AnchorPoint: "Anchor-3" 301 765 basechar 0
AnchorPoint: "Anchor-0" 299 0 basechar 0
LayerCount: 2
Fore
SplineSet
299 -10 m 0,0,1
 172 -10 172 -10 110 93 c 128,-1,2
 48 196 48 196 48 378 c 0,3,4
 48 500 48 500 73 586.5 c 128,-1,5
 98 673 98 673 153 719 c 128,-1,6
 208 765 208 765 299 765 c 0,7,8
 426 765 426 765 489 663.5 c 128,-1,9
 552 562 552 562 552 378 c 0,10,11
 552 256 552 256 526.5 169.5 c 128,-1,12
 501 83 501 83 445.5 36.5 c 128,-1,13
 390 -10 390 -10 299 -10 c 0,0,1
195 435 m 1,14,-1
 405 435 l 1,15,16
 401 548 401 548 376.5 604.5 c 128,-1,17
 352 661 352 661 300 661 c 0,18,19
 247 661 247 661 223 604.5 c 128,-1,20
 199 548 199 548 195 435 c 1,14,-1
299 94 m 0,21,22
 353 94 353 94 378 152.5 c 128,-1,23
 403 211 403 211 405 328 c 1,24,-1
 194 328 l 1,25,26
 196 212 196 212 220 153 c 128,-1,27
 244 94 244 94 299 94 c 0,21,22
EndSplineSet
EndChar

StartChar: iota
Encoding: 953 953 389
Width: 600
GlyphClass: 2
Flags: W
AnchorPoint: "Anchor-3" 288 546 basechar 0
AnchorPoint: "Anchor-0" 393 0 basechar 0
LayerCount: 2
Fore
SplineSet
396 -10 m 0,0,1
 346 -10 346 -10 305.5 6 c 128,-1,2
 265 22 265 22 241.5 61 c 128,-1,3
 218 100 218 100 218 170 c 2,4,-1
 218 546 l 1,5,-1
 361 546 l 1,6,-1
 361 170 l 2,7,8
 361 137 361 137 379 120.5 c 128,-1,9
 397 104 397 104 427 104 c 0,10,11
 452 104 452 104 475 109 c 128,-1,12
 498 114 498 114 520 121 c 1,13,-1
 520 14 l 1,14,15
 498 4 498 4 466 -3 c 128,-1,16
 434 -10 434 -10 396 -10 c 0,0,1
EndSplineSet
EndChar

StartChar: lambda
Encoding: 955 955 391
Width: 600
GlyphClass: 2
Flags: W
AnchorPoint: "Anchor-3" 301 766 basechar 0
AnchorPoint: "Anchor-0" 299 0 basechar 0
LayerCount: 2
Fore
SplineSet
496 -10 m 0,0,1
 438 -10 438 -10 409 21.5 c 128,-1,2
 380 53 380 53 367 98 c 2,3,-1
 325 238 l 2,4,5
 316 268 316 268 307.5 301 c 128,-1,6
 299 334 299 334 296 357 c 1,7,-1
 293 357 l 1,8,9
 286 328 286 328 275 294 c 128,-1,10
 264 260 264 260 257 241 c 2,11,-1
 171 0 l 1,12,-1
 23 0 l 1,13,-1
 234 517 l 1,14,-1
 216 565 l 2,15,16
 196 618 196 618 172.5 632 c 128,-1,17
 149 646 149 646 113 646 c 0,18,19
 94 646 94 646 81 644 c 128,-1,20
 68 642 68 642 58 640 c 1,21,-1
 58 758 l 1,22,23
 72 761 72 761 95 763.5 c 128,-1,24
 118 766 118 766 141 766 c 0,25,26
 230 766 230 766 277 721.5 c 128,-1,27
 324 677 324 677 350 592 c 2,28,-1
 471 194 l 2,29,30
 489 135 489 135 509 117.5 c 128,-1,31
 529 100 529 100 550 100 c 0,32,33
 565 100 565 100 583 105 c 1,34,-1
 583 5 l 1,35,36
 571 -1 571 -1 544.5 -5.5 c 128,-1,37
 518 -10 518 -10 496 -10 c 0,0,1
EndSplineSet
EndChar

StartChar: uni03BC
Encoding: 956 956 392
Width: 600
GlyphClass: 2
Flags: W
AnchorPoint: "Anchor-4" 580 546 basechar 0
AnchorPoint: "Anchor-3" 300 546 basechar 0
AnchorPoint: "Anchor-2" 540 10 basechar 0
AnchorPoint: "Anchor-0" 300 -240 basechar 0
LayerCount: 2
Fore
SplineSet
234 -10 m 0,0,1
 213 -10 213 -10 195 -7 c 1,2,-1
 195 -240 l 1,3,-1
 50 -240 l 1,4,-1
 50 546 l 1,5,-1
 195 546 l 1,6,-1
 195 227 l 2,7,8
 195 172 195 172 214 141 c 128,-1,9
 233 110 233 110 283 110 c 0,10,11
 330 110 330 110 355.5 132 c 128,-1,12
 381 154 381 154 390.5 194 c 128,-1,13
 400 234 400 234 400 289 c 2,14,-1
 400 546 l 1,15,-1
 545 546 l 1,16,-1
 545 0 l 1,17,-1
 435 0 l 1,18,-1
 411 70 l 1,19,-1
 403 70 l 1,20,21
 379 32 379 32 334.5 11 c 128,-1,22
 290 -10 290 -10 234 -10 c 0,0,1
EndSplineSet
EndChar

StartChar: nu
Encoding: 957 957 393
Width: 600
GlyphClass: 2
Flags: W
AnchorPoint: "Anchor-3" 303 546 basechar 0
AnchorPoint: "Anchor-0" 307 0 basechar 0
LayerCount: 2
Fore
SplineSet
221 0 m 1,0,-1
 37 546 l 1,1,-1
 184 546 l 1,2,-1
 276 243 l 2,3,4
 280 228 280 228 285.5 206 c 128,-1,5
 291 184 291 184 296.5 162 c 128,-1,6
 302 140 302 140 306 126 c 1,7,-1
 310 126 l 1,8,9
 360 203 360 203 380.5 303.5 c 128,-1,10
 401 404 401 404 401 546 c 1,11,-1
 545 546 l 1,12,13
 545 438 545 438 528 345.5 c 128,-1,14
 511 253 511 253 469 168.5 c 128,-1,15
 427 84 427 84 351 0 c 1,16,-1
 221 0 l 1,0,-1
EndSplineSet
EndChar

StartChar: xi
Encoding: 958 958 394
Width: 600
GlyphClass: 2
Flags: W
AnchorPoint: "Anchor-3" 339 760 basechar 0
AnchorPoint: "Anchor-0" 337 -186 basechar 0
LayerCount: 2
Fore
SplineSet
332 -186 m 1,0,1
 360 -148 360 -148 381 -114 c 128,-1,2
 402 -80 402 -80 402 -52 c 256,3,4
 402 -24 402 -24 378.5 -14.5 c 128,-1,5
 355 -5 355 -5 311 4 c 0,6,7
 294 8 294 8 267.5 15 c 128,-1,8
 241 22 241 22 211.5 35.5 c 128,-1,9
 182 49 182 49 156.5 71 c 128,-1,10
 131 93 131 93 114.5 127 c 128,-1,11
 98 161 98 161 98 209 c 0,12,13
 98 282 98 282 137.5 327 c 128,-1,14
 177 372 177 372 236 395 c 1,15,-1
 236 400 l 1,16,17
 185 412 185 412 157 443 c 128,-1,18
 129 474 129 474 129 525 c 0,19,20
 129 580 129 580 164 612 c 128,-1,21
 199 644 199 644 271 661 c 1,22,23
 245 658 245 658 213.5 656.5 c 128,-1,24
 182 655 182 655 159 655 c 2,25,-1
 126 655 l 1,26,-1
 126 760 l 1,27,-1
 515 760 l 1,28,-1
 515 660 l 1,29,-1
 479 660 l 2,30,31
 425 660 425 660 377.5 646.5 c 128,-1,32
 330 633 330 633 300.5 604 c 128,-1,33
 271 575 271 575 271 529 c 0,34,35
 271 489 271 489 301 467.5 c 128,-1,36
 331 446 331 446 409 446 c 2,37,-1
 490 446 l 1,38,-1
 490 346 l 1,39,-1
 408 346 l 2,40,41
 322 346 322 346 283.5 315 c 128,-1,42
 245 284 245 284 245 223 c 0,43,44
 245 182 245 182 262 160 c 128,-1,45
 279 138 279 138 310.5 127 c 128,-1,46
 342 116 342 116 386 105 c 0,47,48
 460 87 460 87 500.5 60.5 c 128,-1,49
 541 34 541 34 541 -21 c 0,50,51
 541 -64 541 -64 520.5 -108 c 128,-1,52
 500 -152 500 -152 475 -186 c 1,53,-1
 332 -186 l 1,0,1
EndSplineSet
EndChar

StartChar: pi
Encoding: 960 960 396
Width: 600
GlyphClass: 2
Flags: W
AnchorPoint: "Anchor-3" 297 546 basechar 0
AnchorPoint: "Anchor-0" 297 0 basechar 0
LayerCount: 2
Fore
SplineSet
485 -10 m 0,0,1
 422 -10 422 -10 384 27.5 c 128,-1,2
 346 65 346 65 346 147 c 2,3,-1
 346 436 l 1,4,-1
 244 436 l 1,5,-1
 244 0 l 1,6,-1
 107 0 l 1,7,-1
 107 436 l 1,8,-1
 8 436 l 1,9,-1
 8 497 l 1,10,-1
 94 546 l 1,11,-1
 592 546 l 1,12,-1
 592 436 l 1,13,-1
 483 436 l 1,14,-1
 483 153 l 2,15,16
 483 127 483 127 496.5 115 c 128,-1,17
 510 103 510 103 532 103 c 0,18,19
 561 103 561 103 591 119 c 1,20,-1
 591 16 l 1,21,22
 574 6 574 6 545.5 -2 c 128,-1,23
 517 -10 517 -10 485 -10 c 0,0,1
EndSplineSet
EndChar

StartChar: rho
Encoding: 961 961 397
Width: 600
GlyphClass: 2
Flags: W
AnchorPoint: "Anchor-3" 310 546 basechar 0
AnchorPoint: "Anchor-0" 300 -240 basechar 0
LayerCount: 2
Fore
SplineSet
55 -240 m 1,0,-1
 55 274 l 2,1,2
 55 408 55 408 123 481.5 c 128,-1,3
 191 555 191 555 313 555 c 0,4,5
 384 555 384 555 440 522 c 128,-1,6
 496 489 496 489 528 426 c 128,-1,7
 560 363 560 363 560 273 c 0,8,9
 560 137 560 137 500 63.5 c 128,-1,10
 440 -10 440 -10 338 -10 c 0,11,12
 299 -10 299 -10 263 1 c 128,-1,13
 227 12 227 12 200 29 c 1,14,-1
 191 29 l 1,15,16
 196 7 196 7 197.5 -26 c 128,-1,17
 199 -59 199 -59 199 -103 c 2,18,-1
 199 -240 l 1,19,-1
 55 -240 l 1,0,-1
310 105 m 0,20,21
 365 105 365 105 389 144.5 c 128,-1,22
 413 184 413 184 413 273 c 256,23,24
 413 362 413 362 389 401 c 128,-1,25
 365 440 365 440 310 440 c 0,26,27
 254 440 254 440 226.5 402 c 128,-1,28
 199 364 199 364 199 280 c 2,29,-1
 199 148 l 1,30,31
 221 127 221 127 250 116 c 128,-1,32
 279 105 279 105 310 105 c 0,20,21
EndSplineSet
EndChar

StartChar: sigma1
Encoding: 962 962 398
Width: 600
GlyphClass: 2
Flags: W
AnchorPoint: "Anchor-3" 350 546 basechar 0
AnchorPoint: "Anchor-0" 338 -189 basechar 0
LayerCount: 2
Fore
SplineSet
314 -186 m 1,0,1
 342 -146 342 -146 363.5 -104 c 128,-1,2
 385 -62 385 -62 385 -37 c 0,3,4
 385 -14 385 -14 362.5 -5 c 128,-1,5
 340 4 340 4 293 14 c 0,6,7
 224 30 224 30 174 58 c 128,-1,8
 124 86 124 86 97 137.5 c 128,-1,9
 70 189 70 189 70 275 c 0,10,11
 70 375 70 375 105 436.5 c 128,-1,12
 140 498 140 498 203 526.5 c 128,-1,13
 266 555 266 555 350 555 c 0,14,15
 396 555 396 555 440 546 c 128,-1,16
 484 537 484 537 523 517 c 1,17,-1
 481 408 l 1,18,19
 446 427 446 427 413.5 433 c 128,-1,20
 381 439 381 439 358 439 c 0,21,22
 281 439 281 439 248.5 394 c 128,-1,23
 216 349 216 349 216 273 c 0,24,25
 216 212 216 212 233.5 182.5 c 128,-1,26
 251 153 251 153 285 140 c 128,-1,27
 319 127 319 127 367 116 c 0,28,29
 454 96 454 96 488.5 65 c 128,-1,30
 523 34 523 34 523 -15 c 0,31,32
 523 -59 523 -59 502.5 -105 c 128,-1,33
 482 -151 482 -151 457 -186 c 1,34,-1
 314 -186 l 1,0,1
EndSplineSet
EndChar

StartChar: sigma
Encoding: 963 963 399
Width: 600
GlyphClass: 2
Flags: W
AnchorPoint: "Anchor-3" 290 546 basechar 0
AnchorPoint: "Anchor-0" 290 0 basechar 0
LayerCount: 2
Fore
SplineSet
289 -10 m 0,0,1
 174 -10 174 -10 107 60.5 c 128,-1,2
 40 131 40 131 40 268 c 0,3,4
 40 415 40 415 116.5 480.5 c 128,-1,5
 193 546 193 546 326 546 c 2,6,-1
 583 546 l 1,7,-1
 583 440 l 1,8,-1
 465 440 l 1,9,10
 500 408 500 408 516.5 360.5 c 128,-1,11
 533 313 533 313 533 260 c 0,12,13
 533 132 533 132 470.5 61 c 128,-1,14
 408 -10 408 -10 289 -10 c 0,0,1
287 105 m 0,15,16
 340 105 340 105 363 146 c 128,-1,17
 386 187 386 187 386 259 c 0,18,19
 386 313 386 313 374.5 358.5 c 128,-1,20
 363 404 363 404 342 440 c 1,21,-1
 317 440 l 2,22,23
 251 440 251 440 219 402.5 c 128,-1,24
 187 365 187 365 187 271 c 0,25,26
 187 195 187 195 209.5 150 c 128,-1,27
 232 105 232 105 287 105 c 0,15,16
EndSplineSet
EndChar

StartChar: tau
Encoding: 964 964 400
Width: 600
GlyphClass: 2
Flags: W
AnchorPoint: "Anchor-3" 312 546 basechar 0
AnchorPoint: "Anchor-0" 350 0 basechar 0
LayerCount: 2
Fore
SplineSet
379 -10 m 0,0,1
 328 -10 328 -10 287.5 5.5 c 128,-1,2
 247 21 247 21 223.5 60 c 128,-1,3
 200 99 200 99 200 169 c 2,4,-1
 200 437 l 1,5,-1
 52 437 l 1,6,-1
 52 496 l 1,7,-1
 137 545 l 1,8,-1
 538 545 l 1,9,-1
 538 437 l 1,10,-1
 343 437 l 1,11,-1
 343 170 l 2,12,13
 343 136 343 136 361.5 120 c 128,-1,14
 380 104 380 104 411 104 c 0,15,16
 435 104 435 104 458.5 109 c 128,-1,17
 482 114 482 114 504 121 c 1,18,-1
 504 14 l 1,19,20
 482 4 482 4 449.5 -3 c 128,-1,21
 417 -10 417 -10 379 -10 c 0,0,1
EndSplineSet
EndChar

StartChar: upsilon
Encoding: 965 965 401
Width: 600
GlyphClass: 2
Flags: W
AnchorPoint: "Anchor-3" 300 546 basechar 0
AnchorPoint: "Anchor-0" 297 0 basechar 0
LayerCount: 2
Fore
SplineSet
294 -9 m 0,0,1
 200 -9 200 -9 148.5 25.5 c 128,-1,2
 97 60 97 60 76 118 c 128,-1,3
 55 176 55 176 55 248 c 2,4,-1
 55 545 l 1,5,-1
 198 545 l 1,6,-1
 198 244 l 2,7,8
 198 171 198 171 222 138 c 128,-1,9
 246 105 246 105 299 105 c 0,10,11
 360 105 360 105 390 149.5 c 128,-1,12
 420 194 420 194 420 300 c 0,13,14
 420 364 420 364 410.5 422 c 128,-1,15
 401 480 401 480 385 545 c 1,16,-1
 529 545 l 1,17,18
 546 480 546 480 554.5 423 c 128,-1,19
 563 366 563 366 563 296 c 0,20,21
 563 138 563 138 494.5 64.5 c 128,-1,22
 426 -9 426 -9 294 -9 c 0,0,1
EndSplineSet
EndChar

StartChar: phi
Encoding: 966 966 402
Width: 600
GlyphClass: 2
Flags: W
AnchorPoint: "Anchor-3" 297 546 basechar 0
AnchorPoint: "Anchor-0" 297 -240 basechar 0
LayerCount: 2
Fore
SplineSet
237 -240 m 1,0,-1
 237 -6 l 1,1,2
 146 2 146 2 93 72 c 128,-1,3
 40 142 40 142 40 270 c 0,4,5
 40 429 40 429 133 554 c 1,6,-1
 221 498 l 1,7,8
 196 452 196 452 179.5 392 c 128,-1,9
 163 332 163 332 159 264 c 1,10,11
 159 189 159 189 180.5 148 c 128,-1,12
 202 107 202 107 237 97 c 1,13,-1
 237 352 l 2,14,15
 237 454 237 454 276.5 504 c 128,-1,16
 316 554 316 554 386 554 c 0,17,18
 446 554 446 554 484.5 520.5 c 128,-1,19
 523 487 523 487 541.5 428 c 128,-1,20
 560 369 560 369 560 293 c 0,21,22
 560 162 560 162 507 83.5 c 128,-1,23
 454 5 454 5 356 -6 c 1,24,-1
 356 -240 l 1,25,-1
 237 -240 l 1,0,-1
356 97 m 1,26,27
 394 104 394 104 417 150 c 128,-1,28
 440 196 440 196 440 302 c 0,29,30
 440 369 440 369 429 409.5 c 128,-1,31
 418 450 418 450 391 450 c 0,32,33
 372 450 372 450 364 425.5 c 128,-1,34
 356 401 356 401 356 357 c 2,35,-1
 356 97 l 1,26,27
EndSplineSet
EndChar

StartChar: chi
Encoding: 967 967 403
Width: 600
GlyphClass: 2
Flags: W
AnchorPoint: "Anchor-4" 580 546 basechar 0
AnchorPoint: "Anchor-3" 313 546 basechar 0
AnchorPoint: "Anchor-0" 313 -246 basechar 0
LayerCount: 2
Fore
SplineSet
492 -246 m 0,0,1
 427 -246 427 -246 392.5 -216.5 c 128,-1,2
 358 -187 358 -187 339 -112 c 2,3,-1
 298 53 l 1,4,-1
 166 -240 l 1,5,-1
 20 -240 l 1,6,-1
 241 194 l 1,7,-1
 194 366 l 2,8,9
 184 405 184 405 163.5 418.5 c 128,-1,10
 143 432 143 432 119 432 c 0,11,12
 110 432 110 432 96 430 c 128,-1,13
 82 428 82 428 66 423 c 1,14,-1
 66 537 l 1,15,16
 89 544 89 544 109 548 c 128,-1,17
 129 552 129 552 159 552 c 0,18,19
 202 552 202 552 229 539.5 c 128,-1,20
 256 527 256 527 274 495.5 c 128,-1,21
 292 464 292 464 307 409 c 2,22,-1
 332 316 l 1,23,-1
 433 546 l 1,24,-1
 578 546 l 1,25,-1
 385 173 l 1,26,-1
 452 -66 l 2,27,28
 462 -101 462 -101 482 -113.5 c 128,-1,29
 502 -126 502 -126 533 -126 c 0,30,31
 541 -126 541 -126 553 -125 c 128,-1,32
 565 -124 565 -124 580 -120 c 1,33,-1
 580 -232 l 1,34,35
 560 -239 560 -239 539 -242.5 c 128,-1,36
 518 -246 518 -246 492 -246 c 0,0,1
EndSplineSet
EndChar

StartChar: psi
Encoding: 968 968 404
Width: 600
GlyphClass: 2
Flags: W
AnchorPoint: "Anchor-3" 303 759 basechar 0
AnchorPoint: "Anchor-0" 303 -240 basechar 0
LayerCount: 2
Fore
SplineSet
244 -240 m 1,0,-1
 244 -9 l 1,1,2
 150 -4 150 -4 102.5 57 c 128,-1,3
 55 118 55 118 55 251 c 2,4,-1
 55 545 l 1,5,-1
 177 545 l 1,6,-1
 177 258 l 2,7,8
 177 181 177 181 192 142.5 c 128,-1,9
 207 104 207 104 244 99 c 1,10,-1
 244 759 l 1,11,-1
 363 759 l 1,12,-1
 363 99 l 1,13,14
 404 106 404 106 420.5 148.5 c 128,-1,15
 437 191 437 191 437 285 c 0,16,17
 437 347 437 347 429.5 412 c 128,-1,18
 422 477 422 477 405 545 c 1,19,-1
 524 545 l 1,20,21
 544 468 544 468 552 406 c 128,-1,22
 560 344 560 344 560 283 c 0,23,24
 560 146 560 146 510 72 c 128,-1,25
 460 -2 460 -2 363 -9 c 1,26,-1
 363 -240 l 1,27,-1
 244 -240 l 1,0,-1
EndSplineSet
EndChar

StartChar: omega
Encoding: 969 969 405
Width: 600
GlyphClass: 2
Flags: W
AnchorPoint: "Anchor-3" 300 546 basechar 0
AnchorPoint: "Anchor-0" 300 0 basechar 0
LayerCount: 2
Fore
SplineSet
190 -10 m 0,0,1
 118 -10 118 -10 79 61.5 c 128,-1,2
 40 133 40 133 40 270 c 0,3,4
 40 345 40 345 52 410.5 c 128,-1,5
 64 476 64 476 86 545 c 1,6,-1
 208 545 l 1,7,8
 186 481 186 481 174 414.5 c 128,-1,9
 162 348 162 348 162 258 c 0,10,11
 162 103 162 103 204 103 c 0,12,13
 224 103 224 103 232 135 c 128,-1,14
 240 167 240 167 240 237 c 2,15,-1
 240 370 l 1,16,-1
 359 370 l 1,17,-1
 359 237 l 2,18,19
 359 165 359 165 367.5 134 c 128,-1,20
 376 103 376 103 395 103 c 0,21,22
 438 103 438 103 438 258 c 0,23,24
 438 336 438 336 427 405.5 c 128,-1,25
 416 475 416 475 391 545 c 1,26,-1
 515 545 l 1,27,28
 538 477 538 477 549 409.5 c 128,-1,29
 560 342 560 342 560 272 c 0,30,31
 560 132 560 132 520 61 c 128,-1,32
 480 -10 480 -10 409 -10 c 0,33,34
 366 -10 366 -10 339 16 c 128,-1,35
 312 42 312 42 302 89 c 1,36,-1
 298 89 l 1,37,38
 286 37 286 37 258 13.5 c 128,-1,39
 230 -10 230 -10 190 -10 c 0,0,1
EndSplineSet
EndChar

StartChar: afii10051
Encoding: 1026 1026 412
Width: 600
GlyphClass: 2
Flags: W
AnchorPoint: "Anchor-3" 195 714 basechar 0
AnchorPoint: "Anchor-0" 300 0 basechar 0
LayerCount: 2
Fore
SplineSet
365 -9 m 0,0,1
 341 -9 341 -9 324.5 -4.5 c 128,-1,2
 308 0 308 0 289 9 c 1,3,-1
 289 130 l 1,4,5
 305 122 305 122 318.5 116 c 128,-1,6
 332 110 332 110 353 110 c 0,7,8
 366 110 366 110 380 114.5 c 128,-1,9
 394 119 394 119 404.5 135.5 c 128,-1,10
 415 152 415 152 415 188 c 2,11,-1
 415 250 l 2,12,13
 415 295 415 295 388 313.5 c 128,-1,14
 361 332 361 332 298 332 c 2,15,-1
 242 332 l 1,16,-1
 242 0 l 1,17,-1
 97 0 l 1,18,-1
 97 593 l 1,19,-1
 0 593 l 1,20,-1
 0 714 l 1,21,-1
 406 714 l 1,22,-1
 406 593 l 1,23,-1
 242 593 l 1,24,-1
 242 453 l 1,25,-1
 304 453 l 2,26,27
 422 453 422 453 486 402 c 128,-1,28
 550 351 550 351 550 255 c 2,29,-1
 550 180 l 2,30,31
 550 92 550 92 499 41.5 c 128,-1,32
 448 -9 448 -9 365 -9 c 0,0,1
EndSplineSet
EndChar

StartChar: afii10053
Encoding: 1028 1028 414
Width: 600
GlyphClass: 2
Flags: W
AnchorPoint: "Anchor-3" 364 714 basechar 0
AnchorPoint: "Anchor-0" 358 0 basechar 0
LayerCount: 2
Fore
SplineSet
358 -10 m 0,0,1
 200 -10 200 -10 115 85.5 c 128,-1,2
 30 181 30 181 30 349 c 0,3,4
 30 460 30 460 68 544.5 c 128,-1,5
 106 629 106 629 180 676.5 c 128,-1,6
 254 724 254 724 362 724 c 0,7,8
 412 724 412 724 463 713 c 128,-1,9
 514 702 514 702 561 679 c 1,10,-1
 524 568 l 1,11,12
 485 588 485 588 446.5 598 c 128,-1,13
 408 608 408 608 367 608 c 0,14,15
 302 608 302 608 262.5 583 c 128,-1,16
 223 558 223 558 202.5 516 c 128,-1,17
 182 474 182 474 174 423 c 1,18,-1
 464 423 l 1,19,-1
 464 312 l 1,20,-1
 173 312 l 1,21,22
 176 255 176 255 197.5 208.5 c 128,-1,23
 219 162 219 162 262.5 135 c 128,-1,24
 306 108 306 108 373 108 c 0,25,26
 417 108 417 108 458.5 119 c 128,-1,27
 500 130 500 130 539 147 c 1,28,-1
 539 26 l 1,29,30
 500 8 500 8 452.5 -1 c 128,-1,31
 405 -10 405 -10 358 -10 c 0,0,1
EndSplineSet
EndChar

StartChar: afii10058
Encoding: 1033 1033 419
Width: 600
GlyphClass: 2
Flags: W
AnchorPoint: "Anchor-3" 249 714 basechar 0
AnchorPoint: "Anchor-0" 300 0 basechar 0
LayerCount: 2
Fore
SplineSet
67 -9 m 0,0,1
 48 -9 48 -9 34 -6.5 c 128,-1,2
 20 -4 20 -4 10 1 c 1,3,-1
 10 105 l 1,4,5
 25 96 25 96 41 96 c 0,6,7
 60 96 60 96 67.5 115.5 c 128,-1,8
 75 135 75 135 81 182 c 0,9,10
 83 196 83 196 86 244.5 c 128,-1,11
 89 293 89 293 92.5 366.5 c 128,-1,12
 96 440 96 440 100 529.5 c 128,-1,13
 104 619 104 619 109 714 c 1,14,-1
 387 714 l 1,15,-1
 387 436 l 1,16,-1
 411 436 l 2,17,18
 509 436 509 436 554.5 382.5 c 128,-1,19
 600 329 600 329 600 221 c 256,20,21
 600 113 600 113 550 56.5 c 128,-1,22
 500 0 500 0 406 0 c 2,23,-1
 275 0 l 1,24,-1
 275 595 l 1,25,-1
 215 595 l 1,26,27
 207 414 207 414 199.5 291 c 128,-1,28
 192 168 192 168 186 127 c 0,29,30
 176 56 176 56 148 23.5 c 128,-1,31
 120 -9 120 -9 67 -9 c 0,0,1
387 110 m 1,32,-1
 417 110 l 2,33,34
 485 110 485 110 485 218 c 0,35,36
 485 273 485 273 470 299.5 c 128,-1,37
 455 326 455 326 418 326 c 2,38,-1
 387 326 l 1,39,-1
 387 110 l 1,32,-1
EndSplineSet
EndChar

StartChar: afii10059
Encoding: 1034 1034 420
Width: 600
GlyphClass: 2
Flags: W
AnchorPoint: "Anchor-3" 213 714 basechar 0
AnchorPoint: "Anchor-0" 300 0 basechar 0
LayerCount: 2
Fore
SplineSet
40 0 m 1,0,-1
 40 714 l 1,1,-1
 169 714 l 1,2,-1
 169 438 l 1,3,-1
 258 438 l 1,4,-1
 258 714 l 1,5,-1
 387 714 l 1,6,-1
 387 439 l 1,7,-1
 398 439 l 2,8,9
 496 439 496 439 548 385.5 c 128,-1,10
 600 332 600 332 600 224 c 256,11,12
 600 116 600 116 549 58 c 128,-1,13
 498 0 498 0 404 0 c 2,14,-1
 258 0 l 1,15,-1
 258 328 l 1,16,-1
 169 328 l 1,17,-1
 169 0 l 1,18,-1
 40 0 l 1,0,-1
387 110 m 1,19,-1
 400 110 l 2,20,21
 472 110 472 110 472 221 c 0,22,23
 472 329 472 329 399 329 c 2,24,-1
 387 329 l 1,25,-1
 387 110 l 1,19,-1
EndSplineSet
EndChar

StartChar: afii10060
Encoding: 1035 1035 421
Width: 600
GlyphClass: 2
Flags: W
AnchorPoint: "Anchor-3" 205 714 basechar 0
AnchorPoint: "Anchor-0" 328 0 basechar 0
LayerCount: 2
Fore
SplineSet
98 0 m 1,0,-1
 98 593 l 1,1,-1
 0 593 l 1,2,-1
 0 714 l 1,3,-1
 400 714 l 1,4,-1
 400 593 l 1,5,-1
 243 593 l 1,6,-1
 243 453 l 1,7,-1
 314 453 l 2,8,9
 390 453 390 453 437 439 c 128,-1,10
 484 425 484 425 508.5 399.5 c 128,-1,11
 533 374 533 374 541.5 339 c 128,-1,12
 550 304 550 304 550 261 c 2,13,-1
 550 0 l 1,14,-1
 405 0 l 1,15,-1
 405 236 l 2,16,17
 405 260 405 260 400.5 282 c 128,-1,18
 396 304 396 304 375 318 c 128,-1,19
 354 332 354 332 305 332 c 2,20,-1
 243 332 l 1,21,-1
 243 0 l 1,22,-1
 98 0 l 1,0,-1
EndSplineSet
EndChar

StartChar: afii10145
Encoding: 1039 1039 424
Width: 600
GlyphClass: 2
Flags: W
AnchorPoint: "Anchor-3" 300 714 basechar 0
AnchorPoint: "Anchor-0" 300 -208 basechar 0
LayerCount: 2
Fore
SplineSet
238 -208 m 1,0,-1
 238 0 l 1,1,-1
 45 0 l 1,2,-1
 45 714 l 1,3,-1
 190 714 l 1,4,-1
 190 121 l 1,5,-1
 410 121 l 1,6,-1
 410 714 l 1,7,-1
 555 714 l 1,8,-1
 555 0 l 1,9,-1
 362 0 l 1,10,-1
 362 -208 l 1,11,-1
 238 -208 l 1,0,-1
EndSplineSet
EndChar

StartChar: afii10018
Encoding: 1041 1041 426
Width: 600
GlyphClass: 2
Flags: W
AnchorPoint: "Anchor-3" 300 714 basechar 0
AnchorPoint: "Anchor-0" 300 0 basechar 0
LayerCount: 2
Fore
SplineSet
80 0 m 1,0,-1
 80 714 l 1,1,-1
 509 714 l 1,2,-1
 509 594 l 1,3,-1
 225 594 l 1,4,-1
 225 437 l 1,5,-1
 290 437 l 2,6,7
 384 437 384 437 443.5 409.5 c 128,-1,8
 503 382 503 382 531.5 333 c 128,-1,9
 560 284 560 284 560 222 c 0,10,11
 560 117 560 117 495.5 58.5 c 128,-1,12
 431 0 431 0 289 0 c 2,13,-1
 80 0 l 1,0,-1
225 119 m 1,14,-1
 282 119 l 2,15,16
 344 119 344 119 378.5 142.5 c 128,-1,17
 413 166 413 166 413 222 c 0,18,19
 413 280 413 280 375.5 299 c 128,-1,20
 338 318 338 318 270 318 c 2,21,-1
 225 318 l 1,22,-1
 225 119 l 1,14,-1
EndSplineSet
EndChar

StartChar: afii10021
Encoding: 1044 1044 429
Width: 600
GlyphClass: 2
Flags: W
AnchorPoint: "Anchor-3" 350 714 basechar 0
AnchorPoint: "Anchor-0" 300 -206 basechar 0
LayerCount: 2
Fore
SplineSet
10 -206 m 1,0,-1
 10 121 l 1,1,-1
 65 121 l 1,2,3
 106 234 106 234 139.5 377 c 128,-1,4
 173 520 173 520 189 714 c 1,5,-1
 515 714 l 1,6,-1
 515 121 l 1,7,-1
 580 121 l 1,8,-1
 580 -206 l 1,9,-1
 450 -206 l 1,10,-1
 450 0 l 1,11,-1
 140 0 l 1,12,-1
 140 -206 l 1,13,-1
 10 -206 l 1,0,-1
218 121 m 1,14,-1
 380 121 l 1,15,-1
 380 592 l 1,16,-1
 305 592 l 1,17,18
 300 522 300 522 287 440 c 128,-1,19
 274 358 274 358 256.5 275 c 128,-1,20
 239 192 239 192 218 121 c 1,14,-1
EndSplineSet
EndChar

StartChar: afii10024
Encoding: 1046 1046 431
Width: 600
GlyphClass: 2
Flags: W
AnchorPoint: "Anchor-3" 300 714 basechar 0
AnchorPoint: "Anchor-0" 300 0 basechar 0
LayerCount: 2
Fore
SplineSet
5 0 m 1,0,-1
 122 368 l 1,1,-1
 11 714 l 1,2,-1
 144 714 l 1,3,-1
 238 368 l 1,4,-1
 238 714 l 1,5,-1
 364 714 l 1,6,-1
 364 368 l 1,7,-1
 458 714 l 1,8,-1
 588 714 l 1,9,-1
 481 368 l 1,10,-1
 595 0 l 1,11,-1
 462 0 l 1,12,-1
 364 362 l 1,13,-1
 364 0 l 1,14,-1
 238 0 l 1,15,-1
 238 362 l 1,16,-1
 140 0 l 1,17,-1
 5 0 l 1,0,-1
EndSplineSet
EndChar

StartChar: afii10025
Encoding: 1047 1047 432
Width: 600
GlyphClass: 2
Flags: W
AnchorPoint: "Anchor-3" 291 714 basechar 0
AnchorPoint: "Anchor-0" 300 0 basechar 0
LayerCount: 2
Fore
SplineSet
270 -10 m 0,0,1
 212 -10 212 -10 152.5 1.5 c 128,-1,2
 93 13 93 13 52 32 c 1,3,-1
 52 161 l 1,4,5
 96 139 96 139 152 125 c 128,-1,6
 208 111 208 111 259 111 c 0,7,8
 345 111 345 111 381 136.5 c 128,-1,9
 417 162 417 162 417 209 c 0,10,11
 417 264 417 264 376.5 289 c 128,-1,12
 336 314 336 314 242 314 c 2,13,-1
 148 314 l 1,14,-1
 148 428 l 1,15,-1
 236 428 l 2,16,17
 300 428 300 428 335 439.5 c 128,-1,18
 370 451 370 451 384 472 c 128,-1,19
 398 493 398 493 398 522 c 0,20,21
 398 563 398 563 373.5 585.5 c 128,-1,22
 349 608 349 608 286 608 c 0,23,24
 236 608 236 608 193 591.5 c 128,-1,25
 150 575 150 575 112 549 c 1,26,-1
 49 646 l 1,27,28
 102 683 102 683 158.5 703.5 c 128,-1,29
 215 724 215 724 295 724 c 0,30,31
 382 724 382 724 436 700.5 c 128,-1,32
 490 677 490 677 515 635.5 c 128,-1,33
 540 594 540 594 540 541 c 0,34,35
 540 469 540 469 502 429.5 c 128,-1,36
 464 390 464 390 397 378 c 1,37,-1
 397 375 l 1,38,39
 482 364 482 364 521.5 320.5 c 128,-1,40
 561 277 561 277 561 198 c 0,41,42
 561 138 561 138 531.5 91 c 128,-1,43
 502 44 502 44 438 17 c 128,-1,44
 374 -10 374 -10 270 -10 c 0,0,1
EndSplineSet
EndChar

StartChar: afii10026
Encoding: 1048 1048 433
Width: 600
GlyphClass: 2
Flags: W
AnchorPoint: "Anchor-3" 300 714 basechar 0
AnchorPoint: "Anchor-0" 280 0 basechar 0
LayerCount: 2
Fore
SplineSet
45 0 m 1,0,-1
 45 714 l 1,1,-1
 176 714 l 1,2,-1
 176 364 l 2,3,4
 176 339 176 339 175 308.5 c 128,-1,5
 174 278 174 278 173 248.5 c 128,-1,6
 172 219 172 219 171 197 c 128,-1,7
 170 175 170 175 169 167 c 1,8,-1
 172 167 l 1,9,-1
 372 714 l 1,10,-1
 555 714 l 1,11,-1
 555 0 l 1,12,-1
 425 0 l 1,13,-1
 425 347 l 2,14,15
 425 374 425 374 426 406.5 c 128,-1,16
 427 439 427 439 428.5 469 c 128,-1,17
 430 499 430 499 431.5 521.5 c 128,-1,18
 433 544 433 544 434 552 c 1,19,-1
 430 552 l 1,20,-1
 229 0 l 1,21,-1
 45 0 l 1,0,-1
EndSplineSet
EndChar

StartChar: afii10028
Encoding: 1050 1050 435
Width: 600
GlyphClass: 2
Flags: W
AnchorPoint: "Anchor-3" 300 714 basechar 0
AnchorPoint: "Anchor-0" 295 0 basechar 0
LayerCount: 2
Fore
SplineSet
45 0 m 1,0,-1
 45 714 l 1,1,-1
 190 714 l 1,2,-1
 190 368 l 1,3,-1
 389 714 l 1,4,-1
 552 714 l 1,5,-1
 342 371 l 1,6,-1
 566 0 l 1,7,-1
 393 0 l 1,8,-1
 190 362 l 1,9,-1
 190 0 l 1,10,-1
 45 0 l 1,0,-1
EndSplineSet
EndChar

StartChar: afii10029
Encoding: 1051 1051 436
Width: 600
GlyphClass: 2
Flags: W
AnchorPoint: "Anchor-3" 380 714 basechar 0
AnchorPoint: "Anchor-0" 300 0 basechar 0
LayerCount: 2
Fore
SplineSet
89 -10 m 0,0,1
 50 -10 50 -10 17 1 c 1,2,-1
 17 120 l 1,3,4
 45 110 45 110 66 110 c 0,5,6
 98 110 98 110 117 141.5 c 128,-1,7
 136 173 136 173 147 256 c 0,8,9
 152 290 152 290 154.5 327.5 c 128,-1,10
 157 365 157 365 160 416 c 128,-1,11
 163 467 163 467 167.5 539.5 c 128,-1,12
 172 612 172 612 179 714 c 1,13,-1
 555 714 l 1,14,-1
 555 0 l 1,15,-1
 410 0 l 1,16,-1
 410 593 l 1,17,-1
 306 593 l 1,18,19
 297 453 297 453 292 353 c 128,-1,20
 287 253 287 253 276 187 c 0,21,22
 260 93 260 93 217.5 41.5 c 128,-1,23
 175 -10 175 -10 89 -10 c 0,0,1
EndSplineSet
EndChar

StartChar: afii10033
Encoding: 1055 1055 440
Width: 600
GlyphClass: 2
Flags: W
AnchorPoint: "Anchor-3" 300 714 basechar 0
AnchorPoint: "Anchor-0" 300 0 basechar 0
LayerCount: 2
Fore
SplineSet
45 0 m 1,0,-1
 45 714 l 1,1,-1
 555 714 l 1,2,-1
 555 0 l 1,3,-1
 410 0 l 1,4,-1
 410 593 l 1,5,-1
 190 593 l 1,6,-1
 190 0 l 1,7,-1
 45 0 l 1,0,-1
EndSplineSet
EndChar

StartChar: afii10037
Encoding: 1059 1059 444
Width: 600
GlyphClass: 2
Flags: W
AnchorPoint: "Anchor-3" 300 714 basechar 0
AnchorPoint: "Anchor-0" 200 0 basechar 0
LayerCount: 2
Fore
SplineSet
136 -10 m 0,0,1
 109 -10 109 -10 78.5 -6 c 128,-1,2
 48 -2 48 -2 23 5 c 1,3,-1
 23 131 l 1,4,5
 47 121 47 121 75.5 117 c 128,-1,6
 104 113 104 113 129 113 c 0,7,8
 179 113 179 113 202.5 137.5 c 128,-1,9
 226 162 226 162 240 199 c 1,10,-1
 20 714 l 1,11,-1
 174 714 l 1,12,-1
 287 402 l 2,13,14
 294 383 294 383 301 359.5 c 128,-1,15
 308 336 308 336 313 311 c 1,16,-1
 318 311 l 1,17,18
 321 336 321 336 327 359.5 c 128,-1,19
 333 383 333 383 339 405 c 2,20,-1
 429 714 l 1,21,-1
 580 714 l 1,22,-1
 397 208 l 2,23,24
 372 139 372 139 340 90 c 128,-1,25
 308 41 308 41 259 15.5 c 128,-1,26
 210 -10 210 -10 136 -10 c 0,0,1
EndSplineSet
EndChar

StartChar: afii10038
Encoding: 1060 1060 445
Width: 600
GlyphClass: 2
Flags: W
AnchorPoint: "Anchor-3" 300 714 basechar 0
AnchorPoint: "Anchor-0" 300 0 basechar 0
LayerCount: 2
Fore
SplineSet
234 -10 m 1,0,-1
 234 100 l 1,1,2
 172 102 172 102 131 126 c 128,-1,3
 90 150 90 150 65.5 189.5 c 128,-1,4
 41 229 41 229 30.5 276.5 c 128,-1,5
 20 324 20 324 20 372 c 256,6,7
 20 420 20 420 30.5 466 c 128,-1,8
 41 512 41 512 65 549.5 c 128,-1,9
 89 587 89 587 130.5 610.5 c 128,-1,10
 172 634 172 634 234 636 c 1,11,-1
 234 724 l 1,12,-1
 365 724 l 1,13,-1
 365 636 l 1,14,15
 427 634 427 634 468.5 610.5 c 128,-1,16
 510 587 510 587 534.5 549.5 c 128,-1,17
 559 512 559 512 569.5 466.5 c 128,-1,18
 580 421 580 421 580 374 c 0,19,20
 580 329 580 329 570 282 c 128,-1,21
 560 235 560 235 536.5 194.5 c 128,-1,22
 513 154 513 154 471 128 c 128,-1,23
 429 102 429 102 365 100 c 1,24,-1
 365 -10 l 1,25,-1
 234 -10 l 1,0,-1
234 213 m 1,26,-1
 234 522 l 1,27,28
 189 518 189 518 173 476.5 c 128,-1,29
 157 435 157 435 157 372 c 0,30,31
 157 302 157 302 175 259.5 c 128,-1,32
 193 217 193 217 234 213 c 1,26,-1
365 213 m 1,33,34
 406 217 406 217 424.5 259.5 c 128,-1,35
 443 302 443 302 443 371 c 0,36,37
 443 435 443 435 426 476.5 c 128,-1,38
 409 518 409 518 365 522 c 1,39,-1
 365 213 l 1,33,34
EndSplineSet
EndChar

StartChar: afii10040
Encoding: 1062 1062 447
Width: 600
GlyphClass: 2
Flags: W
AnchorPoint: "Anchor-3" 300 714 basechar 0
AnchorPoint: "Anchor-0" 300 -206 basechar 0
LayerCount: 2
Fore
SplineSet
45 0 m 1,0,-1
 45 714 l 1,1,-1
 190 714 l 1,2,-1
 190 121 l 1,3,-1
 410 121 l 1,4,-1
 410 714 l 1,5,-1
 555 714 l 1,6,-1
 555 116 l 1,7,-1
 600 116 l 1,8,-1
 600 -206 l 1,9,-1
 460 -206 l 1,10,-1
 460 0 l 1,11,-1
 45 0 l 1,0,-1
EndSplineSet
EndChar

StartChar: afii10041
Encoding: 1063 1063 448
Width: 600
GlyphClass: 2
Flags: W
AnchorPoint: "Anchor-3" 300 714 basechar 0
AnchorPoint: "Anchor-0" 300 0 basechar 0
LayerCount: 2
Fore
SplineSet
410 0 m 1,0,-1
 410 272 l 1,1,2
 371 255 371 255 332 244.5 c 128,-1,3
 293 234 293 234 237 234 c 0,4,5
 148 234 148 234 96.5 282 c 128,-1,6
 45 330 45 330 45 420 c 2,7,-1
 45 714 l 1,8,-1
 190 714 l 1,9,-1
 190 460 l 2,10,11
 190 355 190 355 282 355 c 0,12,13
 322 355 322 355 352.5 364 c 128,-1,14
 383 373 383 373 410 386 c 1,15,-1
 410 714 l 1,16,-1
 555 714 l 1,17,-1
 555 0 l 1,18,-1
 410 0 l 1,0,-1
EndSplineSet
EndChar

StartChar: afii10042
Encoding: 1064 1064 449
Width: 600
GlyphClass: 2
Flags: W
AnchorPoint: "Anchor-3" 300 714 basechar 0
AnchorPoint: "Anchor-0" 300 0 basechar 0
LayerCount: 2
Fore
SplineSet
40 0 m 1,0,-1
 40 714 l 1,1,-1
 166 714 l 1,2,-1
 166 112 l 1,3,-1
 237 112 l 1,4,-1
 237 714 l 1,5,-1
 363 714 l 1,6,-1
 363 112 l 1,7,-1
 434 112 l 1,8,-1
 434 714 l 1,9,-1
 560 714 l 1,10,-1
 560 0 l 1,11,-1
 40 0 l 1,0,-1
EndSplineSet
EndChar

StartChar: afii10043
Encoding: 1065 1065 450
Width: 600
GlyphClass: 2
Flags: W
AnchorPoint: "Anchor-3" 300 714 basechar 0
AnchorPoint: "Anchor-0" 300 -208 basechar 0
LayerCount: 2
Fore
SplineSet
40 0 m 1,0,-1
 40 714 l 1,1,-1
 166 714 l 1,2,-1
 166 112 l 1,3,-1
 237 112 l 1,4,-1
 237 714 l 1,5,-1
 363 714 l 1,6,-1
 363 112 l 1,7,-1
 434 112 l 1,8,-1
 434 714 l 1,9,-1
 560 714 l 1,10,-1
 560 112 l 1,11,-1
 600 112 l 1,12,-1
 600 -208 l 1,13,-1
 475 -208 l 1,14,-1
 475 0 l 1,15,-1
 40 0 l 1,0,-1
EndSplineSet
EndChar

StartChar: afii10044
Encoding: 1066 1066 451
Width: 600
GlyphClass: 2
Flags: W
AnchorPoint: "Anchor-3" 300 714 basechar 0
AnchorPoint: "Anchor-0" 300 0 basechar 0
LayerCount: 2
Fore
SplineSet
100 0 m 1,0,-1
 100 593 l 1,1,-1
 0 593 l 1,2,-1
 0 714 l 1,3,-1
 245 714 l 1,4,-1
 245 437 l 1,5,-1
 312 437 l 2,6,7
 405 437 405 437 464.5 409 c 128,-1,8
 524 381 524 381 552 332.5 c 128,-1,9
 580 284 580 284 580 222 c 0,10,11
 580 117 580 117 515 58.5 c 128,-1,12
 450 0 450 0 310 0 c 2,13,-1
 100 0 l 1,0,-1
245 119 m 1,14,-1
 304 119 l 2,15,16
 364 119 364 119 398.5 142.5 c 128,-1,17
 433 166 433 166 433 222 c 0,18,19
 433 280 433 280 395 299 c 128,-1,20
 357 318 357 318 292 318 c 2,21,-1
 245 318 l 1,22,-1
 245 119 l 1,14,-1
EndSplineSet
EndChar

StartChar: afii10045
Encoding: 1067 1067 452
Width: 600
GlyphClass: 2
Flags: W
AnchorPoint: "Anchor-3" 300 714 basechar 0
AnchorPoint: "Anchor-0" 300 0 basechar 0
LayerCount: 2
Fore
SplineSet
40 0 m 1,0,-1
 40 714 l 1,1,-1
 169 714 l 1,2,-1
 169 439 l 1,3,-1
 190 439 l 2,4,5
 294 439 294 439 348 385.5 c 128,-1,6
 402 332 402 332 402 224 c 256,7,8
 402 116 402 116 348 58 c 128,-1,9
 294 0 294 0 196 0 c 2,10,-1
 40 0 l 1,0,-1
430 0 m 1,11,-1
 430 714 l 1,12,-1
 559 714 l 1,13,-1
 559 0 l 1,14,-1
 430 0 l 1,11,-1
169 110 m 1,15,-1
 192 110 l 2,16,17
 274 110 274 110 274 221 c 0,18,19
 274 329 274 329 191 329 c 2,20,-1
 169 329 l 1,21,-1
 169 110 l 1,15,-1
EndSplineSet
EndChar

StartChar: afii10046
Encoding: 1068 1068 453
Width: 600
GlyphClass: 2
Flags: W
AnchorPoint: "Anchor-3" 300 714 basechar 0
AnchorPoint: "Anchor-0" 300 0 basechar 0
LayerCount: 2
Fore
SplineSet
80 0 m 1,0,-1
 80 714 l 1,1,-1
 225 714 l 1,2,-1
 225 437 l 1,3,-1
 292 437 l 2,4,5
 385 437 385 437 444 409 c 128,-1,6
 503 381 503 381 531.5 332.5 c 128,-1,7
 560 284 560 284 560 222 c 0,8,9
 560 117 560 117 495 58.5 c 128,-1,10
 430 0 430 0 290 0 c 2,11,-1
 80 0 l 1,0,-1
225 119 m 1,12,-1
 284 119 l 2,13,14
 344 119 344 119 378.5 142.5 c 128,-1,15
 413 166 413 166 413 222 c 0,16,17
 413 280 413 280 375 299 c 128,-1,18
 337 318 337 318 272 318 c 2,19,-1
 225 318 l 1,20,-1
 225 119 l 1,12,-1
EndSplineSet
EndChar

StartChar: afii10048
Encoding: 1070 1070 455
Width: 600
GlyphClass: 2
Flags: W
AnchorPoint: "Anchor-3" 300 714 basechar 0
AnchorPoint: "Anchor-0" 300 0 basechar 0
LayerCount: 2
Fore
SplineSet
40 0 m 1,0,-1
 40 714 l 1,1,-1
 155 714 l 1,2,-1
 155 427 l 1,3,-1
 228 427 l 1,4,5
 232 537 232 537 250.5 602 c 128,-1,6
 269 667 269 667 305.5 696 c 128,-1,7
 342 725 342 725 399 725 c 0,8,9
 460 725 460 725 496.5 690 c 128,-1,10
 533 655 533 655 550 574.5 c 128,-1,11
 567 494 567 494 567 357 c 0,12,13
 567 225 567 225 551.5 144.5 c 128,-1,14
 536 64 536 64 499 27 c 128,-1,15
 462 -10 462 -10 398 -10 c 0,16,17
 335 -10 335 -10 298.5 23.5 c 128,-1,18
 262 57 262 57 245.5 129 c 128,-1,19
 229 201 229 201 227 316 c 1,20,-1
 155 316 l 1,21,-1
 155 0 l 1,22,-1
 40 0 l 1,0,-1
397 105 m 256,23,24
 430 105 430 105 440.5 167.5 c 128,-1,25
 451 230 451 230 451 359 c 0,26,27
 451 487 451 487 440.5 548.5 c 128,-1,28
 430 610 430 610 397 610 c 0,29,30
 363 610 363 610 353 547.5 c 128,-1,31
 343 485 343 485 343 361 c 0,32,33
 343 228 343 228 353.5 166.5 c 128,-1,34
 364 105 364 105 397 105 c 256,23,24
EndSplineSet
EndChar

StartChar: afii10066
Encoding: 1073 1073 458
Width: 600
GlyphClass: 2
Flags: W
AnchorPoint: "Anchor-3" 300 765 basechar 0
AnchorPoint: "Anchor-0" 300 0 basechar 0
LayerCount: 2
Fore
SplineSet
299 -10 m 0,0,1
 180 -10 180 -10 110 77 c 128,-1,2
 40 164 40 164 40 327 c 0,3,4
 40 507 40 507 106 607 c 128,-1,5
 172 707 172 707 324 734 c 0,6,7
 377 744 377 744 431 751 c 128,-1,8
 485 758 485 758 543 765 c 1,9,-1
 560 640 l 1,10,11
 526 636 526 636 485.5 631 c 128,-1,12
 445 626 445 626 406 621 c 128,-1,13
 367 616 367 616 337 611 c 0,14,15
 289 603 289 603 257 585.5 c 128,-1,16
 225 568 225 568 207.5 530.5 c 128,-1,17
 190 493 190 493 187 425 c 1,18,-1
 194 425 l 1,19,20
 205 444 205 444 226.5 463 c 128,-1,21
 248 482 248 482 279 495 c 128,-1,22
 310 508 310 508 351 508 c 0,23,24
 446 508 446 508 501.5 447 c 128,-1,25
 557 386 557 386 557 269 c 0,26,27
 557 176 557 176 524.5 114 c 128,-1,28
 492 52 492 52 434 21 c 128,-1,29
 376 -10 376 -10 299 -10 c 0,0,1
308 106 m 0,30,31
 354 106 354 106 382.5 139.5 c 128,-1,32
 411 173 411 173 411 256 c 0,33,34
 411 323 411 323 389.5 362.5 c 128,-1,35
 368 402 368 402 318 402 c 0,36,37
 286 402 286 402 259 386 c 128,-1,38
 232 370 232 370 213 349.5 c 128,-1,39
 194 329 194 329 186 315 c 1,40,41
 186 262 186 262 196.5 214.5 c 128,-1,42
 207 167 207 167 233.5 136.5 c 128,-1,43
 260 106 260 106 308 106 c 0,30,31
EndSplineSet
Substitution2: "'locl' Localized Forms in Cyrillic lookup 19 subtable" afii10066.loclSRB
Substitution2: "'aalt' Access All Alternates lookup 0 subtable" afii10066.loclSRB
EndChar

StartChar: afii10067
Encoding: 1074 1074 459
Width: 600
GlyphClass: 2
Flags: W
AnchorPoint: "Anchor-3" 300 546 basechar 0
AnchorPoint: "Anchor-0" 300 0 basechar 0
LayerCount: 2
Fore
SplineSet
99 0 m 1,0,-1
 99 546 l 1,1,-1
 306 546 l 2,2,3
 366 546 366 546 413.5 532.5 c 128,-1,4
 461 519 461 519 489 488 c 128,-1,5
 517 457 517 457 517 404 c 0,6,7
 517 359 517 359 492 328 c 128,-1,8
 467 297 467 297 419 288 c 1,9,-1
 419 284 l 1,10,11
 471 277 471 277 502.5 245 c 128,-1,12
 534 213 534 213 534 162 c 0,13,14
 534 116 534 116 511 79 c 128,-1,15
 488 42 488 42 438 21 c 128,-1,16
 388 0 388 0 306 0 c 2,17,-1
 99 0 l 1,0,-1
231 331 m 1,18,-1
 283 331 l 2,19,20
 383 331 383 331 383 391 c 0,21,22
 383 444 383 444 300 444 c 2,23,-1
 231 444 l 1,24,-1
 231 331 l 1,18,-1
231 100 m 1,25,-1
 296 100 l 2,26,27
 340 100 340 100 368.5 116 c 128,-1,28
 397 132 397 132 397 170 c 0,29,30
 397 233 397 233 293 233 c 2,31,-1
 231 233 l 1,32,-1
 231 100 l 1,25,-1
EndSplineSet
EndChar

StartChar: afii10068
Encoding: 1075 1075 460
Width: 600
GlyphClass: 2
Flags: W
AnchorPoint: "Anchor-3" 330 546 basechar 0
AnchorPoint: "Anchor-0" 300 0 basechar 0
LayerCount: 2
Fore
SplineSet
139 0 m 1,0,-1
 139 546 l 1,1,-1
 511 546 l 1,2,-1
 511 438 l 1,3,-1
 282 438 l 1,4,-1
 282 0 l 1,5,-1
 139 0 l 1,0,-1
EndSplineSet
EndChar

StartChar: afii10069
Encoding: 1076 1076 461
Width: 600
GlyphClass: 2
Flags: W
AnchorPoint: "Anchor-3" 340 546 basechar 0
AnchorPoint: "Anchor-0" 300 -195 basechar 0
LayerCount: 2
Fore
SplineSet
27 -195 m 1,0,-1
 27 106 l 1,1,-1
 73 106 l 1,2,3
 104 162 104 162 125.5 233 c 128,-1,4
 147 304 147 304 159.5 384 c 128,-1,5
 172 464 172 464 178 546 c 1,6,-1
 494 546 l 1,7,-1
 494 106 l 1,8,-1
 573 106 l 1,9,-1
 573 -195 l 1,10,-1
 449 -195 l 1,11,-1
 449 0 l 1,12,-1
 153 0 l 1,13,-1
 153 -195 l 1,14,-1
 27 -195 l 1,0,-1
219 106 m 1,15,-1
 355 106 l 1,16,-1
 355 438 l 1,17,-1
 294 438 l 1,18,19
 285 346 285 346 267.5 261.5 c 128,-1,20
 250 177 250 177 219 106 c 1,15,-1
EndSplineSet
EndChar

StartChar: afii10072
Encoding: 1078 1078 463
Width: 600
GlyphClass: 2
Flags: W
AnchorPoint: "Anchor-3" 300 546 basechar 0
AnchorPoint: "Anchor-0" 300 0 basechar 0
LayerCount: 2
Fore
SplineSet
5 0 m 1,0,-1
 114 286 l 1,1,-1
 18 546 l 1,2,-1
 157 546 l 1,3,-1
 240 284 l 1,4,-1
 240 546 l 1,5,-1
 360 546 l 1,6,-1
 360 284 l 1,7,-1
 444 546 l 1,8,-1
 583 546 l 1,9,-1
 486 286 l 1,10,-1
 595 0 l 1,11,-1
 452 0 l 1,12,-1
 360 280 l 1,13,-1
 360 0 l 1,14,-1
 240 0 l 1,15,-1
 240 280 l 1,16,-1
 149 0 l 1,17,-1
 5 0 l 1,0,-1
EndSplineSet
EndChar

StartChar: afii10073
Encoding: 1079 1079 464
Width: 600
GlyphClass: 2
Flags: W
AnchorPoint: "Anchor-3" 300 546 basechar 0
AnchorPoint: "Anchor-0" 300 0 basechar 0
LayerCount: 2
Fore
SplineSet
259 -10 m 0,0,1
 207 -10 207 -10 156.5 -1 c 128,-1,2
 106 8 106 8 72 24 c 1,3,-1
 72 143 l 1,4,5
 105 127 105 127 150.5 114 c 128,-1,6
 196 101 196 101 253 101 c 0,7,8
 286 101 286 101 315.5 107.5 c 128,-1,9
 345 114 345 114 363.5 128.5 c 128,-1,10
 382 143 382 143 382 168 c 0,11,12
 382 234 382 234 239 234 c 2,13,-1
 185 234 l 1,14,-1
 185 334 l 1,15,-1
 235 334 l 2,16,17
 302 334 302 334 339.5 346.5 c 128,-1,18
 377 359 377 359 377 393 c 0,19,20
 377 449 377 449 280 449 c 0,21,22
 237 449 237 449 196 439.5 c 128,-1,23
 155 430 155 430 116 414 c 1,24,-1
 76 514 l 1,25,26
 122 534 122 534 175.5 544.5 c 128,-1,27
 229 555 229 555 282 555 c 0,28,29
 344 555 344 555 393.5 539.5 c 128,-1,30
 443 524 443 524 472 492 c 128,-1,31
 501 460 501 460 501 410 c 0,32,33
 501 361 501 361 472.5 332.5 c 128,-1,34
 444 304 444 304 397 291 c 1,35,-1
 397 286 l 1,36,37
 448 273 448 273 482 245 c 128,-1,38
 516 217 516 217 516 160 c 0,39,40
 516 114 516 114 489.5 75.5 c 128,-1,41
 463 37 463 37 406.5 13.5 c 128,-1,42
 350 -10 350 -10 259 -10 c 0,0,1
EndSplineSet
EndChar

StartChar: afii10074
Encoding: 1080 1080 465
Width: 600
GlyphClass: 2
Flags: W
AnchorPoint: "Anchor-3" 297 546 basechar 0
AnchorPoint: "Anchor-0" 307 0 basechar 0
LayerCount: 2
Fore
SplineSet
55 0 m 1,0,-1
 55 546 l 1,1,-1
 193 546 l 1,2,-1
 193 319 l 2,3,4
 193 303 193 303 191.5 278.5 c 128,-1,5
 190 254 190 254 188.5 229 c 128,-1,6
 187 204 187 204 185 184 c 128,-1,7
 183 164 183 164 182 156 c 2,8,-1
 373 546 l 1,9,-1
 545 546 l 1,10,-1
 545 0 l 1,11,-1
 407 0 l 1,12,-1
 407 228 l 2,13,14
 407 253 407 253 409 285 c 128,-1,15
 411 317 411 317 413 345.5 c 128,-1,16
 415 374 415 374 416 389 c 1,17,-1
 227 0 l 1,18,-1
 55 0 l 1,0,-1
EndSplineSet
EndChar

StartChar: afii10076
Encoding: 1082 1082 467
Width: 600
GlyphClass: 2
Flags: W
AnchorPoint: "Anchor-3" 320 546 basechar 0
AnchorPoint: "Anchor-0" 313 0 basechar 0
LayerCount: 2
Fore
SplineSet
60 0 m 1,0,-1
 60 546 l 1,1,-1
 203 546 l 1,2,-1
 203 281 l 1,3,-1
 409 546 l 1,4,-1
 566 546 l 1,5,-1
 354 283 l 1,6,-1
 585 0 l 1,7,-1
 423 0 l 1,8,-1
 203 277 l 1,9,-1
 203 0 l 1,10,-1
 60 0 l 1,0,-1
EndSplineSet
EndChar

StartChar: afii10077
Encoding: 1083 1083 468
Width: 600
GlyphClass: 2
Flags: W
AnchorPoint: "Anchor-3" 366 546 basechar 0
AnchorPoint: "Anchor-0" 361 0 basechar 0
LayerCount: 2
Fore
SplineSet
116 -10 m 0,0,1
 68 -10 68 -10 35 5 c 1,2,-1
 35 119 l 1,3,4
 54 110 54 110 81 110 c 0,5,6
 99 110 99 110 115 129 c 128,-1,7
 131 148 131 148 144.5 196 c 128,-1,8
 158 244 158 244 169.5 329 c 128,-1,9
 181 414 181 414 190 545 c 1,10,-1
 545 545 l 1,11,-1
 545 0 l 1,12,-1
 406 0 l 1,13,-1
 406 429 l 1,14,-1
 317 429 l 1,15,16
 304 268 304 268 281 171.5 c 128,-1,17
 258 75 258 75 218.5 32.5 c 128,-1,18
 179 -10 179 -10 116 -10 c 0,0,1
EndSplineSet
EndChar

StartChar: afii10078
Encoding: 1084 1084 469
Width: 600
GlyphClass: 2
Flags: W
AnchorPoint: "Anchor-3" 300 546 basechar 0
AnchorPoint: "Anchor-0" 300 0 basechar 0
LayerCount: 2
Fore
SplineSet
30 0 m 1,0,-1
 30 546 l 1,1,-1
 202 546 l 1,2,-1
 300 191 l 1,3,-1
 398 546 l 1,4,-1
 570 546 l 1,5,-1
 570 0 l 1,6,-1
 453 0 l 1,7,-1
 453 258 l 2,8,9
 453 288 453 288 455 325 c 128,-1,10
 457 362 457 362 461 403 c 1,11,-1
 457 403 l 1,12,-1
 345 0 l 1,13,-1
 254 0 l 1,14,-1
 141 403 l 1,15,-1
 137 403 l 1,16,17
 140 364 140 364 142 327 c 128,-1,18
 144 290 144 290 144 259 c 2,19,-1
 144 0 l 1,20,-1
 30 0 l 1,0,-1
EndSplineSet
EndChar

